<?xml version="1.0" encoding="utf-8"?>
<svg xmlns="http://www.w3.org/2000/svg" xmlns:xlink="http://www.w3.org/1999/xlink" width="600" height="400" viewBox="0 0 2400 1600">
<defs>
  <clipPath id="clip6400">
    <rect x="0" y="0" width="2400" height="1600"/>
  </clipPath>
</defs>
<path clip-path="url(#clip6400)" d="
M0 1600 L2400 1600 L2400 0 L0 0  Z
  " fill="#ffffff" fill-rule="evenodd" fill-opacity="1"/>
<defs>
  <clipPath id="clip6401">
    <rect x="480" y="0" width="1681" height="1600"/>
  </clipPath>
</defs>
<path clip-path="url(#clip6400)" d="
M102.74 1505.26 L2352.76 1505.26 L2352.76 62.9921 L102.74 62.9921  Z
  " fill="#ffffff" fill-rule="evenodd" fill-opacity="1"/>
<defs>
  <clipPath id="clip6402">
    <rect x="102" y="62" width="2251" height="1443"/>
  </clipPath>
</defs>
<polyline clip-path="url(#clip6402)" style="stroke:#000000; stroke-width:2; stroke-opacity:0.1; fill:none" points="
  166.416,1505.26 166.416,62.9921 
  "/>
<polyline clip-path="url(#clip6402)" style="stroke:#000000; stroke-width:2; stroke-opacity:0.1; fill:none" points="
  590.948,1505.26 590.948,62.9921 
  "/>
<polyline clip-path="url(#clip6402)" style="stroke:#000000; stroke-width:2; stroke-opacity:0.1; fill:none" points="
  1015.48,1505.26 1015.48,62.9921 
  "/>
<polyline clip-path="url(#clip6402)" style="stroke:#000000; stroke-width:2; stroke-opacity:0.1; fill:none" points="
  1440.01,1505.26 1440.01,62.9921 
  "/>
<polyline clip-path="url(#clip6402)" style="stroke:#000000; stroke-width:2; stroke-opacity:0.1; fill:none" points="
  1864.54,1505.26 1864.54,62.9921 
  "/>
<polyline clip-path="url(#clip6402)" style="stroke:#000000; stroke-width:2; stroke-opacity:0.1; fill:none" points="
  2289.08,1505.26 2289.08,62.9921 
  "/>
<polyline clip-path="url(#clip6402)" style="stroke:#000000; stroke-width:2; stroke-opacity:0.1; fill:none" points="
  102.74,1464.45 2352.76,1464.45 
  "/>
<polyline clip-path="url(#clip6402)" style="stroke:#000000; stroke-width:2; stroke-opacity:0.1; fill:none" points="
  102.74,1157.38 2352.76,1157.38 
  "/>
<polyline clip-path="url(#clip6402)" style="stroke:#000000; stroke-width:2; stroke-opacity:0.1; fill:none" points="
  102.74,850.308 2352.76,850.308 
  "/>
<polyline clip-path="url(#clip6402)" style="stroke:#000000; stroke-width:2; stroke-opacity:0.1; fill:none" points="
  102.74,543.235 2352.76,543.235 
  "/>
<polyline clip-path="url(#clip6402)" style="stroke:#000000; stroke-width:2; stroke-opacity:0.1; fill:none" points="
  102.74,236.162 2352.76,236.162 
  "/>
<polyline clip-path="url(#clip6400)" style="stroke:#000000; stroke-width:4; stroke-opacity:1; fill:none" points="
  102.74,1505.26 2352.76,1505.26 
  "/>
<polyline clip-path="url(#clip6400)" style="stroke:#000000; stroke-width:4; stroke-opacity:1; fill:none" points="
  102.74,1505.26 102.74,62.9921 
  "/>
<polyline clip-path="url(#clip6400)" style="stroke:#000000; stroke-width:4; stroke-opacity:1; fill:none" points="
  166.416,1505.26 166.416,1487.95 
  "/>
<polyline clip-path="url(#clip6400)" style="stroke:#000000; stroke-width:4; stroke-opacity:1; fill:none" points="
  590.948,1505.26 590.948,1487.95 
  "/>
<polyline clip-path="url(#clip6400)" style="stroke:#000000; stroke-width:4; stroke-opacity:1; fill:none" points="
  1015.48,1505.26 1015.48,1487.95 
  "/>
<polyline clip-path="url(#clip6400)" style="stroke:#000000; stroke-width:4; stroke-opacity:1; fill:none" points="
  1440.01,1505.26 1440.01,1487.95 
  "/>
<polyline clip-path="url(#clip6400)" style="stroke:#000000; stroke-width:4; stroke-opacity:1; fill:none" points="
  1864.54,1505.26 1864.54,1487.95 
  "/>
<polyline clip-path="url(#clip6400)" style="stroke:#000000; stroke-width:4; stroke-opacity:1; fill:none" points="
  2289.08,1505.26 2289.08,1487.95 
  "/>
<polyline clip-path="url(#clip6400)" style="stroke:#000000; stroke-width:4; stroke-opacity:1; fill:none" points="
  102.74,1464.45 129.74,1464.45 
  "/>
<polyline clip-path="url(#clip6400)" style="stroke:#000000; stroke-width:4; stroke-opacity:1; fill:none" points="
  102.74,1157.38 129.74,1157.38 
  "/>
<polyline clip-path="url(#clip6400)" style="stroke:#000000; stroke-width:4; stroke-opacity:1; fill:none" points="
  102.74,850.308 129.74,850.308 
  "/>
<polyline clip-path="url(#clip6400)" style="stroke:#000000; stroke-width:4; stroke-opacity:1; fill:none" points="
  102.74,543.235 129.74,543.235 
  "/>
<polyline clip-path="url(#clip6400)" style="stroke:#000000; stroke-width:4; stroke-opacity:1; fill:none" points="
  102.74,236.162 129.74,236.162 
  "/>
<path clip-path="url(#clip6400)" d="M 0 0 M166.416 1527.25 Q162.805 1527.25 160.976 1530.82 Q159.17 1534.36 159.17 1541.49 Q159.17 1548.59 160.976 1552.16 Q162.805 1555.7 166.416 1555.7 Q170.05 1555.7 171.855 1552.16 Q173.684 1548.59 173.684 1541.49 Q173.684 1534.36 171.855 1530.82 Q170.05 1527.25 166.416 1527.25 M166.416 1523.55 Q172.226 1523.55 175.281 1528.15 Q178.36 1532.74 178.36 1541.49 Q178.36 1550.21 175.281 1554.82 Q172.226 1559.4 166.416 1559.4 Q160.605 1559.4 157.527 1554.82 Q154.471 1550.21 154.471 1541.49 Q154.471 1532.74 157.527 1528.15 Q160.605 1523.55 166.416 1523.55 Z" fill="#000000" fill-rule="evenodd" fill-opacity="1" /><path clip-path="url(#clip6400)" d="M 0 0 M581.33 1554.8 L588.969 1554.8 L588.969 1528.43 L580.658 1530.1 L580.658 1525.84 L588.922 1524.17 L593.598 1524.17 L593.598 1554.8 L601.237 1554.8 L601.237 1558.73 L581.33 1558.73 L581.33 1554.8 Z" fill="#000000" fill-rule="evenodd" fill-opacity="1" /><path clip-path="url(#clip6400)" d="M 0 0 M1010.13 1554.8 L1026.45 1554.8 L1026.45 1558.73 L1004.51 1558.73 L1004.51 1554.8 Q1007.17 1552.04 1011.75 1547.41 Q1016.36 1542.76 1017.54 1541.42 Q1019.79 1538.89 1020.67 1537.16 Q1021.57 1535.4 1021.57 1533.71 Q1021.57 1530.95 1019.62 1529.22 Q1017.7 1527.48 1014.6 1527.48 Q1012.4 1527.48 1009.95 1528.25 Q1007.52 1529.01 1004.74 1530.56 L1004.74 1525.84 Q1007.56 1524.7 1010.02 1524.13 Q1012.47 1523.55 1014.51 1523.55 Q1019.88 1523.55 1023.07 1526.23 Q1026.27 1528.92 1026.27 1533.41 Q1026.27 1535.54 1025.46 1537.46 Q1024.67 1539.36 1022.56 1541.95 Q1021.98 1542.62 1018.88 1545.84 Q1015.78 1549.03 1010.13 1554.8 Z" fill="#000000" fill-rule="evenodd" fill-opacity="1" /><path clip-path="url(#clip6400)" d="M 0 0 M1444.26 1540.1 Q1447.62 1540.82 1449.49 1543.08 Q1451.39 1545.35 1451.39 1548.69 Q1451.39 1553.8 1447.87 1556.6 Q1444.35 1559.4 1437.87 1559.4 Q1435.69 1559.4 1433.38 1558.96 Q1431.09 1558.55 1428.63 1557.69 L1428.63 1553.18 Q1430.58 1554.31 1432.89 1554.89 Q1435.21 1555.47 1437.73 1555.47 Q1442.13 1555.47 1444.42 1553.73 Q1446.74 1552 1446.74 1548.69 Q1446.74 1545.63 1444.58 1543.92 Q1442.45 1542.18 1438.63 1542.18 L1434.61 1542.18 L1434.61 1538.34 L1438.82 1538.34 Q1442.27 1538.34 1444.1 1536.97 Q1445.93 1535.58 1445.93 1532.99 Q1445.93 1530.33 1444.03 1528.92 Q1442.15 1527.48 1438.63 1527.48 Q1436.71 1527.48 1434.51 1527.9 Q1432.32 1528.32 1429.68 1529.19 L1429.68 1525.03 Q1432.34 1524.29 1434.65 1523.92 Q1436.99 1523.55 1439.05 1523.55 Q1444.38 1523.55 1447.48 1525.98 Q1450.58 1528.38 1450.58 1532.51 Q1450.58 1535.38 1448.94 1537.37 Q1447.29 1539.33 1444.26 1540.1 Z" fill="#000000" fill-rule="evenodd" fill-opacity="1" /><path clip-path="url(#clip6400)" d="M 0 0 M1867.55 1528.25 L1855.75 1546.69 L1867.55 1546.69 L1867.55 1528.25 M1866.33 1524.17 L1872.21 1524.17 L1872.21 1546.69 L1877.14 1546.69 L1877.14 1550.58 L1872.21 1550.58 L1872.21 1558.73 L1867.55 1558.73 L1867.55 1550.58 L1851.95 1550.58 L1851.95 1546.07 L1866.33 1524.17 Z" fill="#000000" fill-rule="evenodd" fill-opacity="1" /><path clip-path="url(#clip6400)" d="M 0 0 M2279.35 1524.17 L2297.71 1524.17 L2297.71 1528.11 L2283.64 1528.11 L2283.64 1536.58 Q2284.65 1536.23 2285.67 1536.07 Q2286.69 1535.88 2287.71 1535.88 Q2293.5 1535.88 2296.88 1539.06 Q2300.26 1542.23 2300.26 1547.64 Q2300.26 1553.22 2296.78 1556.32 Q2293.31 1559.4 2286.99 1559.4 Q2284.82 1559.4 2282.55 1559.03 Q2280.3 1558.66 2277.9 1557.92 L2277.9 1553.22 Q2279.98 1554.36 2282.2 1554.91 Q2284.42 1555.47 2286.9 1555.47 Q2290.9 1555.47 2293.24 1553.36 Q2295.58 1551.26 2295.58 1547.64 Q2295.58 1544.03 2293.24 1541.93 Q2290.9 1539.82 2286.9 1539.82 Q2285.03 1539.82 2283.15 1540.24 Q2281.3 1540.65 2279.35 1541.53 L2279.35 1524.17 Z" fill="#000000" fill-rule="evenodd" fill-opacity="1" /><path clip-path="url(#clip6400)" d="M 0 0 M66.7958 1450.25 Q63.1847 1450.25 61.356 1453.82 Q59.5504 1457.36 59.5504 1464.49 Q59.5504 1471.6 61.356 1475.16 Q63.1847 1478.7 66.7958 1478.7 Q70.43 1478.7 72.2356 1475.16 Q74.0643 1471.6 74.0643 1464.49 Q74.0643 1457.36 72.2356 1453.82 Q70.43 1450.25 66.7958 1450.25 M66.7958 1446.55 Q72.6059 1446.55 75.6615 1451.16 Q78.7402 1455.74 78.7402 1464.49 Q78.7402 1473.22 75.6615 1477.82 Q72.6059 1482.41 66.7958 1482.41 Q60.9856 1482.41 57.9069 1477.82 Q54.8514 1473.22 54.8514 1464.49 Q54.8514 1455.74 57.9069 1451.16 Q60.9856 1446.55 66.7958 1446.55 Z" fill="#000000" fill-rule="evenodd" fill-opacity="1" /><path clip-path="url(#clip6400)" d="M 0 0 M-53.2108 1177.17 L-36.8915 1177.17 L-36.8915 1181.11 L-58.8358 1181.11 L-58.8358 1177.17 Q-56.1738 1174.42 -51.5905 1169.79 Q-46.984 1165.14 -45.8034 1163.79 Q-43.5581 1161.27 -42.6785 1159.53 Q-41.7757 1157.78 -41.7757 1156.09 Q-41.7757 1153.33 -43.7201 1151.6 Q-45.6414 1149.86 -48.7432 1149.86 Q-50.9423 1149.86 -53.396 1150.62 Q-55.8265 1151.39 -58.6043 1152.94 L-58.6043 1148.22 Q-55.7802 1147.08 -53.3266 1146.5 Q-50.8729 1145.92 -48.8358 1145.92 Q-43.4655 1145.92 -40.2711 1148.61 Q-37.0766 1151.29 -37.0766 1155.78 Q-37.0766 1157.91 -37.8868 1159.84 Q-38.6739 1161.73 -40.7803 1164.33 Q-41.359 1165 -44.4609 1168.22 Q-47.5627 1171.41 -53.2108 1177.17 Z" fill="#000000" fill-rule="evenodd" fill-opacity="1" /><path clip-path="url(#clip6400)" d="M 0 0 M-31.822 1175.23 L-26.9378 1175.23 L-26.9378 1181.11 L-31.822 1181.11 L-31.822 1175.23 Z" fill="#000000" fill-rule="evenodd" fill-opacity="1" /><path clip-path="url(#clip6400)" d="M 0 0 M-21.8221 1146.55 L-3.46571 1146.55 L-3.46571 1150.48 L-17.5397 1150.48 L-17.5397 1158.96 Q-16.5212 1158.61 -15.5027 1158.45 Q-14.4842 1158.26 -13.4657 1158.26 Q-7.67865 1158.26 -4.29904 1161.43 Q-0.919427 1164.6 -0.919427 1170.02 Q-0.919427 1175.6 -4.39163 1178.7 Q-7.86383 1181.78 -14.1832 1181.78 Q-16.3592 1181.78 -18.6277 1181.41 Q-20.873 1181.04 -23.2804 1180.3 L-23.2804 1175.6 Q-21.1971 1176.73 -18.9749 1177.29 Q-16.7527 1177.85 -14.2758 1177.85 Q-10.2712 1177.85 -7.93328 1175.74 Q-5.59533 1173.63 -5.59533 1170.02 Q-5.59533 1166.41 -7.93328 1164.3 Q-10.2712 1162.2 -14.2758 1162.2 Q-16.1508 1162.2 -18.0258 1162.61 Q-19.8777 1163.03 -21.8221 1163.91 L-21.8221 1146.55 Z" fill="#000000" fill-rule="evenodd" fill-opacity="1" /><path clip-path="url(#clip6400)" d="M 0 0 M3.91851 1150.55 L8.22404 1150.55 L8.22404 1185.74 L3.91851 1185.74 L3.91851 1150.55 Z" fill="#000000" fill-rule="evenodd" fill-opacity="1" /><path clip-path="url(#clip6400)" d="M 0 0 M23.2934 1149.63 Q19.6823 1149.63 17.8536 1153.19 Q16.0481 1156.73 16.0481 1163.86 Q16.0481 1170.97 17.8536 1174.53 Q19.6823 1178.08 23.2934 1178.08 Q26.9276 1178.08 28.7332 1174.53 Q30.5619 1170.97 30.5619 1163.86 Q30.5619 1156.73 28.7332 1153.19 Q26.9276 1149.63 23.2934 1149.63 M23.2934 1145.92 Q29.1036 1145.92 32.1591 1150.53 Q35.2378 1155.11 35.2378 1163.86 Q35.2378 1172.59 32.1591 1177.2 Q29.1036 1181.78 23.2934 1181.78 Q17.4833 1181.78 14.4046 1177.2 Q11.349 1172.59 11.349 1163.86 Q11.349 1155.11 14.4046 1150.53 Q17.4833 1145.92 23.2934 1145.92 Z" fill="#000000" fill-rule="evenodd" fill-opacity="1" /><path clip-path="url(#clip6400)" d="M 0 0 M35.2378 1141.61 L45.3752 1141.61 L45.3752 1144.69 L35.2378 1144.69 L35.2378 1141.61 Z" fill="#000000" fill-rule="evenodd" fill-opacity="1" /><path clip-path="url(#clip6400)" d="M 0 0 M69.3739 1138.14 Q66.816 1138.14 65.3114 1139.89 Q63.8256 1141.64 63.8256 1144.69 Q63.8256 1147.72 65.3114 1149.49 Q66.816 1151.23 69.3739 1151.23 Q71.9317 1151.23 73.4176 1149.49 Q74.9222 1147.72 74.9222 1144.69 Q74.9222 1141.64 73.4176 1139.89 Q71.9317 1138.14 69.3739 1138.14 M76.9158 1126.24 L76.9158 1129.7 Q75.4864 1129.02 74.0194 1128.67 Q72.5712 1128.31 71.1418 1128.31 Q67.3803 1128.31 65.3866 1130.85 Q63.4118 1133.39 63.1297 1138.52 Q64.2394 1136.88 65.9133 1136.02 Q67.5872 1135.14 69.5996 1135.14 Q73.8313 1135.14 76.2763 1137.71 Q78.7402 1140.27 78.7402 1144.69 Q78.7402 1149.02 76.1823 1151.63 Q73.6244 1154.24 69.3739 1154.24 Q64.5027 1154.24 61.926 1150.52 Q59.3493 1146.78 59.3493 1139.69 Q59.3493 1133.03 62.5091 1129.08 Q65.6688 1125.11 70.9914 1125.11 Q72.4207 1125.11 73.8689 1125.39 Q75.336 1125.67 76.9158 1126.24 Z" fill="#000000" fill-rule="evenodd" fill-opacity="1" /><path clip-path="url(#clip6400)" d="M 0 0 M-58.7895 839.476 L-40.4331 839.476 L-40.4331 843.411 L-54.5071 843.411 L-54.5071 851.883 Q-53.4886 851.536 -52.4701 851.374 Q-51.4516 851.189 -50.4331 851.189 Q-44.646 851.189 -41.2664 854.36 Q-37.8868 857.531 -37.8868 862.948 Q-37.8868 868.527 -41.359 871.628 Q-44.8312 874.707 -51.1506 874.707 Q-53.3266 874.707 -55.5951 874.337 Q-57.8404 873.966 -60.2478 873.226 L-60.2478 868.527 Q-58.1645 869.661 -55.9423 870.216 Q-53.7201 870.772 -51.2432 870.772 Q-47.2386 870.772 -44.9007 868.665 Q-42.5627 866.559 -42.5627 862.948 Q-42.5627 859.337 -44.9007 857.23 Q-47.2386 855.124 -51.2432 855.124 Q-53.1182 855.124 -54.9932 855.541 Q-56.8451 855.957 -58.7895 856.837 L-58.7895 839.476 Z" fill="#000000" fill-rule="evenodd" fill-opacity="1" /><path clip-path="url(#clip6400)" d="M 0 0 M-32.8174 868.156 L-27.9332 868.156 L-27.9332 874.036 L-32.8174 874.036 L-32.8174 868.156 Z" fill="#000000" fill-rule="evenodd" fill-opacity="1" /><path clip-path="url(#clip6400)" d="M 0 0 M-12.8638 842.554 Q-16.4749 842.554 -18.3036 846.119 Q-20.1091 849.661 -20.1091 856.791 Q-20.1091 863.897 -18.3036 867.462 Q-16.4749 871.003 -12.8638 871.003 Q-9.22957 871.003 -7.42402 867.462 Q-5.59533 863.897 -5.59533 856.791 Q-5.59533 849.661 -7.42402 846.119 Q-9.22957 842.554 -12.8638 842.554 M-12.8638 838.851 Q-7.05365 838.851 -3.99811 843.457 Q-0.919427 848.041 -0.919427 856.791 Q-0.919427 865.517 -3.99811 870.124 Q-7.05365 874.707 -12.8638 874.707 Q-18.674 874.707 -21.7526 870.124 Q-24.8082 865.517 -24.8082 856.791 Q-24.8082 848.041 -21.7526 843.457 Q-18.674 838.851 -12.8638 838.851 Z" fill="#000000" fill-rule="evenodd" fill-opacity="1" /><path clip-path="url(#clip6400)" d="M 0 0 M3.91851 843.48 L8.22404 843.48 L8.22404 878.665 L3.91851 878.665 L3.91851 843.48 Z" fill="#000000" fill-rule="evenodd" fill-opacity="1" /><path clip-path="url(#clip6400)" d="M 0 0 M23.2934 842.554 Q19.6823 842.554 17.8536 846.119 Q16.0481 849.661 16.0481 856.791 Q16.0481 863.897 17.8536 867.462 Q19.6823 871.003 23.2934 871.003 Q26.9276 871.003 28.7332 867.462 Q30.5619 863.897 30.5619 856.791 Q30.5619 849.661 28.7332 846.119 Q26.9276 842.554 23.2934 842.554 M23.2934 838.851 Q29.1036 838.851 32.1591 843.457 Q35.2378 848.041 35.2378 856.791 Q35.2378 865.517 32.1591 870.124 Q29.1036 874.707 23.2934 874.707 Q17.4833 874.707 14.4046 870.124 Q11.349 865.517 11.349 856.791 Q11.349 848.041 14.4046 843.457 Q17.4833 838.851 23.2934 838.851 Z" fill="#000000" fill-rule="evenodd" fill-opacity="1" /><path clip-path="url(#clip6400)" d="M 0 0 M35.2378 834.532 L45.3752 834.532 L45.3752 837.616 L35.2378 837.616 L35.2378 834.532 Z" fill="#000000" fill-rule="evenodd" fill-opacity="1" /><path clip-path="url(#clip6400)" d="M 0 0 M69.3739 831.071 Q66.816 831.071 65.3114 832.82 Q63.8256 834.57 63.8256 837.616 Q63.8256 840.645 65.3114 842.412 Q66.816 844.162 69.3739 844.162 Q71.9317 844.162 73.4176 842.412 Q74.9222 840.645 74.9222 837.616 Q74.9222 834.57 73.4176 832.82 Q71.9317 831.071 69.3739 831.071 M76.9158 819.166 L76.9158 822.627 Q75.4864 821.95 74.0194 821.592 Q72.5712 821.235 71.1418 821.235 Q67.3803 821.235 65.3866 823.774 Q63.4118 826.313 63.1297 831.448 Q64.2394 829.811 65.9133 828.946 Q67.5872 828.062 69.5996 828.062 Q73.8313 828.062 76.2763 830.639 Q78.7402 833.197 78.7402 837.616 Q78.7402 841.942 76.1823 844.557 Q73.6244 847.171 69.3739 847.171 Q64.5027 847.171 61.926 843.447 Q59.3493 839.704 59.3493 832.614 Q59.3493 825.956 62.5091 822.006 Q65.6688 818.038 70.9914 818.038 Q72.4207 818.038 73.8689 818.32 Q75.336 818.602 76.9158 819.166 Z" fill="#000000" fill-rule="evenodd" fill-opacity="1" /><path clip-path="url(#clip6400)" d="M 0 0 M-59.1136 532.403 L-36.8915 532.403 L-36.8915 534.393 L-49.4377 566.963 L-54.3219 566.963 L-42.5164 536.338 L-59.1136 536.338 L-59.1136 532.403 Z" fill="#000000" fill-rule="evenodd" fill-opacity="1" /><path clip-path="url(#clip6400)" d="M 0 0 M-31.822 561.083 L-26.9378 561.083 L-26.9378 566.963 L-31.822 566.963 L-31.822 561.083 Z" fill="#000000" fill-rule="evenodd" fill-opacity="1" /><path clip-path="url(#clip6400)" d="M 0 0 M-21.8221 532.403 L-3.46571 532.403 L-3.46571 536.338 L-17.5397 536.338 L-17.5397 544.81 Q-16.5212 544.463 -15.5027 544.301 Q-14.4842 544.116 -13.4657 544.116 Q-7.67865 544.116 -4.29904 547.287 Q-0.919427 550.458 -0.919427 555.875 Q-0.919427 561.453 -4.39163 564.555 Q-7.86383 567.634 -14.1832 567.634 Q-16.3592 567.634 -18.6277 567.264 Q-20.873 566.893 -23.2804 566.153 L-23.2804 561.453 Q-21.1971 562.588 -18.9749 563.143 Q-16.7527 563.699 -14.2758 563.699 Q-10.2712 563.699 -7.93328 561.592 Q-5.59533 559.486 -5.59533 555.875 Q-5.59533 552.264 -7.93328 550.157 Q-10.2712 548.051 -14.2758 548.051 Q-16.1508 548.051 -18.0258 548.467 Q-19.8777 548.884 -21.8221 549.764 L-21.8221 532.403 Z" fill="#000000" fill-rule="evenodd" fill-opacity="1" /><path clip-path="url(#clip6400)" d="M 0 0 M3.91851 536.407 L8.22404 536.407 L8.22404 571.592 L3.91851 571.592 L3.91851 536.407 Z" fill="#000000" fill-rule="evenodd" fill-opacity="1" /><path clip-path="url(#clip6400)" d="M 0 0 M23.2934 535.481 Q19.6823 535.481 17.8536 539.046 Q16.0481 542.588 16.0481 549.717 Q16.0481 556.824 17.8536 560.389 Q19.6823 563.93 23.2934 563.93 Q26.9276 563.93 28.7332 560.389 Q30.5619 556.824 30.5619 549.717 Q30.5619 542.588 28.7332 539.046 Q26.9276 535.481 23.2934 535.481 M23.2934 531.778 Q29.1036 531.778 32.1591 536.384 Q35.2378 540.967 35.2378 549.717 Q35.2378 558.444 32.1591 563.051 Q29.1036 567.634 23.2934 567.634 Q17.4833 567.634 14.4046 563.051 Q11.349 558.444 11.349 549.717 Q11.349 540.967 14.4046 536.384 Q17.4833 531.778 23.2934 531.778 Z" fill="#000000" fill-rule="evenodd" fill-opacity="1" /><path clip-path="url(#clip6400)" d="M 0 0 M35.2378 527.459 L45.3752 527.459 L45.3752 530.543 L35.2378 530.543 L35.2378 527.459 Z" fill="#000000" fill-rule="evenodd" fill-opacity="1" /><path clip-path="url(#clip6400)" d="M 0 0 M69.3739 523.998 Q66.816 523.998 65.3114 525.747 Q63.8256 527.497 63.8256 530.543 Q63.8256 533.571 65.3114 535.339 Q66.816 537.088 69.3739 537.088 Q71.9317 537.088 73.4176 535.339 Q74.9222 533.571 74.9222 530.543 Q74.9222 527.497 73.4176 525.747 Q71.9317 523.998 69.3739 523.998 M76.9158 512.093 L76.9158 515.554 Q75.4864 514.877 74.0194 514.519 Q72.5712 514.162 71.1418 514.162 Q67.3803 514.162 65.3866 516.701 Q63.4118 519.24 63.1297 524.374 Q64.2394 522.738 65.9133 521.873 Q67.5872 520.989 69.5996 520.989 Q73.8313 520.989 76.2763 523.566 Q78.7402 526.124 78.7402 530.543 Q78.7402 534.869 76.1823 537.483 Q73.6244 540.098 69.3739 540.098 Q64.5027 540.098 61.926 536.374 Q59.3493 532.631 59.3493 525.541 Q59.3493 518.883 62.5091 514.933 Q65.6688 510.964 70.9914 510.964 Q72.4207 510.964 73.8689 511.247 Q75.336 511.529 76.9158 512.093 Z" fill="#000000" fill-rule="evenodd" fill-opacity="1" /><path clip-path="url(#clip6400)" d="M 0 0 M-56.5716 255.954 L-48.9328 255.954 L-48.9328 229.589 L-57.2429 231.255 L-57.2429 226.996 L-48.9791 225.33 L-44.3032 225.33 L-44.3032 255.954 L-36.6643 255.954 L-36.6643 259.89 L-56.5716 259.89 L-56.5716 255.954 Z" fill="#000000" fill-rule="evenodd" fill-opacity="1" /><path clip-path="url(#clip6400)" d="M 0 0 M-31.5949 254.01 L-26.7107 254.01 L-26.7107 259.89 L-31.5949 259.89 L-31.5949 254.01 Z" fill="#000000" fill-rule="evenodd" fill-opacity="1" /><path clip-path="url(#clip6400)" d="M 0 0 M-11.6413 228.408 Q-15.2524 228.408 -17.0811 231.973 Q-18.8866 235.515 -18.8866 242.644 Q-18.8866 249.751 -17.0811 253.316 Q-15.2524 256.857 -11.6413 256.857 Q-8.00706 256.857 -6.20152 253.316 Q-4.37282 249.751 -4.37282 242.644 Q-4.37282 235.515 -6.20152 231.973 Q-8.00706 228.408 -11.6413 228.408 M-11.6413 224.705 Q-5.83115 224.705 -2.77561 229.311 Q0.303078 233.894 0.303078 242.644 Q0.303078 251.371 -2.77561 255.978 Q-5.83115 260.561 -11.6413 260.561 Q-17.4515 260.561 -20.5301 255.978 Q-23.5857 251.371 -23.5857 242.644 Q-23.5857 233.894 -20.5301 229.311 Q-17.4515 224.705 -11.6413 224.705 Z" fill="#000000" fill-rule="evenodd" fill-opacity="1" /><path clip-path="url(#clip6400)" d="M 0 0 M5.14101 229.334 L9.44655 229.334 L9.44655 264.519 L5.14101 264.519 L5.14101 229.334 Z" fill="#000000" fill-rule="evenodd" fill-opacity="1" /><path clip-path="url(#clip6400)" d="M 0 0 M24.5159 228.408 Q20.9048 228.408 19.0761 231.973 Q17.2706 235.515 17.2706 242.644 Q17.2706 249.751 19.0761 253.316 Q20.9048 256.857 24.5159 256.857 Q28.1502 256.857 29.9557 253.316 Q31.7844 249.751 31.7844 242.644 Q31.7844 235.515 29.9557 231.973 Q28.1502 228.408 24.5159 228.408 M24.5159 224.705 Q30.3261 224.705 33.3816 229.311 Q36.4603 233.894 36.4603 242.644 Q36.4603 251.371 33.3816 255.978 Q30.3261 260.561 24.5159 260.561 Q18.7058 260.561 15.6271 255.978 Q12.5715 251.371 12.5715 242.644 Q12.5715 233.894 15.6271 229.311 Q18.7058 224.705 24.5159 224.705 Z" fill="#000000" fill-rule="evenodd" fill-opacity="1" /><path clip-path="url(#clip6400)" d="M 0 0 M36.4603 220.386 L46.5977 220.386 L46.5977 223.47 L36.4603 223.47 L36.4603 220.386 Z" fill="#000000" fill-rule="evenodd" fill-opacity="1" /><path clip-path="url(#clip6400)" d="M 0 0 M61.7567 204.399 L76.6713 204.399 L76.6713 207.597 L65.2362 207.597 L65.2362 214.48 Q66.0637 214.198 66.8913 214.066 Q67.7188 213.916 68.5463 213.916 Q73.2483 213.916 75.9942 216.493 Q78.7402 219.069 78.7402 223.47 Q78.7402 228.003 75.919 230.523 Q73.0978 233.025 67.9633 233.025 Q66.1954 233.025 64.3522 232.724 Q62.5279 232.423 60.5719 231.821 L60.5719 228.003 Q62.2646 228.925 64.0701 229.376 Q65.8756 229.827 67.8881 229.827 Q71.1418 229.827 73.0414 228.116 Q74.941 226.404 74.941 223.47 Q74.941 220.536 73.0414 218.825 Q71.1418 217.113 67.8881 217.113 Q66.3646 217.113 64.8412 217.452 Q63.3366 217.79 61.7567 218.505 L61.7567 204.399 Z" fill="#000000" fill-rule="evenodd" fill-opacity="1" /><path clip-path="url(#clip6400)" d="M 0 0 M1079.77 20.1573 L1068.67 50.2555 L1090.91 50.2555 L1079.77 20.1573 M1075.15 12.096 L1084.43 12.096 L1107.48 72.576 L1098.97 72.576 L1093.46 57.061 L1066.2 57.061 L1060.69 72.576 L1052.06 72.576 L1075.15 12.096 Z" fill="#000000" fill-rule="evenodd" fill-opacity="1" /><path clip-path="url(#clip6400)" d="M 0 0 M1146.49 28.9478 L1146.49 35.9153 Q1143.33 34.1734 1140.13 33.3227 Q1136.97 32.4315 1133.73 32.4315 Q1126.48 32.4315 1122.47 37.0496 Q1118.45 41.6271 1118.45 49.9314 Q1118.45 58.2358 1122.47 62.8538 Q1126.48 67.4314 1133.73 67.4314 Q1136.97 67.4314 1140.13 66.5807 Q1143.33 65.6895 1146.49 63.9476 L1146.49 70.8341 Q1143.37 72.2924 1140.01 73.0216 Q1136.68 73.7508 1132.92 73.7508 Q1122.67 73.7508 1116.63 67.3098 Q1110.6 60.8689 1110.6 49.9314 Q1110.6 38.832 1116.67 32.472 Q1122.79 26.1121 1133.4 26.1121 Q1136.85 26.1121 1140.13 26.8413 Q1143.41 27.5299 1146.49 28.9478 Z" fill="#000000" fill-rule="evenodd" fill-opacity="1" /><path clip-path="url(#clip6400)" d="M 0 0 M1186.96 28.9478 L1186.96 35.9153 Q1183.8 34.1734 1180.6 33.3227 Q1177.44 32.4315 1174.2 32.4315 Q1166.94 32.4315 1162.93 37.0496 Q1158.92 41.6271 1158.92 49.9314 Q1158.92 58.2358 1162.93 62.8538 Q1166.94 67.4314 1174.2 67.4314 Q1177.44 67.4314 1180.6 66.5807 Q1183.8 65.6895 1186.96 63.9476 L1186.96 70.8341 Q1183.84 72.2924 1180.47 73.0216 Q1177.15 73.7508 1173.38 73.7508 Q1163.14 73.7508 1157.1 67.3098 Q1151.06 60.8689 1151.06 49.9314 Q1151.06 38.832 1157.14 32.472 Q1163.26 26.1121 1173.87 26.1121 Q1177.31 26.1121 1180.6 26.8413 Q1183.88 27.5299 1186.96 28.9478 Z" fill="#000000" fill-rule="evenodd" fill-opacity="1" /><path clip-path="url(#clip6400)" d="M 0 0 M1221.06 34.1734 Q1219.81 33.4443 1218.31 33.1202 Q1216.85 32.7556 1215.07 32.7556 Q1208.75 32.7556 1205.35 36.8875 Q1201.98 40.9789 1201.98 48.6757 L1201.98 72.576 L1194.49 72.576 L1194.49 27.2059 L1201.98 27.2059 L1201.98 34.2544 Q1204.33 30.1225 1208.1 28.1376 Q1211.87 26.1121 1217.26 26.1121 Q1218.03 26.1121 1218.96 26.2337 Q1219.89 26.3147 1221.02 26.5172 L1221.06 34.1734 Z" fill="#000000" fill-rule="evenodd" fill-opacity="1" /><path clip-path="url(#clip6400)" d="M 0 0 M1265.87 48.0275 L1265.87 51.6733 L1231.6 51.6733 Q1232.08 59.3701 1236.21 63.421 Q1240.39 67.4314 1247.8 67.4314 Q1252.09 67.4314 1256.1 66.3781 Q1260.16 65.3249 1264.13 63.2184 L1264.13 70.267 Q1260.11 71.9684 1255.9 72.8596 Q1251.69 73.7508 1247.35 73.7508 Q1236.5 73.7508 1230.14 67.4314 Q1223.82 61.1119 1223.82 50.3365 Q1223.82 39.1965 1229.81 32.6746 Q1235.85 26.1121 1246.06 26.1121 Q1255.21 26.1121 1260.52 32.0264 Q1265.87 37.9003 1265.87 48.0275 M1258.41 45.84 Q1258.33 39.7232 1254.97 36.0774 Q1251.65 32.4315 1246.14 32.4315 Q1239.9 32.4315 1236.13 35.9558 Q1232.41 39.4801 1231.84 45.8805 L1258.41 45.84 Z" fill="#000000" fill-rule="evenodd" fill-opacity="1" /><path clip-path="url(#clip6400)" d="M 0 0 M1281.06 14.324 L1281.06 27.2059 L1296.41 27.2059 L1296.41 32.9987 L1281.06 32.9987 L1281.06 57.6282 Q1281.06 63.1779 1282.56 64.7578 Q1284.1 66.3376 1288.75 66.3376 L1296.41 66.3376 L1296.41 72.576 L1288.75 72.576 Q1280.13 72.576 1276.84 69.3758 Q1273.56 66.1351 1273.56 57.6282 L1273.56 32.9987 L1268.1 32.9987 L1268.1 27.2059 L1273.56 27.2059 L1273.56 14.324 L1281.06 14.324 Z" fill="#000000" fill-rule="evenodd" fill-opacity="1" /><path clip-path="url(#clip6400)" d="M 0 0 M1304.23 27.2059 L1311.68 27.2059 L1311.68 72.576 L1304.23 72.576 L1304.23 27.2059 M1304.23 9.54393 L1311.68 9.54393 L1311.68 18.9825 L1304.23 18.9825 L1304.23 9.54393 Z" fill="#000000" fill-rule="evenodd" fill-opacity="1" /><path clip-path="url(#clip6400)" d="M 0 0 M1337.08 32.4315 Q1331.09 32.4315 1327.6 37.1306 Q1324.12 41.7891 1324.12 49.9314 Q1324.12 58.0738 1327.56 62.7728 Q1331.05 67.4314 1337.08 67.4314 Q1343.04 67.4314 1346.52 62.7323 Q1350 58.0333 1350 49.9314 Q1350 41.8701 1346.52 37.1711 Q1343.04 32.4315 1337.08 32.4315 M1337.08 26.1121 Q1346.8 26.1121 1352.35 32.4315 Q1357.9 38.7509 1357.9 49.9314 Q1357.9 61.0714 1352.35 67.4314 Q1346.8 73.7508 1337.08 73.7508 Q1327.32 73.7508 1321.77 67.4314 Q1316.26 61.0714 1316.26 49.9314 Q1316.26 38.7509 1321.77 32.4315 Q1327.32 26.1121 1337.08 26.1121 Z" fill="#000000" fill-rule="evenodd" fill-opacity="1" /><path clip-path="url(#clip6400)" d="M 0 0 M1403.44 45.1919 L1403.44 72.576 L1395.98 72.576 L1395.98 45.4349 Q1395.98 38.994 1393.47 35.7938 Q1390.96 32.5936 1385.94 32.5936 Q1379.9 32.5936 1376.42 36.4419 Q1372.93 40.2903 1372.93 46.9338 L1372.93 72.576 L1365.44 72.576 L1365.44 27.2059 L1372.93 27.2059 L1372.93 34.2544 Q1375.61 30.163 1379.21 28.1376 Q1382.86 26.1121 1387.6 26.1121 Q1395.41 26.1121 1399.43 30.9732 Q1403.44 35.7938 1403.44 45.1919 Z" fill="#000000" fill-rule="evenodd" fill-opacity="1" /><path clip-path="url(#clip6400)" d="M 0 0 M1051.91 1620.33 Q1051.91 1626.79 1054.55 1630.48 Q1057.23 1634.15 1061.87 1634.15 Q1066.52 1634.15 1069.19 1630.48 Q1071.87 1626.79 1071.87 1620.33 Q1071.87 1613.87 1069.19 1610.21 Q1066.52 1606.52 1061.87 1606.52 Q1057.23 1606.52 1054.55 1610.21 Q1051.91 1613.87 1051.91 1620.33 M1071.87 1632.78 Q1070.02 1635.96 1067.19 1637.52 Q1064.39 1639.05 1060.44 1639.05 Q1053.98 1639.05 1049.91 1633.89 Q1045.86 1628.73 1045.86 1620.33 Q1045.86 1611.93 1049.91 1606.77 Q1053.98 1601.62 1060.44 1601.62 Q1064.39 1601.62 1067.19 1603.18 Q1070.02 1604.7 1071.87 1607.89 L1071.87 1602.48 L1077.72 1602.48 L1077.72 1651.68 L1071.87 1651.68 L1071.87 1632.78 Z" fill="#000000" fill-rule="evenodd" fill-opacity="1" /><path clip-path="url(#clip6400)" d="M 0 0 M1110.95 1648.95 L1110.95 1653.5 L1077.09 1653.5 L1077.09 1648.95 L1110.95 1648.95 Z" fill="#000000" fill-rule="evenodd" fill-opacity="1" /><path clip-path="url(#clip6400)" d="M 0 0 M1137.75 1607.95 Q1136.77 1607.38 1135.59 1607.12 Q1134.44 1606.84 1133.04 1606.84 Q1128.08 1606.84 1125.4 1610.08 Q1122.76 1613.3 1122.76 1619.35 L1122.76 1638.12 L1116.87 1638.12 L1116.87 1602.48 L1122.76 1602.48 L1122.76 1608.01 Q1124.61 1604.77 1127.57 1603.21 Q1130.53 1601.62 1134.76 1601.62 Q1135.37 1601.62 1136.1 1601.71 Q1136.83 1601.78 1137.72 1601.93 L1137.75 1607.95 Z" fill="#000000" fill-rule="evenodd" fill-opacity="1" /><path clip-path="url(#clip6400)" d="M 0 0 M1160.1 1620.2 Q1153 1620.2 1150.26 1621.83 Q1147.52 1623.45 1147.52 1627.37 Q1147.52 1630.48 1149.56 1632.33 Q1151.63 1634.15 1155.16 1634.15 Q1160.03 1634.15 1162.96 1630.71 Q1165.92 1627.24 1165.92 1621.51 L1165.92 1620.2 L1160.1 1620.2 M1171.78 1617.79 L1171.78 1638.12 L1165.92 1638.12 L1165.92 1632.71 Q1163.92 1635.96 1160.92 1637.52 Q1157.93 1639.05 1153.6 1639.05 Q1148.13 1639.05 1144.88 1635.99 Q1141.67 1632.9 1141.67 1627.75 Q1141.67 1621.73 1145.68 1618.68 Q1149.72 1615.62 1157.71 1615.62 L1165.92 1615.62 L1165.92 1615.05 Q1165.92 1611.01 1163.25 1608.81 Q1160.61 1606.58 1155.8 1606.58 Q1152.74 1606.58 1149.85 1607.31 Q1146.95 1608.05 1144.28 1609.51 L1144.28 1604.1 Q1147.49 1602.86 1150.52 1602.25 Q1153.54 1601.62 1156.4 1601.62 Q1164.14 1601.62 1167.96 1605.63 Q1171.78 1609.64 1171.78 1617.79 Z" fill="#000000" fill-rule="evenodd" fill-opacity="1" /><path clip-path="url(#clip6400)" d="M 0 0 M1177.92 1602.48 L1183.78 1602.48 L1183.78 1638.12 L1177.92 1638.12 L1177.92 1602.48 M1177.92 1588.6 L1183.78 1588.6 L1183.78 1596.01 L1177.92 1596.01 L1177.92 1588.6 Z" fill="#000000" fill-rule="evenodd" fill-opacity="1" /><path clip-path="url(#clip6400)" d="M 0 0 M1219.55 1616.61 L1219.55 1638.12 L1213.7 1638.12 L1213.7 1616.8 Q1213.7 1611.74 1211.72 1609.22 Q1209.75 1606.71 1205.8 1606.71 Q1201.06 1606.71 1198.32 1609.73 Q1195.59 1612.76 1195.59 1617.98 L1195.59 1638.12 L1189.7 1638.12 L1189.7 1602.48 L1195.59 1602.48 L1195.59 1608.01 Q1197.69 1604.8 1200.52 1603.21 Q1203.38 1601.62 1207.11 1601.62 Q1213.25 1601.62 1216.4 1605.44 Q1219.55 1609.22 1219.55 1616.61 Z" fill="#000000" fill-rule="evenodd" fill-opacity="1" /><path clip-path="url(#clip6400)" d="M 0 0 M1245.87 1588.6 L1259.37 1588.6 L1259.37 1593.15 L1251.73 1593.15 L1251.73 1642.17 L1259.37 1642.17 L1259.37 1646.72 L1245.87 1646.72 L1245.87 1588.6 Z" fill="#000000" fill-rule="evenodd" fill-opacity="1" /><path clip-path="url(#clip6400)" d="M 0 0 M1288.97 1619.89 Q1288.97 1613.52 1286.33 1610.02 Q1283.72 1606.52 1278.98 1606.52 Q1274.27 1606.52 1271.62 1610.02 Q1269.01 1613.52 1269.01 1619.89 Q1269.01 1626.22 1271.62 1629.72 Q1274.27 1633.22 1278.98 1633.22 Q1283.72 1633.22 1286.33 1629.72 Q1288.97 1626.22 1288.97 1619.89 M1294.83 1633.7 Q1294.83 1642.8 1290.78 1647.23 Q1286.74 1651.68 1278.4 1651.68 Q1275.32 1651.68 1272.58 1651.21 Q1269.84 1650.76 1267.26 1649.8 L1267.26 1644.11 Q1269.84 1645.51 1272.36 1646.18 Q1274.87 1646.84 1277.48 1646.84 Q1283.24 1646.84 1286.11 1643.82 Q1288.97 1640.83 1288.97 1634.75 L1288.97 1631.85 Q1287.16 1635 1284.32 1636.56 Q1281.49 1638.12 1277.54 1638.12 Q1270.99 1638.12 1266.98 1633.13 Q1262.97 1628.13 1262.97 1619.89 Q1262.97 1611.61 1266.98 1606.61 Q1270.99 1601.62 1277.54 1601.62 Q1281.49 1601.62 1284.32 1603.18 Q1287.16 1604.74 1288.97 1607.89 L1288.97 1602.48 L1294.83 1602.48 L1294.83 1633.7 Z" fill="#000000" fill-rule="evenodd" fill-opacity="1" /><path clip-path="url(#clip6400)" d="M 0 0 M1311.38 1590.6 L1316.79 1590.6 L1300.24 1644.17 L1294.83 1644.17 L1311.38 1590.6 Z" fill="#000000" fill-rule="evenodd" fill-opacity="1" /><path clip-path="url(#clip6400)" d="M 0 0 M1322.71 1588.6 L1328.6 1588.6 L1328.6 1617.85 L1346.07 1602.48 L1353.55 1602.48 L1334.64 1619.15 L1354.35 1638.12 L1346.71 1638.12 L1328.6 1620.71 L1328.6 1638.12 L1322.71 1638.12 L1322.71 1588.6 Z" fill="#000000" fill-rule="evenodd" fill-opacity="1" /><path clip-path="url(#clip6400)" d="M 0 0 M1383.95 1619.89 Q1383.95 1613.52 1381.3 1610.02 Q1378.69 1606.52 1373.95 1606.52 Q1369.24 1606.52 1366.6 1610.02 Q1363.99 1613.52 1363.99 1619.89 Q1363.99 1626.22 1366.6 1629.72 Q1369.24 1633.22 1373.95 1633.22 Q1378.69 1633.22 1381.3 1629.72 Q1383.95 1626.22 1383.95 1619.89 M1389.8 1633.7 Q1389.8 1642.8 1385.76 1647.23 Q1381.72 1651.68 1373.38 1651.68 Q1370.29 1651.68 1367.55 1651.21 Q1364.82 1650.76 1362.24 1649.8 L1362.24 1644.11 Q1364.82 1645.51 1367.33 1646.18 Q1369.85 1646.84 1372.46 1646.84 Q1378.22 1646.84 1381.08 1643.82 Q1383.95 1640.83 1383.95 1634.75 L1383.95 1631.85 Q1382.13 1635 1379.3 1636.56 Q1376.47 1638.12 1372.52 1638.12 Q1365.96 1638.12 1361.95 1633.13 Q1357.94 1628.13 1357.94 1619.89 Q1357.94 1611.61 1361.95 1606.61 Q1365.96 1601.62 1372.52 1601.62 Q1376.47 1601.62 1379.3 1603.18 Q1382.13 1604.74 1383.95 1607.89 L1383.95 1602.48 L1389.8 1602.48 L1389.8 1633.7 Z" fill="#000000" fill-rule="evenodd" fill-opacity="1" /><path clip-path="url(#clip6400)" d="M 0 0 M1409.63 1588.6 L1409.63 1646.72 L1396.14 1646.72 L1396.14 1642.17 L1403.74 1642.17 L1403.74 1593.15 L1396.14 1593.15 L1396.14 1588.6 L1409.63 1588.6 Z" fill="#000000" fill-rule="evenodd" fill-opacity="1" /><path clip-path="url(#clip6400)" d="M 0 0 M-112.249 1042.61 Q-112.249 1049.7 -110.626 1052.44 Q-109.003 1055.18 -105.088 1055.18 Q-101.969 1055.18 -100.123 1053.14 Q-98.3085 1051.07 -98.3085 1047.54 Q-98.3085 1042.67 -101.746 1039.74 Q-105.215 1036.78 -110.944 1036.78 L-112.249 1036.78 L-112.249 1042.61 M-114.668 1030.92 L-94.3299 1030.92 L-94.3299 1036.78 L-99.7408 1036.78 Q-96.4943 1038.79 -94.9347 1041.78 Q-93.4069 1044.77 -93.4069 1049.1 Q-93.4069 1054.57 -96.4624 1057.82 Q-99.5498 1061.03 -104.706 1061.03 Q-110.722 1061.03 -113.777 1057.02 Q-116.833 1052.98 -116.833 1044.99 L-116.833 1036.78 L-117.406 1036.78 Q-121.448 1036.78 -123.644 1039.45 Q-125.872 1042.1 -125.872 1046.9 Q-125.872 1049.96 -125.14 1052.85 Q-124.408 1055.75 -122.944 1058.42 L-128.355 1058.42 Q-129.596 1055.21 -130.201 1052.19 Q-130.837 1049.16 -130.837 1046.3 Q-130.837 1038.56 -126.827 1034.74 Q-122.816 1030.92 -114.668 1030.92 Z" fill="#000000" fill-rule="evenodd" fill-opacity="1" /><path clip-path="url(#clip6400)" d="M 0 0 M-128.609 999.128 L-123.135 999.128 Q-124.503 1001.61 -125.172 1004.12 Q-125.872 1006.61 -125.872 1009.15 Q-125.872 1014.85 -122.244 1018 Q-118.647 1021.15 -112.122 1021.15 Q-105.597 1021.15 -101.969 1018 Q-98.3722 1014.85 -98.3722 1009.15 Q-98.3722 1006.61 -99.0406 1004.12 Q-99.7408 1001.61 -101.109 999.128 L-95.6986 999.128 Q-94.5527 1001.58 -93.9798 1004.22 Q-93.4069 1006.83 -93.4069 1009.79 Q-93.4069 1017.84 -98.4676 1022.59 Q-103.528 1027.33 -112.122 1027.33 Q-120.843 1027.33 -125.84 1022.55 Q-130.837 1017.75 -130.837 1009.41 Q-130.837 1006.7 -130.264 1004.12 Q-129.723 1001.55 -128.609 999.128 Z" fill="#000000" fill-rule="evenodd" fill-opacity="1" /><path clip-path="url(#clip6400)" d="M 0 0 M-128.609 967.331 L-123.135 967.331 Q-124.503 969.814 -125.172 972.328 Q-125.872 974.811 -125.872 977.357 Q-125.872 983.054 -122.244 986.205 Q-118.647 989.356 -112.122 989.356 Q-105.597 989.356 -101.969 986.205 Q-98.3722 983.054 -98.3722 977.357 Q-98.3722 974.811 -99.0406 972.328 Q-99.7408 969.814 -101.109 967.331 L-95.6986 967.331 Q-94.5527 969.782 -93.9798 972.424 Q-93.4069 975.034 -93.4069 977.994 Q-93.4069 986.046 -98.4676 990.789 Q-103.528 995.531 -112.122 995.531 Q-120.843 995.531 -125.84 990.757 Q-130.837 985.951 -130.837 977.612 Q-130.837 974.906 -130.264 972.328 Q-129.723 969.75 -128.609 967.331 Z" fill="#000000" fill-rule="evenodd" fill-opacity="1" /><path clip-path="url(#clip6400)" d="M 0 0 M-124.503 940.531 Q-125.076 941.518 -125.331 942.696 Q-125.617 943.842 -125.617 945.242 Q-125.617 950.207 -122.371 952.881 Q-119.156 955.523 -113.109 955.523 L-94.3299 955.523 L-94.3299 961.411 L-129.978 961.411 L-129.978 955.523 L-124.44 955.523 Q-127.686 953.677 -129.246 950.717 Q-130.837 947.756 -130.837 943.523 Q-130.837 942.919 -130.742 942.186 Q-130.678 941.454 -130.519 940.563 L-124.503 940.531 Z" fill="#000000" fill-rule="evenodd" fill-opacity="1" /><path clip-path="url(#clip6400)" d="M 0 0 M-113.618 905.329 L-110.753 905.329 L-110.753 932.256 Q-104.706 931.874 -101.523 928.628 Q-98.3722 925.349 -98.3722 919.525 Q-98.3722 916.151 -99.1997 913 Q-100.027 909.817 -101.682 906.698 L-96.1442 906.698 Q-94.8074 909.849 -94.1071 913.159 Q-93.4069 916.469 -93.4069 919.875 Q-93.4069 928.405 -98.3722 933.402 Q-103.337 938.367 -111.804 938.367 Q-120.557 938.367 -125.681 933.656 Q-130.837 928.914 -130.837 920.893 Q-130.837 913.7 -126.19 909.53 Q-121.575 905.329 -113.618 905.329 M-115.337 911.185 Q-120.143 911.249 -123.007 913.891 Q-125.872 916.501 -125.872 920.83 Q-125.872 925.731 -123.103 928.691 Q-120.334 931.619 -115.305 932.065 L-115.337 911.185 Z" fill="#000000" fill-rule="evenodd" fill-opacity="1" /><path clip-path="url(#clip6400)" d="M 0 0 M-140.099 893.393 L-129.978 893.393 L-129.978 881.33 L-125.426 881.33 L-125.426 893.393 L-106.075 893.393 Q-101.714 893.393 -100.473 892.216 Q-99.2315 891.006 -99.2315 887.346 L-99.2315 881.33 L-94.3299 881.33 L-94.3299 887.346 Q-94.3299 894.125 -96.8444 896.704 Q-99.3907 899.282 -106.075 899.282 L-125.426 899.282 L-125.426 903.578 L-129.978 903.578 L-129.978 899.282 L-140.099 899.282 L-140.099 893.393 Z" fill="#000000" fill-rule="evenodd" fill-opacity="1" /><path clip-path="url(#clip6400)" d="M 0 0 M-129.978 875.187 L-129.978 869.331 L-94.3299 869.331 L-94.3299 875.187 L-129.978 875.187 M-143.855 875.187 L-143.855 869.331 L-136.439 869.331 L-136.439 875.187 L-143.855 875.187 Z" fill="#000000" fill-rule="evenodd" fill-opacity="1" /><path clip-path="url(#clip6400)" d="M 0 0 M-125.872 849.374 Q-125.872 854.085 -122.18 856.822 Q-118.52 859.56 -112.122 859.56 Q-105.725 859.56 -102.032 856.854 Q-98.3722 854.117 -98.3722 849.374 Q-98.3722 844.696 -102.064 841.958 Q-105.756 839.221 -112.122 839.221 Q-118.456 839.221 -122.148 841.958 Q-125.872 844.696 -125.872 849.374 M-130.837 849.374 Q-130.837 841.736 -125.872 837.375 Q-120.907 833.015 -112.122 833.015 Q-103.369 833.015 -98.3722 837.375 Q-93.4069 841.736 -93.4069 849.374 Q-93.4069 857.045 -98.3722 861.406 Q-103.369 865.734 -112.122 865.734 Q-120.907 865.734 -125.872 861.406 Q-130.837 857.045 -130.837 849.374 Z" fill="#000000" fill-rule="evenodd" fill-opacity="1" /><path clip-path="url(#clip6400)" d="M 0 0 M-115.846 797.239 L-94.3299 797.239 L-94.3299 803.096 L-115.655 803.096 Q-120.716 803.096 -123.23 805.069 Q-125.745 807.043 -125.745 810.989 Q-125.745 815.732 -122.721 818.469 Q-119.697 821.206 -114.477 821.206 L-94.3299 821.206 L-94.3299 827.095 L-129.978 827.095 L-129.978 821.206 L-124.44 821.206 Q-127.654 819.106 -129.246 816.273 Q-130.837 813.408 -130.837 809.684 Q-130.837 803.541 -127.018 800.39 Q-123.23 797.239 -115.846 797.239 Z" fill="#000000" fill-rule="evenodd" fill-opacity="1" /><path clip-path="url(#clip6400)" d="M 0 0 M-124.503 749.719 Q-125.076 750.706 -125.331 751.884 Q-125.617 753.03 -125.617 754.43 Q-125.617 759.395 -122.371 762.069 Q-119.156 764.711 -113.109 764.711 L-94.3299 764.711 L-94.3299 770.599 L-129.978 770.599 L-129.978 764.711 L-124.44 764.711 Q-127.686 762.865 -129.246 759.904 Q-130.837 756.944 -130.837 752.711 Q-130.837 752.106 -130.742 751.374 Q-130.678 750.642 -130.519 749.751 L-124.503 749.719 Z" fill="#000000" fill-rule="evenodd" fill-opacity="1" /><path clip-path="url(#clip6400)" d="M 0 0 M-112.249 727.376 Q-112.249 734.473 -110.626 737.211 Q-109.003 739.948 -105.088 739.948 Q-101.969 739.948 -100.123 737.911 Q-98.3085 735.842 -98.3085 732.309 Q-98.3085 727.439 -101.746 724.511 Q-105.215 721.551 -110.944 721.551 L-112.249 721.551 L-112.249 727.376 M-114.668 715.695 L-94.3299 715.695 L-94.3299 721.551 L-99.7408 721.551 Q-96.4943 723.556 -94.9347 726.548 Q-93.4069 729.54 -93.4069 733.869 Q-93.4069 739.343 -96.4624 742.59 Q-99.5498 745.804 -104.706 745.804 Q-110.722 745.804 -113.777 741.794 Q-116.833 737.752 -116.833 729.763 L-116.833 721.551 L-117.406 721.551 Q-121.448 721.551 -123.644 724.225 Q-125.872 726.866 -125.872 731.673 Q-125.872 734.728 -125.14 737.624 Q-124.408 740.521 -122.944 743.194 L-128.355 743.194 Q-129.596 739.98 -130.201 736.956 Q-130.837 733.932 -130.837 731.068 Q-130.837 723.333 -126.827 719.514 Q-122.816 715.695 -114.668 715.695 Z" fill="#000000" fill-rule="evenodd" fill-opacity="1" /><path clip-path="url(#clip6400)" d="M 0 0 M-140.099 703.759 L-129.978 703.759 L-129.978 691.696 L-125.426 691.696 L-125.426 703.759 L-106.075 703.759 Q-101.714 703.759 -100.473 702.581 Q-99.2315 701.372 -99.2315 697.712 L-99.2315 691.696 L-94.3299 691.696 L-94.3299 697.712 Q-94.3299 704.491 -96.8444 707.069 Q-99.3907 709.647 -106.075 709.647 L-125.426 709.647 L-125.426 713.944 L-129.978 713.944 L-129.978 709.647 L-140.099 709.647 L-140.099 703.759 Z" fill="#000000" fill-rule="evenodd" fill-opacity="1" /><path clip-path="url(#clip6400)" d="M 0 0 M-113.618 655.061 L-110.753 655.061 L-110.753 681.988 Q-104.706 681.606 -101.523 678.36 Q-98.3722 675.081 -98.3722 669.257 Q-98.3722 665.883 -99.1997 662.732 Q-100.027 659.549 -101.682 656.43 L-96.1442 656.43 Q-94.8074 659.581 -94.1071 662.891 Q-93.4069 666.201 -93.4069 669.607 Q-93.4069 678.137 -98.3722 683.134 Q-103.337 688.099 -111.804 688.099 Q-120.557 688.099 -125.681 683.389 Q-130.837 678.646 -130.837 670.625 Q-130.837 663.432 -126.19 659.263 Q-121.575 655.061 -113.618 655.061 M-115.337 660.918 Q-120.143 660.981 -123.007 663.623 Q-125.872 666.233 -125.872 670.562 Q-125.872 675.463 -123.103 678.423 Q-120.334 681.352 -115.305 681.797 L-115.337 660.918 Z" fill="#000000" fill-rule="evenodd" fill-opacity="1" /><path clip-path="url(#clip6400)" d="M 0 0 M-143.855 628.739 L-143.855 615.244 L-139.304 615.244 L-139.304 622.883 L-90.2877 622.883 L-90.2877 615.244 L-85.7362 615.244 L-85.7362 628.739 L-143.855 628.739 Z" fill="#000000" fill-rule="evenodd" fill-opacity="1" /><path clip-path="url(#clip6400)" d="M 0 0 M-99.7408 607.159 L-99.7408 596.656 L-135.993 596.656 L-133.702 608.082 L-139.558 608.082 L-141.85 596.72 L-141.85 590.29 L-99.7408 590.29 L-99.7408 579.787 L-94.3299 579.787 L-94.3299 607.159 L-99.7408 607.159 Z" fill="#000000" fill-rule="evenodd" fill-opacity="1" /><path clip-path="url(#clip6400)" d="M 0 0 M-141.85 563.236 L-141.85 557.825 L-88.2825 574.376 L-88.2825 579.787 L-141.85 563.236 Z" fill="#000000" fill-rule="evenodd" fill-opacity="1" /><path clip-path="url(#clip6400)" d="M 0 0 M-128.928 528.957 L-123.389 528.957 Q-124.663 531.439 -125.299 534.113 Q-125.936 536.786 -125.936 539.651 Q-125.936 544.012 -124.599 546.208 Q-123.262 548.372 -120.588 548.372 Q-118.551 548.372 -117.374 546.812 Q-116.228 545.253 -115.178 540.542 L-114.732 538.537 Q-113.395 532.299 -110.944 529.689 Q-108.525 527.047 -104.165 527.047 Q-99.1997 527.047 -96.3033 530.994 Q-93.4069 534.909 -93.4069 541.784 Q-93.4069 544.648 -93.9798 547.767 Q-94.5209 550.855 -95.6349 554.292 L-101.682 554.292 Q-99.9954 551.046 -99.136 547.895 Q-98.3085 544.744 -98.3085 541.656 Q-98.3085 537.519 -99.709 535.291 Q-101.141 533.063 -103.719 533.063 Q-106.106 533.063 -107.38 534.686 Q-108.653 536.277 -109.83 541.72 L-110.308 543.757 Q-111.454 549.2 -113.809 551.619 Q-116.196 554.038 -120.334 554.038 Q-125.363 554.038 -128.1 550.473 Q-130.837 546.908 -130.837 540.351 Q-130.837 537.105 -130.36 534.24 Q-129.882 531.376 -128.928 528.957 Z" fill="#000000" fill-rule="evenodd" fill-opacity="1" /><path clip-path="url(#clip6400)" d="M 0 0 M-143.855 507.218 L-85.7362 507.218 L-85.7362 520.713 L-90.2877 520.713 L-90.2877 513.106 L-139.304 513.106 L-139.304 520.713 L-143.855 520.713 L-143.855 507.218 Z" fill="#000000" fill-rule="evenodd" fill-opacity="1" /><polyline clip-path="url(#clip6402)" style="stroke:#009af9; stroke-width:4; stroke-opacity:1; fill:none" points="
  166.42,1464.44 187.861,1441.07 209.302,1421.57 230.743,1403.31 252.184,1385.8 273.625,1368.85 295.066,1352.31 316.507,1336.12 337.948,1320.21 359.389,1304.55 
  380.83,1289.11 402.271,1273.86 423.712,1258.78 445.153,1243.86 466.593,1229.09 488.034,1214.44 509.475,1199.92 530.916,1185.5 552.357,1171.2 573.798,1156.99 
  595.239,1142.88 616.68,1128.85 638.121,1114.91 659.562,1101.05 681.003,1087.26 702.444,1073.54 723.885,1059.89 745.326,1046.31 766.767,1032.79 788.208,1019.33 
  809.649,1005.93 831.09,992.583 852.531,979.29 873.972,966.05 895.413,952.86 916.854,939.717 938.295,926.622 959.736,913.573 981.177,900.567 1002.62,887.604 
  1024.06,874.682 1045.5,861.801 1066.94,848.959 1088.38,836.155 1109.82,823.388 1131.26,810.658 1152.7,797.963 1174.15,785.302 1195.59,772.675 1217.03,760.081 
  1238.47,747.519 1259.91,734.988 1281.35,722.488 1302.79,710.018 1324.23,697.577 1345.67,685.165 1367.11,672.781 1388.56,660.425 1410,648.096 1431.44,635.794 
  1452.88,623.517 1474.32,611.266 1495.76,599.041 1517.2,586.839 1538.64,574.662 1560.08,562.509 1581.52,550.379 1602.97,538.272 1624.41,526.188 1645.85,514.125 
  1667.29,502.085 1688.73,490.066 1710.17,478.068 1731.61,466.091 1753.05,454.135 1774.49,442.199 1795.93,430.282 1817.37,418.386 1838.82,406.508 1860.26,394.65 
  1881.7,382.81 1903.14,370.989 1924.58,359.185 1946.02,347.4 1967.46,335.633 1988.9,323.883 2010.34,312.151 2031.78,300.435 2053.23,288.737 2074.67,277.054 
  2096.11,265.389 2117.55,253.739 2138.99,242.106 2160.43,230.488 2181.87,218.886 2203.31,207.299 2224.75,195.728 2246.19,184.171 2267.64,172.63 2289.08,161.103 
  
  "/>
<polyline clip-path="url(#clip6402)" style="stroke:#e26f46; stroke-width:4; stroke-opacity:1; fill:none" points="
  166.42,1464.44 187.861,1440.04 209.302,1419.68 230.743,1400.62 252.184,1382.35 273.625,1364.64 295.066,1347.38 316.507,1330.48 337.948,1313.87 359.389,1297.52 
  380.83,1281.4 402.271,1265.48 423.712,1249.74 445.153,1234.17 466.593,1218.74 488.034,1203.45 509.475,1188.29 530.916,1173.24 552.357,1158.31 573.798,1143.48 
  595.239,1128.74 616.68,1114.1 638.121,1099.54 659.562,1085.07 681.003,1070.68 702.444,1056.36 723.885,1042.11 745.326,1027.93 766.767,1013.82 788.208,999.764 
  809.649,985.773 831.09,971.84 852.531,957.964 873.972,944.141 895.413,930.371 916.854,916.651 938.295,902.981 959.736,889.357 981.177,875.78 1002.62,862.247 
  1024.06,848.757 1045.5,835.31 1066.94,821.903 1088.38,808.537 1109.82,795.209 1131.26,781.919 1152.7,768.665 1174.15,755.448 1195.59,742.266 1217.03,729.118 
  1238.47,716.004 1259.91,702.922 1281.35,689.873 1302.79,676.855 1324.23,663.867 1345.67,650.91 1367.11,637.981 1388.56,625.082 1410,612.211 1431.44,599.368 
  1452.88,586.552 1474.32,573.762 1495.76,560.999 1517.2,548.261 1538.64,535.549 1560.08,522.862 1581.52,510.199 1602.97,497.559 1624.41,484.944 1645.85,472.351 
  1667.29,459.782 1688.73,447.234 1710.17,434.709 1731.61,422.206 1753.05,409.724 1774.49,397.263 1795.93,384.823 1817.37,372.403 1838.82,360.003 1860.26,347.624 
  1881.7,335.263 1903.14,322.922 1924.58,310.601 1946.02,298.297 1967.46,286.013 1988.9,273.747 2010.34,261.498 2031.78,249.268 2053.23,237.055 2074.67,224.859 
  2096.11,212.681 2117.55,200.519 2138.99,188.374 2160.43,176.246 2181.87,164.134 2203.31,152.038 2224.75,139.958 2246.19,127.893 2267.64,115.845 2289.08,103.811 
  
  "/>
<path clip-path="url(#clip6400)" d="
M1853.53 327.952 L2280.76 327.952 L2280.76 146.512 L1853.53 146.512  Z
  " fill="#ffffff" fill-rule="evenodd" fill-opacity="1"/>
<polyline clip-path="url(#clip6400)" style="stroke:#000000; stroke-width:4; stroke-opacity:1; fill:none" points="
  1853.53,327.952 2280.76,327.952 2280.76,146.512 1853.53,146.512 1853.53,327.952 
  "/>
<polyline clip-path="url(#clip6400)" style="stroke:#009af9; stroke-width:4; stroke-opacity:1; fill:none" points="
  1877.53,206.992 2021.53,206.992 
  "/>
<path clip-path="url(#clip6400)" d="M 0 0 M2073.4 192.374 L2073.4 197.305 Q2071.04 195.106 2068.36 194.018 Q2065.7 192.93 2062.69 192.93 Q2056.76 192.93 2053.61 196.564 Q2050.47 200.175 2050.47 207.027 Q2050.47 213.856 2053.61 217.49 Q2056.76 221.101 2062.69 221.101 Q2065.7 221.101 2068.36 220.013 Q2071.04 218.925 2073.4 216.726 L2073.4 221.61 Q2070.95 223.277 2068.2 224.11 Q2065.47 224.943 2062.41 224.943 Q2054.56 224.943 2050.05 220.152 Q2045.53 215.337 2045.53 207.027 Q2045.53 198.694 2050.05 193.902 Q2054.56 189.087 2062.41 189.087 Q2065.51 189.087 2068.24 189.92 Q2071 190.731 2073.4 192.374 Z" fill="#000000" fill-rule="evenodd" fill-opacity="1" /><path clip-path="url(#clip6400)" d="M 0 0 M2078.06 189.712 L2082.73 189.712 L2082.73 220.337 L2099.56 220.337 L2099.56 224.272 L2078.06 224.272 L2078.06 189.712 Z" fill="#000000" fill-rule="evenodd" fill-opacity="1" /><path clip-path="url(#clip6400)" d="M 0 0 M2104.21 189.712 L2108.89 189.712 L2108.89 224.272 L2104.21 224.272 L2104.21 189.712 Z" fill="#000000" fill-rule="evenodd" fill-opacity="1" /><path clip-path="url(#clip6400)" d="M 0 0 M2113.54 189.712 L2120.51 189.712 L2129.33 213.231 L2138.2 189.712 L2145.16 189.712 L2145.16 224.272 L2140.6 224.272 L2140.6 193.925 L2131.69 217.629 L2126.99 217.629 L2118.08 193.925 L2118.08 224.272 L2113.54 224.272 L2113.54 189.712 Z" fill="#000000" fill-rule="evenodd" fill-opacity="1" /><path clip-path="url(#clip6400)" d="M 0 0 M2161.37 194.319 L2155.02 211.518 L2167.73 211.518 L2161.37 194.319 M2158.73 189.712 L2164.03 189.712 L2177.2 224.272 L2172.34 224.272 L2169.19 215.406 L2153.61 215.406 L2150.46 224.272 L2145.53 224.272 L2158.73 189.712 Z" fill="#000000" fill-rule="evenodd" fill-opacity="1" /><polyline clip-path="url(#clip6400)" style="stroke:#e26f46; stroke-width:4; stroke-opacity:1; fill:none" points="
  1877.53,267.472 2021.53,267.472 
  "/>
<path clip-path="url(#clip6400)" d="M 0 0 M2069.56 270.724 L2069.56 272.808 L2049.98 272.808 Q2050.26 277.206 2052.62 279.521 Q2055 281.812 2059.24 281.812 Q2061.69 281.812 2063.98 281.21 Q2066.3 280.609 2068.57 279.405 L2068.57 283.433 Q2066.28 284.405 2063.87 284.914 Q2061.46 285.423 2058.98 285.423 Q2052.78 285.423 2049.15 281.812 Q2045.53 278.201 2045.53 272.044 Q2045.53 265.678 2048.96 261.951 Q2052.41 258.201 2058.24 258.201 Q2063.47 258.201 2066.51 261.581 Q2069.56 264.937 2069.56 270.724 M2065.3 269.474 Q2065.26 265.979 2063.34 263.896 Q2061.44 261.812 2058.29 261.812 Q2054.72 261.812 2052.57 263.826 Q2050.44 265.84 2050.12 269.498 L2065.3 269.474 Z" fill="#000000" fill-rule="evenodd" fill-opacity="1" /><path clip-path="url(#clip6400)" d="M 0 0 M2094.21 263.803 Q2095.81 260.933 2098.03 259.567 Q2100.26 258.201 2103.27 258.201 Q2107.32 258.201 2109.52 261.049 Q2111.71 263.873 2111.71 269.104 L2111.71 284.752 L2107.43 284.752 L2107.43 269.243 Q2107.43 265.516 2106.11 263.711 Q2104.79 261.905 2102.09 261.905 Q2098.78 261.905 2096.85 264.104 Q2094.93 266.303 2094.93 270.099 L2094.93 284.752 L2090.65 284.752 L2090.65 269.243 Q2090.65 265.493 2089.33 263.711 Q2088.01 261.905 2085.26 261.905 Q2081.99 261.905 2080.07 264.127 Q2078.15 266.326 2078.15 270.099 L2078.15 284.752 L2073.87 284.752 L2073.87 258.826 L2078.15 258.826 L2078.15 262.854 Q2079.61 260.47 2081.65 259.336 Q2083.68 258.201 2086.48 258.201 Q2089.31 258.201 2091.28 259.637 Q2093.27 261.072 2094.21 263.803 Z" fill="#000000" fill-rule="evenodd" fill-opacity="1" /><path clip-path="url(#clip6400)" d="M 0 0 M2120.3 280.863 L2120.3 294.613 L2116.02 294.613 L2116.02 258.826 L2120.3 258.826 L2120.3 262.762 Q2121.65 260.447 2123.68 259.336 Q2125.74 258.201 2128.59 258.201 Q2133.31 258.201 2136.25 261.951 Q2139.21 265.701 2139.21 271.812 Q2139.21 277.923 2136.25 281.673 Q2133.31 285.423 2128.59 285.423 Q2125.74 285.423 2123.68 284.312 Q2121.65 283.178 2120.3 280.863 M2134.79 271.812 Q2134.79 267.113 2132.85 264.451 Q2130.93 261.766 2127.55 261.766 Q2124.17 261.766 2122.22 264.451 Q2120.3 267.113 2120.3 271.812 Q2120.3 276.511 2122.22 279.197 Q2124.17 281.859 2127.55 281.859 Q2130.93 281.859 2132.85 279.197 Q2134.79 276.511 2134.79 271.812 Z" fill="#000000" fill-rule="evenodd" fill-opacity="1" /><path clip-path="url(#clip6400)" d="M 0 0 M2143.68 258.826 L2147.94 258.826 L2147.94 284.752 L2143.68 284.752 L2143.68 258.826 M2143.68 248.734 L2147.94 248.734 L2147.94 254.127 L2143.68 254.127 L2143.68 248.734 Z" fill="#000000" fill-rule="evenodd" fill-opacity="1" /><path clip-path="url(#clip6400)" d="M 0 0 M2167.43 262.808 Q2166.71 262.391 2165.86 262.206 Q2165.02 261.998 2164.01 261.998 Q2160.4 261.998 2158.45 264.359 Q2156.53 266.697 2156.53 271.095 L2156.53 284.752 L2152.25 284.752 L2152.25 258.826 L2156.53 258.826 L2156.53 262.854 Q2157.87 260.493 2160.02 259.359 Q2162.18 258.201 2165.26 258.201 Q2165.7 258.201 2166.23 258.271 Q2166.76 258.317 2167.41 258.433 L2167.43 262.808 Z" fill="#000000" fill-rule="evenodd" fill-opacity="1" /><path clip-path="url(#clip6400)" d="M 0 0 M2171.9 258.826 L2176.16 258.826 L2176.16 284.752 L2171.9 284.752 L2171.9 258.826 M2171.9 248.734 L2176.16 248.734 L2176.16 254.127 L2171.9 254.127 L2171.9 248.734 Z" fill="#000000" fill-rule="evenodd" fill-opacity="1" /><path clip-path="url(#clip6400)" d="M 0 0 M2199.28 259.822 L2199.28 263.803 Q2197.48 262.808 2195.65 262.322 Q2193.84 261.812 2191.99 261.812 Q2187.85 261.812 2185.56 264.451 Q2183.27 267.067 2183.27 271.812 Q2183.27 276.558 2185.56 279.197 Q2187.85 281.812 2191.99 281.812 Q2193.84 281.812 2195.65 281.326 Q2197.48 280.817 2199.28 279.822 L2199.28 283.757 Q2197.5 284.59 2195.58 285.007 Q2193.68 285.423 2191.53 285.423 Q2185.67 285.423 2182.22 281.743 Q2178.77 278.062 2178.77 271.812 Q2178.77 265.47 2182.25 261.836 Q2185.74 258.201 2191.81 258.201 Q2193.77 258.201 2195.65 258.618 Q2197.52 259.012 2199.28 259.822 Z" fill="#000000" fill-rule="evenodd" fill-opacity="1" /><path clip-path="url(#clip6400)" d="M 0 0 M2215.53 271.72 Q2210.37 271.72 2208.38 272.9 Q2206.39 274.081 2206.39 276.928 Q2206.39 279.197 2207.87 280.539 Q2209.38 281.859 2211.95 281.859 Q2215.49 281.859 2217.62 279.359 Q2219.77 276.836 2219.77 272.669 L2219.77 271.72 L2215.53 271.72 M2224.03 269.961 L2224.03 284.752 L2219.77 284.752 L2219.77 280.817 Q2218.31 283.178 2216.14 284.312 Q2213.96 285.423 2210.81 285.423 Q2206.83 285.423 2204.47 283.201 Q2202.13 280.956 2202.13 277.206 Q2202.13 272.831 2205.05 270.609 Q2207.99 268.386 2213.8 268.386 L2219.77 268.386 L2219.77 267.97 Q2219.77 265.03 2217.83 263.433 Q2215.9 261.812 2212.41 261.812 Q2210.19 261.812 2208.08 262.345 Q2205.97 262.877 2204.03 263.942 L2204.03 260.007 Q2206.37 259.104 2208.57 258.664 Q2210.77 258.201 2212.85 258.201 Q2218.47 258.201 2221.25 261.118 Q2224.03 264.035 2224.03 269.961 Z" fill="#000000" fill-rule="evenodd" fill-opacity="1" /><path clip-path="url(#clip6400)" d="M 0 0 M2228.5 248.734 L2232.76 248.734 L2232.76 284.752 L2228.5 284.752 L2228.5 248.734 Z" fill="#000000" fill-rule="evenodd" fill-opacity="1" /></svg>
