<?xml version="1.0" encoding="utf-8"?>
<svg xmlns="http://www.w3.org/2000/svg" xmlns:xlink="http://www.w3.org/1999/xlink" width="600" height="400" viewBox="0 0 2400 1600">
<defs>
  <clipPath id="clip400">
    <rect x="0" y="0" width="2400" height="1600"/>
  </clipPath>
</defs>
<path clip-path="url(#clip400)" d="
M0 1600 L2400 1600 L2400 0 L0 0  Z
  " fill="#ffffff" fill-rule="evenodd" fill-opacity="1"/>
<defs>
  <clipPath id="clip401">
    <rect x="480" y="0" width="1681" height="1600"/>
  </clipPath>
</defs>
<path clip-path="url(#clip400)" d="
M102.74 1505.26 L2352.76 1505.26 L2352.76 62.9921 L102.74 62.9921  Z
  " fill="#ffffff" fill-rule="evenodd" fill-opacity="1"/>
<defs>
  <clipPath id="clip402">
    <rect x="102" y="62" width="2251" height="1443"/>
  </clipPath>
</defs>
<polyline clip-path="url(#clip402)" style="stroke:#000000; stroke-width:2; stroke-opacity:0.1; fill:none" points="
  166.416,1505.26 166.416,62.9921 
  "/>
<polyline clip-path="url(#clip402)" style="stroke:#000000; stroke-width:2; stroke-opacity:0.1; fill:none" points="
  590.948,1505.26 590.948,62.9921 
  "/>
<polyline clip-path="url(#clip402)" style="stroke:#000000; stroke-width:2; stroke-opacity:0.1; fill:none" points="
  1015.48,1505.26 1015.48,62.9921 
  "/>
<polyline clip-path="url(#clip402)" style="stroke:#000000; stroke-width:2; stroke-opacity:0.1; fill:none" points="
  1440.01,1505.26 1440.01,62.9921 
  "/>
<polyline clip-path="url(#clip402)" style="stroke:#000000; stroke-width:2; stroke-opacity:0.1; fill:none" points="
  1864.54,1505.26 1864.54,62.9921 
  "/>
<polyline clip-path="url(#clip402)" style="stroke:#000000; stroke-width:2; stroke-opacity:0.1; fill:none" points="
  2289.08,1505.26 2289.08,62.9921 
  "/>
<polyline clip-path="url(#clip402)" style="stroke:#000000; stroke-width:2; stroke-opacity:0.1; fill:none" points="
  102.74,1294.29 2352.76,1294.29 
  "/>
<polyline clip-path="url(#clip402)" style="stroke:#000000; stroke-width:2; stroke-opacity:0.1; fill:none" points="
  102.74,1068.91 2352.76,1068.91 
  "/>
<polyline clip-path="url(#clip402)" style="stroke:#000000; stroke-width:2; stroke-opacity:0.1; fill:none" points="
  102.74,843.53 2352.76,843.53 
  "/>
<polyline clip-path="url(#clip402)" style="stroke:#000000; stroke-width:2; stroke-opacity:0.1; fill:none" points="
  102.74,618.153 2352.76,618.153 
  "/>
<polyline clip-path="url(#clip402)" style="stroke:#000000; stroke-width:2; stroke-opacity:0.1; fill:none" points="
  102.74,392.775 2352.76,392.775 
  "/>
<polyline clip-path="url(#clip402)" style="stroke:#000000; stroke-width:2; stroke-opacity:0.1; fill:none" points="
  102.74,167.397 2352.76,167.397 
  "/>
<polyline clip-path="url(#clip400)" style="stroke:#000000; stroke-width:4; stroke-opacity:1; fill:none" points="
  102.74,1505.26 2352.76,1505.26 
  "/>
<polyline clip-path="url(#clip400)" style="stroke:#000000; stroke-width:4; stroke-opacity:1; fill:none" points="
  102.74,1505.26 102.74,62.9921 
  "/>
<polyline clip-path="url(#clip400)" style="stroke:#000000; stroke-width:4; stroke-opacity:1; fill:none" points="
  166.416,1505.26 166.416,1487.95 
  "/>
<polyline clip-path="url(#clip400)" style="stroke:#000000; stroke-width:4; stroke-opacity:1; fill:none" points="
  590.948,1505.26 590.948,1487.95 
  "/>
<polyline clip-path="url(#clip400)" style="stroke:#000000; stroke-width:4; stroke-opacity:1; fill:none" points="
  1015.48,1505.26 1015.48,1487.95 
  "/>
<polyline clip-path="url(#clip400)" style="stroke:#000000; stroke-width:4; stroke-opacity:1; fill:none" points="
  1440.01,1505.26 1440.01,1487.95 
  "/>
<polyline clip-path="url(#clip400)" style="stroke:#000000; stroke-width:4; stroke-opacity:1; fill:none" points="
  1864.54,1505.26 1864.54,1487.95 
  "/>
<polyline clip-path="url(#clip400)" style="stroke:#000000; stroke-width:4; stroke-opacity:1; fill:none" points="
  2289.08,1505.26 2289.08,1487.95 
  "/>
<polyline clip-path="url(#clip400)" style="stroke:#000000; stroke-width:4; stroke-opacity:1; fill:none" points="
  102.74,1294.29 129.74,1294.29 
  "/>
<polyline clip-path="url(#clip400)" style="stroke:#000000; stroke-width:4; stroke-opacity:1; fill:none" points="
  102.74,1068.91 129.74,1068.91 
  "/>
<polyline clip-path="url(#clip400)" style="stroke:#000000; stroke-width:4; stroke-opacity:1; fill:none" points="
  102.74,843.53 129.74,843.53 
  "/>
<polyline clip-path="url(#clip400)" style="stroke:#000000; stroke-width:4; stroke-opacity:1; fill:none" points="
  102.74,618.153 129.74,618.153 
  "/>
<polyline clip-path="url(#clip400)" style="stroke:#000000; stroke-width:4; stroke-opacity:1; fill:none" points="
  102.74,392.775 129.74,392.775 
  "/>
<polyline clip-path="url(#clip400)" style="stroke:#000000; stroke-width:4; stroke-opacity:1; fill:none" points="
  102.74,167.397 129.74,167.397 
  "/>
<path clip-path="url(#clip400)" d="M 0 0 M166.416 1527.25 Q162.805 1527.25 160.976 1530.82 Q159.17 1534.36 159.17 1541.49 Q159.17 1548.59 160.976 1552.16 Q162.805 1555.7 166.416 1555.7 Q170.05 1555.7 171.855 1552.16 Q173.684 1548.59 173.684 1541.49 Q173.684 1534.36 171.855 1530.82 Q170.05 1527.25 166.416 1527.25 M166.416 1523.55 Q172.226 1523.55 175.281 1528.15 Q178.36 1532.74 178.36 1541.49 Q178.36 1550.21 175.281 1554.82 Q172.226 1559.4 166.416 1559.4 Q160.605 1559.4 157.527 1554.82 Q154.471 1550.21 154.471 1541.49 Q154.471 1532.74 157.527 1528.15 Q160.605 1523.55 166.416 1523.55 Z" fill="#000000" fill-rule="evenodd" fill-opacity="1" /><path clip-path="url(#clip400)" d="M 0 0 M581.33 1554.8 L588.969 1554.8 L588.969 1528.43 L580.658 1530.1 L580.658 1525.84 L588.922 1524.17 L593.598 1524.17 L593.598 1554.8 L601.237 1554.8 L601.237 1558.73 L581.33 1558.73 L581.33 1554.8 Z" fill="#000000" fill-rule="evenodd" fill-opacity="1" /><path clip-path="url(#clip400)" d="M 0 0 M1010.13 1554.8 L1026.45 1554.8 L1026.45 1558.73 L1004.51 1558.73 L1004.51 1554.8 Q1007.17 1552.04 1011.75 1547.41 Q1016.36 1542.76 1017.54 1541.42 Q1019.79 1538.89 1020.67 1537.16 Q1021.57 1535.4 1021.57 1533.71 Q1021.57 1530.95 1019.62 1529.22 Q1017.7 1527.48 1014.6 1527.48 Q1012.4 1527.48 1009.95 1528.25 Q1007.52 1529.01 1004.74 1530.56 L1004.74 1525.84 Q1007.56 1524.7 1010.02 1524.13 Q1012.47 1523.55 1014.51 1523.55 Q1019.88 1523.55 1023.07 1526.23 Q1026.27 1528.92 1026.27 1533.41 Q1026.27 1535.54 1025.46 1537.46 Q1024.67 1539.36 1022.56 1541.95 Q1021.98 1542.62 1018.88 1545.84 Q1015.78 1549.03 1010.13 1554.8 Z" fill="#000000" fill-rule="evenodd" fill-opacity="1" /><path clip-path="url(#clip400)" d="M 0 0 M1444.26 1540.1 Q1447.62 1540.82 1449.49 1543.08 Q1451.39 1545.35 1451.39 1548.69 Q1451.39 1553.8 1447.87 1556.6 Q1444.35 1559.4 1437.87 1559.4 Q1435.69 1559.4 1433.38 1558.96 Q1431.09 1558.55 1428.63 1557.69 L1428.63 1553.18 Q1430.58 1554.31 1432.89 1554.89 Q1435.21 1555.47 1437.73 1555.47 Q1442.13 1555.47 1444.42 1553.73 Q1446.74 1552 1446.74 1548.69 Q1446.74 1545.63 1444.58 1543.92 Q1442.45 1542.18 1438.63 1542.18 L1434.61 1542.18 L1434.61 1538.34 L1438.82 1538.34 Q1442.27 1538.34 1444.1 1536.97 Q1445.93 1535.58 1445.93 1532.99 Q1445.93 1530.33 1444.03 1528.92 Q1442.15 1527.48 1438.63 1527.48 Q1436.71 1527.48 1434.51 1527.9 Q1432.32 1528.32 1429.68 1529.19 L1429.68 1525.03 Q1432.34 1524.29 1434.65 1523.92 Q1436.99 1523.55 1439.05 1523.55 Q1444.38 1523.55 1447.48 1525.98 Q1450.58 1528.38 1450.58 1532.51 Q1450.58 1535.38 1448.94 1537.37 Q1447.29 1539.33 1444.26 1540.1 Z" fill="#000000" fill-rule="evenodd" fill-opacity="1" /><path clip-path="url(#clip400)" d="M 0 0 M1867.55 1528.25 L1855.75 1546.69 L1867.55 1546.69 L1867.55 1528.25 M1866.33 1524.17 L1872.21 1524.17 L1872.21 1546.69 L1877.14 1546.69 L1877.14 1550.58 L1872.21 1550.58 L1872.21 1558.73 L1867.55 1558.73 L1867.55 1550.58 L1851.95 1550.58 L1851.95 1546.07 L1866.33 1524.17 Z" fill="#000000" fill-rule="evenodd" fill-opacity="1" /><path clip-path="url(#clip400)" d="M 0 0 M2279.35 1524.17 L2297.71 1524.17 L2297.71 1528.11 L2283.64 1528.11 L2283.64 1536.58 Q2284.65 1536.23 2285.67 1536.07 Q2286.69 1535.88 2287.71 1535.88 Q2293.5 1535.88 2296.88 1539.06 Q2300.26 1542.23 2300.26 1547.64 Q2300.26 1553.22 2296.78 1556.32 Q2293.31 1559.4 2286.99 1559.4 Q2284.82 1559.4 2282.55 1559.03 Q2280.3 1558.66 2277.9 1557.92 L2277.9 1553.22 Q2279.98 1554.36 2282.2 1554.91 Q2284.42 1555.47 2286.9 1555.47 Q2290.9 1555.47 2293.24 1553.36 Q2295.58 1551.26 2295.58 1547.64 Q2295.58 1544.03 2293.24 1541.93 Q2290.9 1539.82 2286.9 1539.82 Q2285.03 1539.82 2283.15 1540.24 Q2281.3 1540.65 2279.35 1541.53 L2279.35 1524.17 Z" fill="#000000" fill-rule="evenodd" fill-opacity="1" /><path clip-path="url(#clip400)" d="M 0 0 M62.4208 1307.63 L78.7402 1307.63 L78.7402 1311.57 L56.7958 1311.57 L56.7958 1307.63 Q59.4579 1304.88 64.0412 1300.25 Q68.6476 1295.59 69.8282 1294.25 Q72.0735 1291.73 72.9532 1289.99 Q73.8559 1288.23 73.8559 1286.54 Q73.8559 1283.79 71.9115 1282.05 Q69.9902 1280.32 66.8884 1280.32 Q64.6893 1280.32 62.2356 1281.08 Q59.8051 1281.84 57.0273 1283.39 L57.0273 1278.67 Q59.8514 1277.54 62.3051 1276.96 Q64.7588 1276.38 66.7958 1276.38 Q72.1661 1276.38 75.3605 1279.07 Q78.555 1281.75 78.555 1286.24 Q78.555 1288.37 77.7448 1290.29 Q76.9578 1292.19 74.8513 1294.78 Q74.2726 1295.45 71.1708 1298.67 Q68.0689 1301.87 62.4208 1307.63 Z" fill="#000000" fill-rule="evenodd" fill-opacity="1" /><path clip-path="url(#clip400)" d="M 0 0 M71.6106 1067.55 Q74.967 1068.27 76.842 1070.54 Q78.7402 1072.81 78.7402 1076.14 Q78.7402 1081.26 75.2217 1084.06 Q71.7032 1086.86 65.2217 1086.86 Q63.0458 1086.86 60.731 1086.42 Q58.4393 1086 55.9856 1085.15 L55.9856 1080.63 Q57.9301 1081.77 60.2449 1082.35 Q62.5597 1082.92 65.0828 1082.92 Q69.4809 1082.92 71.7726 1081.19 Q74.0874 1079.45 74.0874 1076.14 Q74.0874 1073.09 71.9346 1071.37 Q69.805 1069.64 65.9856 1069.64 L61.9578 1069.64 L61.9578 1065.79 L66.1708 1065.79 Q69.6198 1065.79 71.4485 1064.43 Q73.2772 1063.04 73.2772 1060.45 Q73.2772 1057.79 71.3791 1056.37 Q69.5041 1054.94 65.9856 1054.94 Q64.0643 1054.94 61.8652 1055.35 Q59.6662 1055.77 57.0273 1056.65 L57.0273 1052.48 Q59.6893 1051.74 62.0041 1051.37 Q64.3421 1051 66.4023 1051 Q71.7263 1051 74.8281 1053.43 Q77.93 1055.84 77.93 1059.96 Q77.93 1062.83 76.2865 1064.82 Q74.643 1066.79 71.6106 1067.55 Z" fill="#000000" fill-rule="evenodd" fill-opacity="1" /><path clip-path="url(#clip400)" d="M 0 0 M69.1569 830.325 L57.3514 848.773 L69.1569 848.773 L69.1569 830.325 M67.93 826.25 L73.8096 826.25 L73.8096 848.773 L78.7402 848.773 L78.7402 852.662 L73.8096 852.662 L73.8096 860.81 L69.1569 860.81 L69.1569 852.662 L53.5551 852.662 L53.5551 848.148 L67.93 826.25 Z" fill="#000000" fill-rule="evenodd" fill-opacity="1" /><path clip-path="url(#clip400)" d="M 0 0 M57.8375 600.873 L76.1939 600.873 L76.1939 604.808 L62.1199 604.808 L62.1199 613.28 Q63.1384 612.933 64.1569 612.771 Q65.1754 612.586 66.1939 612.586 Q71.9809 612.586 75.3605 615.757 Q78.7402 618.928 78.7402 624.345 Q78.7402 629.924 75.268 633.025 Q71.7958 636.104 65.4763 636.104 Q63.3004 636.104 61.0319 635.734 Q58.7866 635.363 56.3792 634.623 L56.3792 629.924 Q58.4625 631.058 60.6847 631.613 Q62.9069 632.169 65.3837 632.169 Q69.3884 632.169 71.7263 630.062 Q74.0643 627.956 74.0643 624.345 Q74.0643 620.734 71.7263 618.627 Q69.3884 616.521 65.3837 616.521 Q63.5088 616.521 61.6338 616.938 Q59.7819 617.354 57.8375 618.234 L57.8375 600.873 Z" fill="#000000" fill-rule="evenodd" fill-opacity="1" /><path clip-path="url(#clip400)" d="M 0 0 M67.2124 390.912 Q64.0643 390.912 62.2125 393.064 Q60.3838 395.217 60.3838 398.967 Q60.3838 402.694 62.2125 404.87 Q64.0643 407.023 67.2124 407.023 Q70.3606 407.023 72.1893 404.87 Q74.0411 402.694 74.0411 398.967 Q74.0411 395.217 72.1893 393.064 Q70.3606 390.912 67.2124 390.912 M76.4948 376.259 L76.4948 380.518 Q74.7355 379.685 72.93 379.245 Q71.1476 378.805 69.3884 378.805 Q64.7588 378.805 62.3051 381.93 Q59.8745 385.055 59.5273 391.375 Q60.893 389.361 62.9532 388.296 Q65.0134 387.208 67.4902 387.208 Q72.6985 387.208 75.7078 390.379 Q78.7402 393.527 78.7402 398.967 Q78.7402 404.291 75.592 407.509 Q72.4439 410.726 67.2124 410.726 Q61.2171 410.726 58.0458 406.143 Q54.8745 401.537 54.8745 392.81 Q54.8745 384.615 58.7634 379.754 Q62.6523 374.87 69.2032 374.87 Q70.9624 374.87 72.7448 375.217 Q74.5504 375.565 76.4948 376.259 Z" fill="#000000" fill-rule="evenodd" fill-opacity="1" /><path clip-path="url(#clip400)" d="M 0 0 M56.5181 150.117 L78.7402 150.117 L78.7402 152.108 L66.1939 184.677 L61.3097 184.677 L73.1152 154.053 L56.5181 154.053 L56.5181 150.117 Z" fill="#000000" fill-rule="evenodd" fill-opacity="1" /><path clip-path="url(#clip400)" d="M 0 0 M643.304 20.1573 L632.204 50.2555 L654.444 50.2555 L643.304 20.1573 M638.686 12.096 L647.962 12.096 L671.012 72.576 L662.505 72.576 L656.996 57.061 L629.733 57.061 L624.224 72.576 L615.596 72.576 L638.686 12.096 Z" fill="#000000" fill-rule="evenodd" fill-opacity="1" /><path clip-path="url(#clip400)" d="M 0 0 M668.622 27.2059 L676.521 27.2059 L690.699 65.2844 L704.878 27.2059 L712.777 27.2059 L695.763 72.576 L685.636 72.576 L668.622 27.2059 Z" fill="#000000" fill-rule="evenodd" fill-opacity="1" /><path clip-path="url(#clip400)" d="M 0 0 M759.403 48.0275 L759.403 51.6733 L725.132 51.6733 Q725.618 59.3701 729.75 63.421 Q733.923 67.4314 741.336 67.4314 Q745.63 67.4314 749.64 66.3781 Q753.691 65.3249 757.661 63.2184 L757.661 70.267 Q753.65 71.9684 749.438 72.8596 Q745.225 73.7508 740.89 73.7508 Q730.034 73.7508 723.674 67.4314 Q717.354 61.1119 717.354 50.3365 Q717.354 39.1965 723.35 32.6746 Q729.386 26.1121 739.594 26.1121 Q748.749 26.1121 754.056 32.0264 Q759.403 37.9003 759.403 48.0275 M751.949 45.84 Q751.868 39.7232 748.506 36.0774 Q745.184 32.4315 739.675 32.4315 Q733.436 32.4315 729.669 35.9558 Q725.942 39.4801 725.375 45.8805 L751.949 45.84 Z" fill="#000000" fill-rule="evenodd" fill-opacity="1" /><path clip-path="url(#clip400)" d="M 0 0 M793.511 34.1734 Q792.256 33.4443 790.757 33.1202 Q789.298 32.7556 787.516 32.7556 Q781.197 32.7556 777.794 36.8875 Q774.432 40.9789 774.432 48.6757 L774.432 72.576 L766.937 72.576 L766.937 27.2059 L774.432 27.2059 L774.432 34.2544 Q776.781 30.1225 780.548 28.1376 Q784.316 26.1121 789.704 26.1121 Q790.473 26.1121 791.405 26.2337 Q792.337 26.3147 793.471 26.5172 L793.511 34.1734 Z" fill="#000000" fill-rule="evenodd" fill-opacity="1" /><path clip-path="url(#clip400)" d="M 0 0 M821.949 49.7694 Q812.915 49.7694 809.431 51.8354 Q805.948 53.9013 805.948 58.8839 Q805.948 62.8538 808.54 65.2034 Q811.173 67.5124 815.67 67.5124 Q821.868 67.5124 825.595 63.1374 Q829.362 58.7219 829.362 51.4303 L829.362 49.7694 L821.949 49.7694 M836.816 46.6907 L836.816 72.576 L829.362 72.576 L829.362 65.6895 Q826.81 69.8214 823.002 71.8063 Q819.194 73.7508 813.685 73.7508 Q806.717 73.7508 802.585 69.8619 Q798.494 65.9325 798.494 59.3701 Q798.494 51.7138 803.598 47.825 Q808.743 43.9361 818.911 43.9361 L829.362 43.9361 L829.362 43.2069 Q829.362 38.0623 825.959 35.2672 Q822.597 32.4315 816.48 32.4315 Q812.591 32.4315 808.905 33.3632 Q805.218 34.295 801.816 36.1584 L801.816 29.2718 Q805.907 27.692 809.755 26.9223 Q813.604 26.1121 817.25 26.1121 Q827.093 26.1121 831.954 31.2163 Q836.816 36.3204 836.816 46.6907 Z" fill="#000000" fill-rule="evenodd" fill-opacity="1" /><path clip-path="url(#clip400)" d="M 0 0 M874.489 49.3643 Q874.489 41.2625 871.127 36.8065 Q867.805 32.3505 861.769 32.3505 Q855.774 32.3505 852.412 36.8065 Q849.09 41.2625 849.09 49.3643 Q849.09 57.4256 852.412 61.8816 Q855.774 66.3376 861.769 66.3376 Q867.805 66.3376 871.127 61.8816 Q874.489 57.4256 874.489 49.3643 M881.943 66.9452 Q881.943 78.5308 876.798 84.1616 Q871.653 89.8329 861.04 89.8329 Q857.111 89.8329 853.627 89.2252 Q850.143 88.6581 846.862 87.4428 L846.862 80.1917 Q850.143 81.9741 853.343 82.8248 Q856.543 83.6755 859.865 83.6755 Q867.197 83.6755 870.843 79.8271 Q874.489 76.0193 874.489 68.282 L874.489 64.5957 Q872.18 68.6061 868.575 70.5911 Q864.969 72.576 859.946 72.576 Q851.601 72.576 846.497 66.2161 Q841.393 59.8562 841.393 49.3643 Q841.393 38.832 846.497 32.472 Q851.601 26.1121 859.946 26.1121 Q864.969 26.1121 868.575 28.0971 Q872.18 30.082 874.489 34.0924 L874.489 27.2059 L881.943 27.2059 L881.943 66.9452 Z" fill="#000000" fill-rule="evenodd" fill-opacity="1" /><path clip-path="url(#clip400)" d="M 0 0 M928.569 48.0275 L928.569 51.6733 L894.298 51.6733 Q894.784 59.3701 898.916 63.421 Q903.088 67.4314 910.501 67.4314 Q914.795 67.4314 918.806 66.3781 Q922.857 65.3249 926.827 63.2184 L926.827 70.267 Q922.816 71.9684 918.603 72.8596 Q914.39 73.7508 910.056 73.7508 Q899.199 73.7508 892.84 67.4314 Q886.52 61.1119 886.52 50.3365 Q886.52 39.1965 892.515 32.6746 Q898.551 26.1121 908.76 26.1121 Q917.915 26.1121 923.221 32.0264 Q928.569 37.9003 928.569 48.0275 M921.115 45.84 Q921.034 39.7232 917.672 36.0774 Q914.35 32.4315 908.841 32.4315 Q902.602 32.4315 898.835 35.9558 Q895.108 39.4801 894.541 45.8805 L921.115 45.84 Z" fill="#000000" fill-rule="evenodd" fill-opacity="1" /><path clip-path="url(#clip400)" d="M 0 0 M970.131 14.324 L970.131 27.2059 L985.484 27.2059 L985.484 32.9987 L970.131 32.9987 L970.131 57.6282 Q970.131 63.1779 971.63 64.7578 Q973.169 66.3376 977.827 66.3376 L985.484 66.3376 L985.484 72.576 L977.827 72.576 Q969.199 72.576 965.918 69.3758 Q962.637 66.1351 962.637 57.6282 L962.637 32.9987 L957.168 32.9987 L957.168 27.2059 L962.637 27.2059 L962.637 14.324 L970.131 14.324 Z" fill="#000000" fill-rule="evenodd" fill-opacity="1" /><path clip-path="url(#clip400)" d="M 0 0 M1032.11 48.0275 L1032.11 51.6733 L997.839 51.6733 Q998.325 59.3701 1002.46 63.421 Q1006.63 67.4314 1014.04 67.4314 Q1018.34 67.4314 1022.35 66.3781 Q1026.4 65.3249 1030.37 63.2184 L1030.37 70.267 Q1026.36 71.9684 1022.14 72.8596 Q1017.93 73.7508 1013.6 73.7508 Q1002.74 73.7508 996.381 67.4314 Q990.061 61.1119 990.061 50.3365 Q990.061 39.1965 996.057 32.6746 Q1002.09 26.1121 1012.3 26.1121 Q1021.46 26.1121 1026.76 32.0264 Q1032.11 37.9003 1032.11 48.0275 M1024.66 45.84 Q1024.57 39.7232 1021.21 36.0774 Q1017.89 32.4315 1012.38 32.4315 Q1006.14 32.4315 1002.38 35.9558 Q998.649 39.4801 998.082 45.8805 L1024.66 45.84 Z" fill="#000000" fill-rule="evenodd" fill-opacity="1" /><path clip-path="url(#clip400)" d="M 0 0 M1066.22 34.1734 Q1064.96 33.4443 1063.46 33.1202 Q1062.01 32.7556 1060.22 32.7556 Q1053.9 32.7556 1050.5 36.8875 Q1047.14 40.9789 1047.14 48.6757 L1047.14 72.576 L1039.64 72.576 L1039.64 27.2059 L1047.14 27.2059 L1047.14 34.2544 Q1049.49 30.1225 1053.26 28.1376 Q1057.02 26.1121 1062.41 26.1121 Q1063.18 26.1121 1064.11 26.2337 Q1065.04 26.3147 1066.18 26.5172 L1066.22 34.1734 Z" fill="#000000" fill-rule="evenodd" fill-opacity="1" /><path clip-path="url(#clip400)" d="M 0 0 M1107.9 35.9153 Q1110.7 30.8922 1114.59 28.5022 Q1118.47 26.1121 1123.74 26.1121 Q1130.83 26.1121 1134.68 31.0947 Q1138.53 36.0368 1138.53 45.1919 L1138.53 72.576 L1131.03 72.576 L1131.03 45.4349 Q1131.03 38.913 1128.72 35.7533 Q1126.41 32.5936 1121.68 32.5936 Q1115.88 32.5936 1112.52 36.4419 Q1109.16 40.2903 1109.16 46.9338 L1109.16 72.576 L1101.66 72.576 L1101.66 45.4349 Q1101.66 38.8725 1099.35 35.7533 Q1097.05 32.5936 1092.23 32.5936 Q1086.51 32.5936 1083.15 36.4824 Q1079.79 40.3308 1079.79 46.9338 L1079.79 72.576 L1072.29 72.576 L1072.29 27.2059 L1079.79 27.2059 L1079.79 34.2544 Q1082.34 30.082 1085.91 28.0971 Q1089.47 26.1121 1094.37 26.1121 Q1099.31 26.1121 1102.76 28.6237 Q1106.24 31.1352 1107.9 35.9153 Z" fill="#000000" fill-rule="evenodd" fill-opacity="1" /><path clip-path="url(#clip400)" d="M 0 0 M1146.35 27.2059 L1153.8 27.2059 L1153.8 72.576 L1146.35 72.576 L1146.35 27.2059 M1146.35 9.54393 L1153.8 9.54393 L1153.8 18.9825 L1146.35 18.9825 L1146.35 9.54393 Z" fill="#000000" fill-rule="evenodd" fill-opacity="1" /><path clip-path="url(#clip400)" d="M 0 0 M1199.33 45.1919 L1199.33 72.576 L1191.88 72.576 L1191.88 45.4349 Q1191.88 38.994 1189.37 35.7938 Q1186.85 32.5936 1181.83 32.5936 Q1175.8 32.5936 1172.31 36.4419 Q1168.83 40.2903 1168.83 46.9338 L1168.83 72.576 L1161.33 72.576 L1161.33 27.2059 L1168.83 27.2059 L1168.83 34.2544 Q1171.5 30.163 1175.11 28.1376 Q1178.75 26.1121 1183.49 26.1121 Q1191.31 26.1121 1195.32 30.9732 Q1199.33 35.7938 1199.33 45.1919 Z" fill="#000000" fill-rule="evenodd" fill-opacity="1" /><path clip-path="url(#clip400)" d="M 0 0 M1227.77 49.7694 Q1218.73 49.7694 1215.25 51.8354 Q1211.77 53.9013 1211.77 58.8839 Q1211.77 62.8538 1214.36 65.2034 Q1216.99 67.5124 1221.49 67.5124 Q1227.69 67.5124 1231.41 63.1374 Q1235.18 58.7219 1235.18 51.4303 L1235.18 49.7694 L1227.77 49.7694 M1242.64 46.6907 L1242.64 72.576 L1235.18 72.576 L1235.18 65.6895 Q1232.63 69.8214 1228.82 71.8063 Q1225.01 73.7508 1219.5 73.7508 Q1212.54 73.7508 1208.4 69.8619 Q1204.31 65.9325 1204.31 59.3701 Q1204.31 51.7138 1209.42 47.825 Q1214.56 43.9361 1224.73 43.9361 L1235.18 43.9361 L1235.18 43.2069 Q1235.18 38.0623 1231.78 35.2672 Q1228.42 32.4315 1222.3 32.4315 Q1218.41 32.4315 1214.72 33.3632 Q1211.04 34.295 1207.64 36.1584 L1207.64 29.2718 Q1211.73 27.692 1215.58 26.9223 Q1219.42 26.1121 1223.07 26.1121 Q1232.91 26.1121 1237.77 31.2163 Q1242.64 36.3204 1242.64 46.6907 Z" fill="#000000" fill-rule="evenodd" fill-opacity="1" /><path clip-path="url(#clip400)" d="M 0 0 M1250.45 9.54393 L1257.91 9.54393 L1257.91 72.576 L1250.45 72.576 L1250.45 9.54393 Z" fill="#000000" fill-rule="evenodd" fill-opacity="1" /><path clip-path="url(#clip400)" d="M 0 0 M1286.75 27.2059 L1294.65 27.2059 L1308.83 65.2844 L1323.01 27.2059 L1330.9 27.2059 L1313.89 72.576 L1303.76 72.576 L1286.75 27.2059 Z" fill="#000000" fill-rule="evenodd" fill-opacity="1" /><path clip-path="url(#clip400)" d="M 0 0 M1377.53 48.0275 L1377.53 51.6733 L1343.26 51.6733 Q1343.75 59.3701 1347.88 63.421 Q1352.05 67.4314 1359.46 67.4314 Q1363.76 67.4314 1367.77 66.3781 Q1371.82 65.3249 1375.79 63.2184 L1375.79 70.267 Q1371.78 71.9684 1367.56 72.8596 Q1363.35 73.7508 1359.02 73.7508 Q1348.16 73.7508 1341.8 67.4314 Q1335.48 61.1119 1335.48 50.3365 Q1335.48 39.1965 1341.48 32.6746 Q1347.51 26.1121 1357.72 26.1121 Q1366.88 26.1121 1372.18 32.0264 Q1377.53 37.9003 1377.53 48.0275 M1370.08 45.84 Q1370 39.7232 1366.63 36.0774 Q1363.31 32.4315 1357.8 32.4315 Q1351.56 32.4315 1347.8 35.9558 Q1344.07 39.4801 1343.5 45.8805 L1370.08 45.84 Z" fill="#000000" fill-rule="evenodd" fill-opacity="1" /><path clip-path="url(#clip400)" d="M 0 0 M1385.35 9.54393 L1392.8 9.54393 L1392.8 72.576 L1385.35 72.576 L1385.35 9.54393 Z" fill="#000000" fill-rule="evenodd" fill-opacity="1" /><path clip-path="url(#clip400)" d="M 0 0 M1418.2 32.4315 Q1412.21 32.4315 1408.72 37.1306 Q1405.24 41.7891 1405.24 49.9314 Q1405.24 58.0738 1408.68 62.7728 Q1412.17 67.4314 1418.2 67.4314 Q1424.16 67.4314 1427.64 62.7323 Q1431.12 58.0333 1431.12 49.9314 Q1431.12 41.8701 1427.64 37.1711 Q1424.16 32.4315 1418.2 32.4315 M1418.2 26.1121 Q1427.92 26.1121 1433.47 32.4315 Q1439.02 38.7509 1439.02 49.9314 Q1439.02 61.0714 1433.47 67.4314 Q1427.92 73.7508 1418.2 73.7508 Q1408.44 73.7508 1402.89 67.4314 Q1397.38 61.0714 1397.38 49.9314 Q1397.38 38.7509 1402.89 32.4315 Q1408.44 26.1121 1418.2 26.1121 Z" fill="#000000" fill-rule="evenodd" fill-opacity="1" /><path clip-path="url(#clip400)" d="M 0 0 M1479.49 28.9478 L1479.49 35.9153 Q1476.33 34.1734 1473.13 33.3227 Q1469.97 32.4315 1466.73 32.4315 Q1459.48 32.4315 1455.47 37.0496 Q1451.46 41.6271 1451.46 49.9314 Q1451.46 58.2358 1455.47 62.8538 Q1459.48 67.4314 1466.73 67.4314 Q1469.97 67.4314 1473.13 66.5807 Q1476.33 65.6895 1479.49 63.9476 L1479.49 70.8341 Q1476.37 72.2924 1473.01 73.0216 Q1469.69 73.7508 1465.92 73.7508 Q1455.67 73.7508 1449.64 67.3098 Q1443.6 60.8689 1443.6 49.9314 Q1443.6 38.832 1449.68 32.472 Q1455.79 26.1121 1466.41 26.1121 Q1469.85 26.1121 1473.13 26.8413 Q1476.41 27.5299 1479.49 28.9478 Z" fill="#000000" fill-rule="evenodd" fill-opacity="1" /><path clip-path="url(#clip400)" d="M 0 0 M1487.31 27.2059 L1494.76 27.2059 L1494.76 72.576 L1487.31 72.576 L1487.31 27.2059 M1487.31 9.54393 L1494.76 9.54393 L1494.76 18.9825 L1487.31 18.9825 L1487.31 9.54393 Z" fill="#000000" fill-rule="evenodd" fill-opacity="1" /><path clip-path="url(#clip400)" d="M 0 0 M1509.95 14.324 L1509.95 27.2059 L1525.31 27.2059 L1525.31 32.9987 L1509.95 32.9987 L1509.95 57.6282 Q1509.95 63.1779 1511.45 64.7578 Q1512.99 66.3376 1517.65 66.3376 L1525.31 66.3376 L1525.31 72.576 L1517.65 72.576 Q1509.02 72.576 1505.74 69.3758 Q1502.46 66.1351 1502.46 57.6282 L1502.46 32.9987 L1496.99 32.9987 L1496.99 27.2059 L1502.46 27.2059 L1502.46 14.324 L1509.95 14.324 Z" fill="#000000" fill-rule="evenodd" fill-opacity="1" /><path clip-path="url(#clip400)" d="M 0 0 M1552 76.7889 Q1548.84 84.8907 1545.85 87.3618 Q1542.85 89.8329 1537.82 89.8329 L1531.87 89.8329 L1531.87 83.5945 L1536.24 83.5945 Q1539.32 83.5945 1541.02 82.1361 Q1542.73 80.6778 1544.79 75.2496 L1546.13 71.8468 L1527.78 27.2059 L1535.68 27.2059 L1549.86 62.6918 L1564.03 27.2059 L1571.93 27.2059 L1552 76.7889 Z" fill="#000000" fill-rule="evenodd" fill-opacity="1" /><path clip-path="url(#clip400)" d="M 0 0 M1623.7 32.4315 Q1617.71 32.4315 1614.22 37.1306 Q1610.74 41.7891 1610.74 49.9314 Q1610.74 58.0738 1614.18 62.7728 Q1617.67 67.4314 1623.7 67.4314 Q1629.66 67.4314 1633.14 62.7323 Q1636.63 58.0333 1636.63 49.9314 Q1636.63 41.8701 1633.14 37.1711 Q1629.66 32.4315 1623.7 32.4315 M1623.7 26.1121 Q1633.43 26.1121 1638.98 32.4315 Q1644.53 38.7509 1644.53 49.9314 Q1644.53 61.0714 1638.98 67.4314 Q1633.43 73.7508 1623.7 73.7508 Q1613.94 73.7508 1608.39 67.4314 Q1602.88 61.0714 1602.88 49.9314 Q1602.88 38.7509 1608.39 32.4315 Q1613.94 26.1121 1623.7 26.1121 Z" fill="#000000" fill-rule="evenodd" fill-opacity="1" /><path clip-path="url(#clip400)" d="M 0 0 M1675.31 9.54393 L1675.31 15.7418 L1668.18 15.7418 Q1664.17 15.7418 1662.59 17.3622 Q1661.05 18.9825 1661.05 23.1955 L1661.05 27.2059 L1673.33 27.2059 L1673.33 32.9987 L1661.05 32.9987 L1661.05 72.576 L1653.56 72.576 L1653.56 32.9987 L1646.43 32.9987 L1646.43 27.2059 L1653.56 27.2059 L1653.56 24.0462 Q1653.56 16.471 1657.08 13.0277 Q1660.61 9.54393 1668.26 9.54393 L1675.31 9.54393 Z" fill="#000000" fill-rule="evenodd" fill-opacity="1" /><path clip-path="url(#clip400)" d="M 0 0 M1735.79 34.1734 Q1734.54 33.4443 1733.04 33.1202 Q1731.58 32.7556 1729.8 32.7556 Q1723.48 32.7556 1720.07 36.8875 Q1716.71 40.9789 1716.71 48.6757 L1716.71 72.576 L1709.22 72.576 L1709.22 27.2059 L1716.71 27.2059 L1716.71 34.2544 Q1719.06 30.1225 1722.83 28.1376 Q1726.6 26.1121 1731.98 26.1121 Q1732.75 26.1121 1733.69 26.2337 Q1734.62 26.3147 1735.75 26.5172 L1735.79 34.1734 Z" fill="#000000" fill-rule="evenodd" fill-opacity="1" /><path clip-path="url(#clip400)" d="M 0 0 M1764.23 49.7694 Q1755.2 49.7694 1751.71 51.8354 Q1748.23 53.9013 1748.23 58.8839 Q1748.23 62.8538 1750.82 65.2034 Q1753.45 67.5124 1757.95 67.5124 Q1764.15 67.5124 1767.88 63.1374 Q1771.64 58.7219 1771.64 51.4303 L1771.64 49.7694 L1764.23 49.7694 M1779.1 46.6907 L1779.1 72.576 L1771.64 72.576 L1771.64 65.6895 Q1769.09 69.8214 1765.28 71.8063 Q1761.47 73.7508 1755.97 73.7508 Q1749 73.7508 1744.87 69.8619 Q1740.77 65.9325 1740.77 59.3701 Q1740.77 51.7138 1745.88 47.825 Q1751.02 43.9361 1761.19 43.9361 L1771.64 43.9361 L1771.64 43.2069 Q1771.64 38.0623 1768.24 35.2672 Q1764.88 32.4315 1758.76 32.4315 Q1754.87 32.4315 1751.19 33.3632 Q1747.5 34.295 1744.1 36.1584 L1744.1 29.2718 Q1748.19 27.692 1752.04 26.9223 Q1755.88 26.1121 1759.53 26.1121 Q1769.37 26.1121 1774.24 31.2163 Q1779.1 36.3204 1779.1 46.6907 Z" fill="#000000" fill-rule="evenodd" fill-opacity="1" /><path clip-path="url(#clip400)" d="M 0 0 M1786.91 27.2059 L1794.37 27.2059 L1794.37 72.576 L1786.91 72.576 L1786.91 27.2059 M1786.91 9.54393 L1794.37 9.54393 L1794.37 18.9825 L1786.91 18.9825 L1786.91 9.54393 Z" fill="#000000" fill-rule="evenodd" fill-opacity="1" /><path clip-path="url(#clip400)" d="M 0 0 M1839.9 45.1919 L1839.9 72.576 L1832.45 72.576 L1832.45 45.4349 Q1832.45 38.994 1829.94 35.7938 Q1827.42 32.5936 1822.4 32.5936 Q1816.36 32.5936 1812.88 36.4419 Q1809.4 40.2903 1809.4 46.9338 L1809.4 72.576 L1801.9 72.576 L1801.9 27.2059 L1809.4 27.2059 L1809.4 34.2544 Q1812.07 30.163 1815.68 28.1376 Q1819.32 26.1121 1824.06 26.1121 Q1831.88 26.1121 1835.89 30.9732 Q1839.9 35.7938 1839.9 45.1919 Z" fill="#000000" fill-rule="evenodd" fill-opacity="1" /><path clip-path="url(#clip400)" d="M 0 0 M1051.91 1620.33 Q1051.91 1626.79 1054.55 1630.48 Q1057.23 1634.15 1061.87 1634.15 Q1066.52 1634.15 1069.19 1630.48 Q1071.87 1626.79 1071.87 1620.33 Q1071.87 1613.87 1069.19 1610.21 Q1066.52 1606.52 1061.87 1606.52 Q1057.23 1606.52 1054.55 1610.21 Q1051.91 1613.87 1051.91 1620.33 M1071.87 1632.78 Q1070.02 1635.96 1067.19 1637.52 Q1064.39 1639.05 1060.44 1639.05 Q1053.98 1639.05 1049.91 1633.89 Q1045.86 1628.73 1045.86 1620.33 Q1045.86 1611.93 1049.91 1606.77 Q1053.98 1601.62 1060.44 1601.62 Q1064.39 1601.62 1067.19 1603.18 Q1070.02 1604.7 1071.87 1607.89 L1071.87 1602.48 L1077.72 1602.48 L1077.72 1651.68 L1071.87 1651.68 L1071.87 1632.78 Z" fill="#000000" fill-rule="evenodd" fill-opacity="1" /><path clip-path="url(#clip400)" d="M 0 0 M1110.95 1648.95 L1110.95 1653.5 L1077.09 1653.5 L1077.09 1648.95 L1110.95 1648.95 Z" fill="#000000" fill-rule="evenodd" fill-opacity="1" /><path clip-path="url(#clip400)" d="M 0 0 M1137.75 1607.95 Q1136.77 1607.38 1135.59 1607.12 Q1134.44 1606.84 1133.04 1606.84 Q1128.08 1606.84 1125.4 1610.08 Q1122.76 1613.3 1122.76 1619.35 L1122.76 1638.12 L1116.87 1638.12 L1116.87 1602.48 L1122.76 1602.48 L1122.76 1608.01 Q1124.61 1604.77 1127.57 1603.21 Q1130.53 1601.62 1134.76 1601.62 Q1135.37 1601.62 1136.1 1601.71 Q1136.83 1601.78 1137.72 1601.93 L1137.75 1607.95 Z" fill="#000000" fill-rule="evenodd" fill-opacity="1" /><path clip-path="url(#clip400)" d="M 0 0 M1160.1 1620.2 Q1153 1620.2 1150.26 1621.83 Q1147.52 1623.45 1147.52 1627.37 Q1147.52 1630.48 1149.56 1632.33 Q1151.63 1634.15 1155.16 1634.15 Q1160.03 1634.15 1162.96 1630.71 Q1165.92 1627.24 1165.92 1621.51 L1165.92 1620.2 L1160.1 1620.2 M1171.78 1617.79 L1171.78 1638.12 L1165.92 1638.12 L1165.92 1632.71 Q1163.92 1635.96 1160.92 1637.52 Q1157.93 1639.05 1153.6 1639.05 Q1148.13 1639.05 1144.88 1635.99 Q1141.67 1632.9 1141.67 1627.75 Q1141.67 1621.73 1145.68 1618.68 Q1149.72 1615.62 1157.71 1615.62 L1165.92 1615.62 L1165.92 1615.05 Q1165.92 1611.01 1163.25 1608.81 Q1160.61 1606.58 1155.8 1606.58 Q1152.74 1606.58 1149.85 1607.31 Q1146.95 1608.05 1144.28 1609.51 L1144.28 1604.1 Q1147.49 1602.86 1150.52 1602.25 Q1153.54 1601.62 1156.4 1601.62 Q1164.14 1601.62 1167.96 1605.63 Q1171.78 1609.64 1171.78 1617.79 Z" fill="#000000" fill-rule="evenodd" fill-opacity="1" /><path clip-path="url(#clip400)" d="M 0 0 M1177.92 1602.48 L1183.78 1602.48 L1183.78 1638.12 L1177.92 1638.12 L1177.92 1602.48 M1177.92 1588.6 L1183.78 1588.6 L1183.78 1596.01 L1177.92 1596.01 L1177.92 1588.6 Z" fill="#000000" fill-rule="evenodd" fill-opacity="1" /><path clip-path="url(#clip400)" d="M 0 0 M1219.55 1616.61 L1219.55 1638.12 L1213.7 1638.12 L1213.7 1616.8 Q1213.7 1611.74 1211.72 1609.22 Q1209.75 1606.71 1205.8 1606.71 Q1201.06 1606.71 1198.32 1609.73 Q1195.59 1612.76 1195.59 1617.98 L1195.59 1638.12 L1189.7 1638.12 L1189.7 1602.48 L1195.59 1602.48 L1195.59 1608.01 Q1197.69 1604.8 1200.52 1603.21 Q1203.38 1601.62 1207.11 1601.62 Q1213.25 1601.62 1216.4 1605.44 Q1219.55 1609.22 1219.55 1616.61 Z" fill="#000000" fill-rule="evenodd" fill-opacity="1" /><path clip-path="url(#clip400)" d="M 0 0 M1245.87 1588.6 L1259.37 1588.6 L1259.37 1593.15 L1251.73 1593.15 L1251.73 1642.17 L1259.37 1642.17 L1259.37 1646.72 L1245.87 1646.72 L1245.87 1588.6 Z" fill="#000000" fill-rule="evenodd" fill-opacity="1" /><path clip-path="url(#clip400)" d="M 0 0 M1288.97 1619.89 Q1288.97 1613.52 1286.33 1610.02 Q1283.72 1606.52 1278.98 1606.52 Q1274.27 1606.52 1271.62 1610.02 Q1269.01 1613.52 1269.01 1619.89 Q1269.01 1626.22 1271.62 1629.72 Q1274.27 1633.22 1278.98 1633.22 Q1283.72 1633.22 1286.33 1629.72 Q1288.97 1626.22 1288.97 1619.89 M1294.83 1633.7 Q1294.83 1642.8 1290.78 1647.23 Q1286.74 1651.68 1278.4 1651.68 Q1275.32 1651.68 1272.58 1651.21 Q1269.84 1650.76 1267.26 1649.8 L1267.26 1644.11 Q1269.84 1645.51 1272.36 1646.18 Q1274.87 1646.84 1277.48 1646.84 Q1283.24 1646.84 1286.11 1643.82 Q1288.97 1640.83 1288.97 1634.75 L1288.97 1631.85 Q1287.16 1635 1284.32 1636.56 Q1281.49 1638.12 1277.54 1638.12 Q1270.99 1638.12 1266.98 1633.13 Q1262.97 1628.13 1262.97 1619.89 Q1262.97 1611.61 1266.98 1606.61 Q1270.99 1601.62 1277.54 1601.62 Q1281.49 1601.62 1284.32 1603.18 Q1287.16 1604.74 1288.97 1607.89 L1288.97 1602.48 L1294.83 1602.48 L1294.83 1633.7 Z" fill="#000000" fill-rule="evenodd" fill-opacity="1" /><path clip-path="url(#clip400)" d="M 0 0 M1311.38 1590.6 L1316.79 1590.6 L1300.24 1644.17 L1294.83 1644.17 L1311.38 1590.6 Z" fill="#000000" fill-rule="evenodd" fill-opacity="1" /><path clip-path="url(#clip400)" d="M 0 0 M1322.71 1588.6 L1328.6 1588.6 L1328.6 1617.85 L1346.07 1602.48 L1353.55 1602.48 L1334.64 1619.15 L1354.35 1638.12 L1346.71 1638.12 L1328.6 1620.71 L1328.6 1638.12 L1322.71 1638.12 L1322.71 1588.6 Z" fill="#000000" fill-rule="evenodd" fill-opacity="1" /><path clip-path="url(#clip400)" d="M 0 0 M1383.95 1619.89 Q1383.95 1613.52 1381.3 1610.02 Q1378.69 1606.52 1373.95 1606.52 Q1369.24 1606.52 1366.6 1610.02 Q1363.99 1613.52 1363.99 1619.89 Q1363.99 1626.22 1366.6 1629.72 Q1369.24 1633.22 1373.95 1633.22 Q1378.69 1633.22 1381.3 1629.72 Q1383.95 1626.22 1383.95 1619.89 M1389.8 1633.7 Q1389.8 1642.8 1385.76 1647.23 Q1381.72 1651.68 1373.38 1651.68 Q1370.29 1651.68 1367.55 1651.21 Q1364.82 1650.76 1362.24 1649.8 L1362.24 1644.11 Q1364.82 1645.51 1367.33 1646.18 Q1369.85 1646.84 1372.46 1646.84 Q1378.22 1646.84 1381.08 1643.82 Q1383.95 1640.83 1383.95 1634.75 L1383.95 1631.85 Q1382.13 1635 1379.3 1636.56 Q1376.47 1638.12 1372.52 1638.12 Q1365.96 1638.12 1361.95 1633.13 Q1357.94 1628.13 1357.94 1619.89 Q1357.94 1611.61 1361.95 1606.61 Q1365.96 1601.62 1372.52 1601.62 Q1376.47 1601.62 1379.3 1603.18 Q1382.13 1604.74 1383.95 1607.89 L1383.95 1602.48 L1389.8 1602.48 L1389.8 1633.7 Z" fill="#000000" fill-rule="evenodd" fill-opacity="1" /><path clip-path="url(#clip400)" d="M 0 0 M1409.63 1588.6 L1409.63 1646.72 L1396.14 1646.72 L1396.14 1642.17 L1403.74 1642.17 L1403.74 1593.15 L1396.14 1593.15 L1396.14 1588.6 L1409.63 1588.6 Z" fill="#000000" fill-rule="evenodd" fill-opacity="1" /><path clip-path="url(#clip400)" d="M 0 0 M-20.3488 981.336 L-20.3488 975.129 L9.56997 963.989 L-20.3488 952.849 L-20.3488 946.642 L15.2991 960.01 L15.2991 967.968 L-20.3488 981.336 Z" fill="#000000" fill-rule="evenodd" fill-opacity="1" /><path clip-path="url(#clip400)" d="M 0 0 M-3.98898 910.008 L-1.12442 910.008 L-1.12442 936.935 Q4.92301 936.553 8.10586 933.306 Q11.2569 930.028 11.2569 924.203 Q11.2569 920.83 10.4293 917.679 Q9.6018 914.496 7.94672 911.376 L13.4849 911.376 Q14.8217 914.527 15.5219 917.838 Q16.2221 921.148 16.2221 924.553 Q16.2221 933.084 11.2569 938.081 Q6.29163 943.046 -2.17476 943.046 Q-10.9276 943.046 -16.052 938.335 Q-21.2082 933.593 -21.2082 925.572 Q-21.2082 918.379 -16.5613 914.209 Q-11.9461 910.008 -3.98898 910.008 M-5.70772 915.864 Q-10.5138 915.928 -13.3784 918.57 Q-16.243 921.18 -16.243 925.508 Q-16.243 930.41 -13.4739 933.37 Q-10.7048 936.298 -5.6759 936.744 L-5.70772 915.864 Z" fill="#000000" fill-rule="evenodd" fill-opacity="1" /><path clip-path="url(#clip400)" d="M 0 0 M-34.2261 903.865 L-34.2261 898.008 L15.2991 898.008 L15.2991 903.865 L-34.2261 903.865 Z" fill="#000000" fill-rule="evenodd" fill-opacity="1" /><path clip-path="url(#clip400)" d="M 0 0 M-16.243 878.052 Q-16.243 882.763 -12.5509 885.5 Q-8.89058 888.237 -2.49304 888.237 Q3.90449 888.237 7.5966 885.532 Q11.2569 882.794 11.2569 878.052 Q11.2569 873.373 7.56477 870.636 Q3.87266 867.899 -2.49304 867.899 Q-8.82692 867.899 -12.519 870.636 Q-16.243 873.373 -16.243 878.052 M-21.2082 878.052 Q-21.2082 870.413 -16.243 866.053 Q-11.2777 861.692 -2.49304 861.692 Q6.2598 861.692 11.2569 866.053 Q16.2221 870.413 16.2221 878.052 Q16.2221 885.723 11.2569 890.083 Q6.2598 894.412 -2.49304 894.412 Q-11.2777 894.412 -16.243 890.083 Q-21.2082 885.723 -21.2082 878.052 Z" fill="#000000" fill-rule="evenodd" fill-opacity="1" /><path clip-path="url(#clip400)" d="M 0 0 M-18.9802 829.895 L-13.5057 829.895 Q-14.8743 832.378 -15.5427 834.892 Q-16.243 837.375 -16.243 839.921 Q-16.243 845.619 -12.6145 848.77 Q-9.01789 851.921 -2.49304 851.921 Q4.03181 851.921 7.66026 848.77 Q11.2569 845.619 11.2569 839.921 Q11.2569 837.375 10.5885 834.892 Q9.88826 832.378 8.51963 829.895 L13.9305 829.895 Q15.0763 832.346 15.6492 834.988 Q16.2221 837.598 16.2221 840.558 Q16.2221 848.611 11.1614 853.353 Q6.10066 858.095 -2.49304 858.095 Q-11.2141 858.095 -16.2111 853.321 Q-21.2082 848.515 -21.2082 840.176 Q-21.2082 837.471 -20.6353 834.892 Q-20.0942 832.314 -18.9802 829.895 Z" fill="#000000" fill-rule="evenodd" fill-opacity="1" /><path clip-path="url(#clip400)" d="M 0 0 M-20.3488 823.753 L-20.3488 817.896 L15.2991 817.896 L15.2991 823.753 L-20.3488 823.753 M-34.2261 823.753 L-34.2261 817.896 L-26.81 817.896 L-26.81 823.753 L-34.2261 823.753 Z" fill="#000000" fill-rule="evenodd" fill-opacity="1" /><path clip-path="url(#clip400)" d="M 0 0 M-30.4703 805.96 L-20.3488 805.96 L-20.3488 793.897 L-15.7974 793.897 L-15.7974 805.96 L3.55438 805.96 Q7.91489 805.96 9.1562 804.783 Q10.3975 803.573 10.3975 799.913 L10.3975 793.897 L15.2991 793.897 L15.2991 799.913 Q15.2991 806.692 12.7847 809.271 Q10.2384 811.849 3.55438 811.849 L-15.7974 811.849 L-15.7974 816.145 L-20.3488 816.145 L-20.3488 811.849 L-30.4703 811.849 L-30.4703 805.96 Z" fill="#000000" fill-rule="evenodd" fill-opacity="1" /><path clip-path="url(#clip400)" d="M 0 0 M18.6093 772.922 Q24.975 775.405 26.9165 777.76 Q28.8581 780.116 28.8581 784.062 L28.8581 788.741 L23.9565 788.741 L23.9565 785.304 Q23.9565 782.885 22.8106 781.548 Q21.6648 780.211 17.3998 778.588 L14.7262 777.537 L-20.3488 791.956 L-20.3488 785.749 L7.53295 774.609 L-20.3488 763.469 L-20.3488 757.263 L18.6093 772.922 Z" fill="#000000" fill-rule="evenodd" fill-opacity="1" /><path clip-path="url(#clip400)" d="M 0 0 M-34.2261 730.941 L-34.2261 717.445 L-29.6746 717.445 L-29.6746 725.084 L19.3413 725.084 L19.3413 717.445 L23.8928 717.445 L23.8928 730.941 L-34.2261 730.941 Z" fill="#000000" fill-rule="evenodd" fill-opacity="1" /><path clip-path="url(#clip400)" d="M 0 0 M-13.5057 683.548 Q-17.4525 681.352 -19.3303 678.296 Q-21.2082 675.241 -21.2082 671.103 Q-21.2082 665.533 -17.2933 662.509 Q-13.4102 659.485 -6.21698 659.485 L15.2991 659.485 L15.2991 665.374 L-6.02601 665.374 Q-11.1504 665.374 -13.633 667.188 Q-16.1157 669.002 -16.1157 672.726 Q-16.1157 677.278 -13.0919 679.919 Q-10.0682 682.561 -4.84835 682.561 L15.2991 682.561 L15.2991 688.449 L-6.02601 688.449 Q-11.1822 688.449 -13.633 690.264 Q-16.1157 692.078 -16.1157 695.865 Q-16.1157 700.353 -13.0601 702.995 Q-10.0364 705.637 -4.84835 705.637 L15.2991 705.637 L15.2991 711.525 L-20.3488 711.525 L-20.3488 705.637 L-14.8107 705.637 Q-18.089 703.632 -19.6486 700.831 Q-21.2082 698.03 -21.2082 694.179 Q-21.2082 690.295 -19.2349 687.59 Q-17.2615 684.853 -13.5057 683.548 Z" fill="#000000" fill-rule="evenodd" fill-opacity="1" /><path clip-path="url(#clip400)" d="M 0 0 M-32.2209 642.935 L-32.2209 637.524 L21.3465 654.075 L21.3465 659.485 L-32.2209 642.935 Z" fill="#000000" fill-rule="evenodd" fill-opacity="1" /><path clip-path="url(#clip400)" d="M 0 0 M-19.2985 608.655 L-13.7603 608.655 Q-15.0335 611.138 -15.6701 613.812 Q-16.3066 616.485 -16.3066 619.35 Q-16.3066 623.71 -14.9698 625.906 Q-13.633 628.071 -10.9594 628.071 Q-8.92241 628.071 -7.74475 626.511 Q-6.59892 624.951 -5.54858 620.241 L-5.10298 618.236 Q-3.76618 611.997 -1.31539 609.387 Q1.10358 606.746 5.46409 606.746 Q10.4293 606.746 13.3257 610.692 Q16.2221 614.607 16.2221 621.482 Q16.2221 624.347 15.6492 627.466 Q15.1081 630.553 13.9941 633.991 L7.94672 633.991 Q9.63363 630.744 10.493 627.593 Q11.3205 624.442 11.3205 621.355 Q11.3205 617.217 9.92009 614.989 Q8.4878 612.761 5.90969 612.761 Q3.52255 612.761 2.24941 614.384 Q0.976267 615.976 -0.201388 621.419 L-0.678816 623.456 Q-1.82464 628.898 -4.17996 631.317 Q-6.5671 633.736 -10.7048 633.736 Q-15.7337 633.736 -18.471 630.171 Q-21.2082 626.607 -21.2082 620.05 Q-21.2082 616.803 -20.7308 613.939 Q-20.2534 611.074 -19.2985 608.655 Z" fill="#000000" fill-rule="evenodd" fill-opacity="1" /><path clip-path="url(#clip400)" d="M 0 0 M-34.2261 586.916 L23.8928 586.916 L23.8928 600.412 L19.3413 600.412 L19.3413 592.805 L-29.6746 592.805 L-29.6746 600.412 L-34.2261 600.412 L-34.2261 586.916 Z" fill="#000000" fill-rule="evenodd" fill-opacity="1" /><polyline clip-path="url(#clip402)" style="stroke:#009af9; stroke-width:4; stroke-opacity:1; fill:none" points="
  166.42,1429.87 187.861,829.938 209.302,747.126 230.743,695.249 252.184,656.814 273.625,626.034 295.066,600.24 316.507,577.967 337.948,558.324 359.389,540.724 
  380.83,524.758 402.271,510.133 423.712,496.629 445.153,484.076 466.593,472.341 488.034,461.317 509.475,450.919 530.916,441.075 552.357,431.725 573.798,422.82 
  595.239,414.315 616.68,406.174 638.121,398.366 659.562,390.863 681.003,383.639 702.444,376.675 723.885,369.95 745.326,363.447 766.767,357.152 788.208,351.051 
  809.649,345.131 831.09,339.382 852.531,333.792 873.972,328.354 895.413,323.057 916.854,317.895 938.295,312.861 959.736,307.948 981.177,303.149 1002.62,298.46 
  1024.06,293.875 1045.5,289.389 1066.94,284.997 1088.38,280.697 1109.82,276.482 1131.26,272.351 1152.7,268.3 1174.15,264.325 1195.59,260.423 1217.03,256.591 
  1238.47,252.828 1259.91,249.129 1281.35,245.494 1302.79,241.919 1324.23,238.403 1345.67,234.944 1367.11,231.538 1388.56,228.186 1410,224.885 1431.44,221.633 
  1452.88,218.429 1474.32,215.272 1495.76,212.159 1517.2,209.091 1538.64,206.064 1560.08,203.079 1581.52,200.133 1602.97,197.226 1624.41,194.357 1645.85,191.525 
  1667.29,188.728 1688.73,185.966 1710.17,183.238 1731.61,180.543 1753.05,177.88 1774.49,175.248 1795.93,172.647 1817.37,170.076 1838.82,167.534 1860.26,165.02 
  1881.7,162.533 1903.14,160.074 1924.58,157.641 1946.02,155.234 1967.46,152.852 1988.9,150.495 2010.34,148.162 2031.78,145.853 2053.23,143.567 2074.67,141.303 
  2096.11,139.062 2117.55,136.842 2138.99,134.644 2160.43,132.466 2181.87,130.309 2203.31,128.171 2224.75,126.054 2246.19,123.955 2267.64,121.875 2289.08,119.814 
  
  "/>
<polyline clip-path="url(#clip402)" style="stroke:#e26f46; stroke-width:4; stroke-opacity:1; fill:none" points="
  166.42,1464.44 187.861,860.805 209.302,774.35 230.743,719.906 252.184,679.434 273.625,646.945 295.066,619.664 316.507,596.071 337.948,575.234 359.389,556.541 
  380.83,539.567 402.271,524.003 423.712,509.618 445.153,496.236 466.593,483.718 488.034,471.95 509.475,460.843 530.916,450.321 552.357,440.322 573.798,430.792 
  595.239,421.687 616.68,412.968 638.121,404.601 659.562,396.557 681.003,388.81 702.444,381.337 723.885,374.119 745.326,367.137 766.767,360.376 788.208,353.82 
  809.649,347.458 831.09,341.276 852.531,335.264 873.972,329.413 895.413,323.713 916.854,318.157 938.295,312.736 959.736,307.444 981.177,302.275 1002.62,297.222 
  1024.06,292.279 1045.5,287.443 1066.94,282.707 1088.38,278.069 1109.82,273.522 1131.26,269.064 1152.7,264.691 1174.15,260.4 1195.59,256.187 1217.03,252.049 
  1238.47,247.984 1259.91,243.988 1281.35,240.06 1302.79,236.196 1324.23,232.395 1345.67,228.655 1367.11,224.973 1388.56,221.347 1410,217.776 1431.44,214.258 
  1452.88,210.791 1474.32,207.374 1495.76,204.004 1517.2,200.682 1538.64,197.405 1560.08,194.172 1581.52,190.982 1602.97,187.833 1624.41,184.725 1645.85,181.656 
  1667.29,178.625 1688.73,175.631 1710.17,172.674 1731.61,169.752 1753.05,166.865 1774.49,164.011 1795.93,161.189 1817.37,158.4 1838.82,155.642 1860.26,152.914 
  1881.7,150.217 1903.14,147.548 1924.58,144.907 1946.02,142.294 1967.46,139.709 1988.9,137.149 2010.34,134.616 2031.78,132.108 2053.23,129.625 2074.67,127.166 
  2096.11,124.731 2117.55,122.32 2138.99,119.931 2160.43,117.564 2181.87,115.22 2203.31,112.897 2224.75,110.595 2246.19,108.313 2267.64,106.052 2289.08,103.811 
  
  "/>
<path clip-path="url(#clip400)" d="
M1712.89 327.952 L2280.76 327.952 L2280.76 146.512 L1712.89 146.512  Z
  " fill="#ffffff" fill-rule="evenodd" fill-opacity="1"/>
<polyline clip-path="url(#clip400)" style="stroke:#000000; stroke-width:4; stroke-opacity:1; fill:none" points="
  1712.89,327.952 2280.76,327.952 2280.76,146.512 1712.89,146.512 1712.89,327.952 
  "/>
<polyline clip-path="url(#clip400)" style="stroke:#009af9; stroke-width:4; stroke-opacity:1; fill:none" points="
  1736.89,206.992 1880.89,206.992 
  "/>
<path clip-path="url(#clip400)" d="M 0 0 M1932.76 192.374 L1932.76 197.305 Q1930.4 195.106 1927.71 194.018 Q1925.05 192.93 1922.04 192.93 Q1916.11 192.93 1912.97 196.564 Q1909.82 200.175 1909.82 207.027 Q1909.82 213.856 1912.97 217.49 Q1916.11 221.101 1922.04 221.101 Q1925.05 221.101 1927.71 220.013 Q1930.4 218.925 1932.76 216.726 L1932.76 221.61 Q1930.3 223.277 1927.55 224.11 Q1924.82 224.943 1921.76 224.943 Q1913.92 224.943 1909.4 220.152 Q1904.89 215.337 1904.89 207.027 Q1904.89 198.694 1909.4 193.902 Q1913.92 189.087 1921.76 189.087 Q1924.86 189.087 1927.6 189.92 Q1930.35 190.731 1932.76 192.374 Z" fill="#000000" fill-rule="evenodd" fill-opacity="1" /><path clip-path="url(#clip400)" d="M 0 0 M1937.23 188.254 L1941.48 188.254 L1941.48 224.272 L1937.23 224.272 L1937.23 188.254 Z" fill="#000000" fill-rule="evenodd" fill-opacity="1" /><path clip-path="url(#clip400)" d="M 0 0 M1945.95 198.346 L1950.21 198.346 L1950.21 224.272 L1945.95 224.272 L1945.95 198.346 M1945.95 188.254 L1950.21 188.254 L1950.21 193.647 L1945.95 193.647 L1945.95 188.254 Z" fill="#000000" fill-rule="evenodd" fill-opacity="1" /><path clip-path="url(#clip400)" d="M 0 0 M1974.86 203.323 Q1976.46 200.453 1978.68 199.087 Q1980.91 197.721 1983.91 197.721 Q1987.97 197.721 1990.16 200.569 Q1992.36 203.393 1992.36 208.624 L1992.36 224.272 L1988.08 224.272 L1988.08 208.763 Q1988.08 205.036 1986.76 203.231 Q1985.44 201.425 1982.73 201.425 Q1979.42 201.425 1977.5 203.624 Q1975.58 205.823 1975.58 209.619 L1975.58 224.272 L1971.3 224.272 L1971.3 208.763 Q1971.3 205.013 1969.98 203.231 Q1968.66 201.425 1965.91 201.425 Q1962.64 201.425 1960.72 203.647 Q1958.8 205.846 1958.8 209.619 L1958.8 224.272 L1954.52 224.272 L1954.52 198.346 L1958.8 198.346 L1958.8 202.374 Q1960.26 199.99 1962.29 198.856 Q1964.33 197.721 1967.13 197.721 Q1969.96 197.721 1971.92 199.157 Q1973.91 200.592 1974.86 203.323 Z" fill="#000000" fill-rule="evenodd" fill-opacity="1" /><path clip-path="url(#clip400)" d="M 0 0 M2008.61 211.24 Q2003.45 211.24 2001.46 212.42 Q1999.47 213.601 1999.47 216.448 Q1999.47 218.717 2000.95 220.059 Q2002.46 221.379 2005.03 221.379 Q2008.57 221.379 2010.7 218.879 Q2012.85 216.356 2012.85 212.189 L2012.85 211.24 L2008.61 211.24 M2017.11 209.481 L2017.11 224.272 L2012.85 224.272 L2012.85 220.337 Q2011.39 222.698 2009.22 223.832 Q2007.04 224.943 2003.89 224.943 Q1999.91 224.943 1997.55 222.721 Q1995.21 220.476 1995.21 216.726 Q1995.21 212.351 1998.13 210.129 Q2001.07 207.906 2006.88 207.906 L2012.85 207.906 L2012.85 207.49 Q2012.85 204.55 2010.91 202.953 Q2008.98 201.332 2005.49 201.332 Q2003.27 201.332 2001.16 201.865 Q1999.05 202.397 1997.11 203.462 L1997.11 199.527 Q1999.45 198.624 2001.65 198.184 Q2003.85 197.721 2005.93 197.721 Q2011.55 197.721 2014.33 200.638 Q2017.11 203.555 2017.11 209.481 Z" fill="#000000" fill-rule="evenodd" fill-opacity="1" /><path clip-path="url(#clip400)" d="M 0 0 M2025.79 190.985 L2025.79 198.346 L2034.56 198.346 L2034.56 201.657 L2025.79 201.657 L2025.79 215.731 Q2025.79 218.902 2026.65 219.805 Q2027.53 220.707 2030.19 220.707 L2034.56 220.707 L2034.56 224.272 L2030.19 224.272 Q2025.26 224.272 2023.38 222.443 Q2021.51 220.592 2021.51 215.731 L2021.51 201.657 L2018.38 201.657 L2018.38 198.346 L2021.51 198.346 L2021.51 190.985 L2025.79 190.985 Z" fill="#000000" fill-rule="evenodd" fill-opacity="1" /><path clip-path="url(#clip400)" d="M 0 0 M2061.21 210.244 L2061.21 212.328 L2041.62 212.328 Q2041.9 216.726 2044.26 219.041 Q2046.65 221.332 2050.88 221.332 Q2053.34 221.332 2055.63 220.73 Q2057.94 220.129 2060.21 218.925 L2060.21 222.953 Q2057.92 223.925 2055.51 224.434 Q2053.1 224.943 2050.63 224.943 Q2044.42 224.943 2040.79 221.332 Q2037.18 217.721 2037.18 211.564 Q2037.18 205.198 2040.6 201.471 Q2044.05 197.721 2049.89 197.721 Q2055.12 197.721 2058.15 201.101 Q2061.21 204.457 2061.21 210.244 M2056.95 208.994 Q2056.9 205.499 2054.98 203.416 Q2053.08 201.332 2049.93 201.332 Q2046.37 201.332 2044.22 203.346 Q2042.09 205.36 2041.76 209.018 L2056.95 208.994 Z" fill="#000000" fill-rule="evenodd" fill-opacity="1" /><path clip-path="url(#clip400)" d="M 0 0 M2065.86 189.712 L2072.83 189.712 L2081.65 213.231 L2090.51 189.712 L2097.48 189.712 L2097.48 224.272 L2092.92 224.272 L2092.92 193.925 L2084.01 217.629 L2079.31 217.629 L2070.4 193.925 L2070.4 224.272 L2065.86 224.272 L2065.86 189.712 Z" fill="#000000" fill-rule="evenodd" fill-opacity="1" /><path clip-path="url(#clip400)" d="M 0 0 M2113.73 211.24 Q2108.57 211.24 2106.58 212.42 Q2104.59 213.601 2104.59 216.448 Q2104.59 218.717 2106.07 220.059 Q2107.57 221.379 2110.14 221.379 Q2113.68 221.379 2115.81 218.879 Q2117.96 216.356 2117.96 212.189 L2117.96 211.24 L2113.73 211.24 M2122.22 209.481 L2122.22 224.272 L2117.96 224.272 L2117.96 220.337 Q2116.51 222.698 2114.33 223.832 Q2112.15 224.943 2109.01 224.943 Q2105.03 224.943 2102.66 222.721 Q2100.33 220.476 2100.33 216.726 Q2100.33 212.351 2103.24 210.129 Q2106.18 207.906 2111.99 207.906 L2117.96 207.906 L2117.96 207.49 Q2117.96 204.55 2116.02 202.953 Q2114.1 201.332 2110.6 201.332 Q2108.38 201.332 2106.28 201.865 Q2104.17 202.397 2102.22 203.462 L2102.22 199.527 Q2104.56 198.624 2106.76 198.184 Q2108.96 197.721 2111.04 197.721 Q2116.67 197.721 2119.45 200.638 Q2122.22 203.555 2122.22 209.481 Z" fill="#000000" fill-rule="evenodd" fill-opacity="1" /><path clip-path="url(#clip400)" d="M 0 0 M2145.35 199.342 L2145.35 203.323 Q2143.54 202.328 2141.71 201.842 Q2139.91 201.332 2138.06 201.332 Q2133.91 201.332 2131.62 203.971 Q2129.33 206.587 2129.33 211.332 Q2129.33 216.078 2131.62 218.717 Q2133.91 221.332 2138.06 221.332 Q2139.91 221.332 2141.71 220.846 Q2143.54 220.337 2145.35 219.342 L2145.35 223.277 Q2143.57 224.11 2141.65 224.527 Q2139.75 224.943 2137.59 224.943 Q2131.74 224.943 2128.29 221.263 Q2124.84 217.582 2124.84 211.332 Q2124.84 204.99 2128.31 201.356 Q2131.81 197.721 2137.87 197.721 Q2139.84 197.721 2141.71 198.138 Q2143.59 198.532 2145.35 199.342 Z" fill="#000000" fill-rule="evenodd" fill-opacity="1" /><path clip-path="url(#clip400)" d="M 0 0 M2171.37 208.624 L2171.37 224.272 L2167.11 224.272 L2167.11 208.763 Q2167.11 205.082 2165.67 203.254 Q2164.24 201.425 2161.37 201.425 Q2157.92 201.425 2155.93 203.624 Q2153.94 205.823 2153.94 209.619 L2153.94 224.272 L2149.65 224.272 L2149.65 188.254 L2153.94 188.254 L2153.94 202.374 Q2155.46 200.036 2157.52 198.879 Q2159.61 197.721 2162.32 197.721 Q2166.78 197.721 2169.08 200.499 Q2171.37 203.254 2171.37 208.624 Z" fill="#000000" fill-rule="evenodd" fill-opacity="1" /><path clip-path="url(#clip400)" d="M 0 0 M2175.83 198.346 L2180.09 198.346 L2180.09 224.272 L2175.83 224.272 L2175.83 198.346 M2175.83 188.254 L2180.09 188.254 L2180.09 193.647 L2175.83 193.647 L2175.83 188.254 Z" fill="#000000" fill-rule="evenodd" fill-opacity="1" /><path clip-path="url(#clip400)" d="M 0 0 M2206.11 208.624 L2206.11 224.272 L2201.85 224.272 L2201.85 208.763 Q2201.85 205.082 2200.42 203.254 Q2198.98 201.425 2196.11 201.425 Q2192.66 201.425 2190.67 203.624 Q2188.68 205.823 2188.68 209.619 L2188.68 224.272 L2184.4 224.272 L2184.4 198.346 L2188.68 198.346 L2188.68 202.374 Q2190.21 200.036 2192.27 198.879 Q2194.35 197.721 2197.06 197.721 Q2201.53 197.721 2203.82 200.499 Q2206.11 203.254 2206.11 208.624 Z" fill="#000000" fill-rule="evenodd" fill-opacity="1" /><path clip-path="url(#clip400)" d="M 0 0 M2232.76 210.244 L2232.76 212.328 L2213.17 212.328 Q2213.45 216.726 2215.81 219.041 Q2218.2 221.332 2222.43 221.332 Q2224.89 221.332 2227.18 220.73 Q2229.49 220.129 2231.76 218.925 L2231.76 222.953 Q2229.47 223.925 2227.06 224.434 Q2224.65 224.943 2222.18 224.943 Q2215.97 224.943 2212.34 221.332 Q2208.73 217.721 2208.73 211.564 Q2208.73 205.198 2212.15 201.471 Q2215.6 197.721 2221.44 197.721 Q2226.67 197.721 2229.7 201.101 Q2232.76 204.457 2232.76 210.244 M2228.5 208.994 Q2228.45 205.499 2226.53 203.416 Q2224.63 201.332 2221.48 201.332 Q2217.92 201.332 2215.77 203.346 Q2213.64 205.36 2213.31 209.018 L2228.5 208.994 Z" fill="#000000" fill-rule="evenodd" fill-opacity="1" /><polyline clip-path="url(#clip400)" style="stroke:#e26f46; stroke-width:4; stroke-opacity:1; fill:none" points="
  1736.89,267.472 1880.89,267.472 
  "/>
<path clip-path="url(#clip400)" d="M 0 0 M1904.89 250.192 L1926.74 250.192 L1926.74 254.127 L1909.56 254.127 L1909.56 264.359 L1926.02 264.359 L1926.02 268.294 L1909.56 268.294 L1909.56 280.817 L1927.16 280.817 L1927.16 284.752 L1904.89 284.752 L1904.89 250.192 Z" fill="#000000" fill-rule="evenodd" fill-opacity="1" /><path clip-path="url(#clip400)" d="M 0 0 M1951.81 263.803 Q1953.41 260.933 1955.63 259.567 Q1957.85 258.201 1960.86 258.201 Q1964.91 258.201 1967.11 261.049 Q1969.31 263.873 1969.31 269.104 L1969.31 284.752 L1965.03 284.752 L1965.03 269.243 Q1965.03 265.516 1963.71 263.711 Q1962.39 261.905 1959.68 261.905 Q1956.37 261.905 1954.45 264.104 Q1952.53 266.303 1952.53 270.099 L1952.53 284.752 L1948.24 284.752 L1948.24 269.243 Q1948.24 265.493 1946.92 263.711 Q1945.6 261.905 1942.85 261.905 Q1939.59 261.905 1937.66 264.127 Q1935.74 266.326 1935.74 270.099 L1935.74 284.752 L1931.46 284.752 L1931.46 258.826 L1935.74 258.826 L1935.74 262.854 Q1937.2 260.47 1939.24 259.336 Q1941.28 258.201 1944.08 258.201 Q1946.9 258.201 1948.87 259.637 Q1950.86 261.072 1951.81 263.803 Z" fill="#000000" fill-rule="evenodd" fill-opacity="1" /><path clip-path="url(#clip400)" d="M 0 0 M1977.9 280.863 L1977.9 294.613 L1973.61 294.613 L1973.61 258.826 L1977.9 258.826 L1977.9 262.762 Q1979.24 260.447 1981.28 259.336 Q1983.34 258.201 1986.18 258.201 Q1990.91 258.201 1993.85 261.951 Q1996.81 265.701 1996.81 271.812 Q1996.81 277.923 1993.85 281.673 Q1990.91 285.423 1986.18 285.423 Q1983.34 285.423 1981.28 284.312 Q1979.24 283.178 1977.9 280.863 M1992.39 271.812 Q1992.39 267.113 1990.44 264.451 Q1988.52 261.766 1985.14 261.766 Q1981.76 261.766 1979.82 264.451 Q1977.9 267.113 1977.9 271.812 Q1977.9 276.511 1979.82 279.197 Q1981.76 281.859 1985.14 281.859 Q1988.52 281.859 1990.44 279.197 Q1992.39 276.511 1992.39 271.812 Z" fill="#000000" fill-rule="evenodd" fill-opacity="1" /><path clip-path="url(#clip400)" d="M 0 0 M2001.28 258.826 L2005.53 258.826 L2005.53 284.752 L2001.28 284.752 L2001.28 258.826 M2001.28 248.734 L2005.53 248.734 L2005.53 254.127 L2001.28 254.127 L2001.28 248.734 Z" fill="#000000" fill-rule="evenodd" fill-opacity="1" /><path clip-path="url(#clip400)" d="M 0 0 M2025.03 262.808 Q2024.31 262.391 2023.45 262.206 Q2022.62 261.998 2021.6 261.998 Q2017.99 261.998 2016.04 264.359 Q2014.12 266.697 2014.12 271.095 L2014.12 284.752 L2009.84 284.752 L2009.84 258.826 L2014.12 258.826 L2014.12 262.854 Q2015.47 260.493 2017.62 259.359 Q2019.77 258.201 2022.85 258.201 Q2023.29 258.201 2023.82 258.271 Q2024.35 258.317 2025 258.433 L2025.03 262.808 Z" fill="#000000" fill-rule="evenodd" fill-opacity="1" /><path clip-path="url(#clip400)" d="M 0 0 M2029.49 258.826 L2033.75 258.826 L2033.75 284.752 L2029.49 284.752 L2029.49 258.826 M2029.49 248.734 L2033.75 248.734 L2033.75 254.127 L2029.49 254.127 L2029.49 248.734 Z" fill="#000000" fill-rule="evenodd" fill-opacity="1" /><path clip-path="url(#clip400)" d="M 0 0 M2056.88 259.822 L2056.88 263.803 Q2055.07 262.808 2053.24 262.322 Q2051.44 261.812 2049.59 261.812 Q2045.44 261.812 2043.15 264.451 Q2040.86 267.067 2040.86 271.812 Q2040.86 276.558 2043.15 279.197 Q2045.44 281.812 2049.59 281.812 Q2051.44 281.812 2053.24 281.326 Q2055.07 280.817 2056.88 279.822 L2056.88 283.757 Q2055.09 284.59 2053.17 285.007 Q2051.28 285.423 2049.12 285.423 Q2043.27 285.423 2039.82 281.743 Q2036.37 278.062 2036.37 271.812 Q2036.37 265.47 2039.84 261.836 Q2043.34 258.201 2049.4 258.201 Q2051.37 258.201 2053.24 258.618 Q2055.12 259.012 2056.88 259.822 Z" fill="#000000" fill-rule="evenodd" fill-opacity="1" /><path clip-path="url(#clip400)" d="M 0 0 M2073.13 271.72 Q2067.97 271.72 2065.97 272.9 Q2063.98 274.081 2063.98 276.928 Q2063.98 279.197 2065.47 280.539 Q2066.97 281.859 2069.54 281.859 Q2073.08 281.859 2075.21 279.359 Q2077.36 276.836 2077.36 272.669 L2077.36 271.72 L2073.13 271.72 M2081.62 269.961 L2081.62 284.752 L2077.36 284.752 L2077.36 280.817 Q2075.9 283.178 2073.73 284.312 Q2071.55 285.423 2068.4 285.423 Q2064.42 285.423 2062.06 283.201 Q2059.72 280.956 2059.72 277.206 Q2059.72 272.831 2062.64 270.609 Q2065.58 268.386 2071.39 268.386 L2077.36 268.386 L2077.36 267.97 Q2077.36 265.03 2075.42 263.433 Q2073.5 261.812 2070 261.812 Q2067.78 261.812 2065.67 262.345 Q2063.57 262.877 2061.62 263.942 L2061.62 260.007 Q2063.96 259.104 2066.16 258.664 Q2068.36 258.201 2070.44 258.201 Q2076.07 258.201 2078.84 261.118 Q2081.62 264.035 2081.62 269.961 Z" fill="#000000" fill-rule="evenodd" fill-opacity="1" /><path clip-path="url(#clip400)" d="M 0 0 M2086.09 248.734 L2090.35 248.734 L2090.35 284.752 L2086.09 284.752 L2086.09 248.734 Z" fill="#000000" fill-rule="evenodd" fill-opacity="1" /></svg>
