<?xml version="1.0" encoding="utf-8"?>
<svg xmlns="http://www.w3.org/2000/svg" xmlns:xlink="http://www.w3.org/1999/xlink" width="600" height="400" viewBox="0 0 2400 1600">
<defs>
  <clipPath id="clip330">
    <rect x="0" y="0" width="2400" height="1600"/>
  </clipPath>
</defs>
<path clip-path="url(#clip330)" d="
M0 1600 L2400 1600 L2400 0 L0 0  Z
  " fill="#ffffff" fill-rule="evenodd" fill-opacity="1"/>
<defs>
  <clipPath id="clip331">
    <rect x="480" y="0" width="1681" height="1600"/>
  </clipPath>
</defs>
<path clip-path="url(#clip330)" d="
M102.74 1505.26 L2352.76 1505.26 L2352.76 62.9921 L102.74 62.9921  Z
  " fill="#ffffff" fill-rule="evenodd" fill-opacity="1"/>
<defs>
  <clipPath id="clip332">
    <rect x="102" y="62" width="2251" height="1443"/>
  </clipPath>
</defs>
<polyline clip-path="url(#clip332)" style="stroke:#000000; stroke-width:2; stroke-opacity:0.1; fill:none" points="
  166.416,1505.26 166.416,62.9921 
  "/>
<polyline clip-path="url(#clip332)" style="stroke:#000000; stroke-width:2; stroke-opacity:0.1; fill:none" points="
  590.948,1505.26 590.948,62.9921 
  "/>
<polyline clip-path="url(#clip332)" style="stroke:#000000; stroke-width:2; stroke-opacity:0.1; fill:none" points="
  1015.48,1505.26 1015.48,62.9921 
  "/>
<polyline clip-path="url(#clip332)" style="stroke:#000000; stroke-width:2; stroke-opacity:0.1; fill:none" points="
  1440.01,1505.26 1440.01,62.9921 
  "/>
<polyline clip-path="url(#clip332)" style="stroke:#000000; stroke-width:2; stroke-opacity:0.1; fill:none" points="
  1864.54,1505.26 1864.54,62.9921 
  "/>
<polyline clip-path="url(#clip332)" style="stroke:#000000; stroke-width:2; stroke-opacity:0.1; fill:none" points="
  2289.08,1505.26 2289.08,62.9921 
  "/>
<polyline clip-path="url(#clip332)" style="stroke:#000000; stroke-width:2; stroke-opacity:0.1; fill:none" points="
  102.74,1387.49 2352.76,1387.49 
  "/>
<polyline clip-path="url(#clip332)" style="stroke:#000000; stroke-width:2; stroke-opacity:0.1; fill:none" points="
  102.74,1066.51 2352.76,1066.51 
  "/>
<polyline clip-path="url(#clip332)" style="stroke:#000000; stroke-width:2; stroke-opacity:0.1; fill:none" points="
  102.74,745.52 2352.76,745.52 
  "/>
<polyline clip-path="url(#clip332)" style="stroke:#000000; stroke-width:2; stroke-opacity:0.1; fill:none" points="
  102.74,424.533 2352.76,424.533 
  "/>
<polyline clip-path="url(#clip332)" style="stroke:#000000; stroke-width:2; stroke-opacity:0.1; fill:none" points="
  102.74,103.546 2352.76,103.546 
  "/>
<polyline clip-path="url(#clip330)" style="stroke:#000000; stroke-width:4; stroke-opacity:1; fill:none" points="
  102.74,1505.26 2352.76,1505.26 
  "/>
<polyline clip-path="url(#clip330)" style="stroke:#000000; stroke-width:4; stroke-opacity:1; fill:none" points="
  102.74,1505.26 102.74,62.9921 
  "/>
<polyline clip-path="url(#clip330)" style="stroke:#000000; stroke-width:4; stroke-opacity:1; fill:none" points="
  166.416,1505.26 166.416,1487.95 
  "/>
<polyline clip-path="url(#clip330)" style="stroke:#000000; stroke-width:4; stroke-opacity:1; fill:none" points="
  590.948,1505.26 590.948,1487.95 
  "/>
<polyline clip-path="url(#clip330)" style="stroke:#000000; stroke-width:4; stroke-opacity:1; fill:none" points="
  1015.48,1505.26 1015.48,1487.95 
  "/>
<polyline clip-path="url(#clip330)" style="stroke:#000000; stroke-width:4; stroke-opacity:1; fill:none" points="
  1440.01,1505.26 1440.01,1487.95 
  "/>
<polyline clip-path="url(#clip330)" style="stroke:#000000; stroke-width:4; stroke-opacity:1; fill:none" points="
  1864.54,1505.26 1864.54,1487.95 
  "/>
<polyline clip-path="url(#clip330)" style="stroke:#000000; stroke-width:4; stroke-opacity:1; fill:none" points="
  2289.08,1505.26 2289.08,1487.95 
  "/>
<polyline clip-path="url(#clip330)" style="stroke:#000000; stroke-width:4; stroke-opacity:1; fill:none" points="
  102.74,1387.49 129.74,1387.49 
  "/>
<polyline clip-path="url(#clip330)" style="stroke:#000000; stroke-width:4; stroke-opacity:1; fill:none" points="
  102.74,1066.51 129.74,1066.51 
  "/>
<polyline clip-path="url(#clip330)" style="stroke:#000000; stroke-width:4; stroke-opacity:1; fill:none" points="
  102.74,745.52 129.74,745.52 
  "/>
<polyline clip-path="url(#clip330)" style="stroke:#000000; stroke-width:4; stroke-opacity:1; fill:none" points="
  102.74,424.533 129.74,424.533 
  "/>
<polyline clip-path="url(#clip330)" style="stroke:#000000; stroke-width:4; stroke-opacity:1; fill:none" points="
  102.74,103.546 129.74,103.546 
  "/>
<path clip-path="url(#clip330)" d="M 0 0 M166.416 1527.25 Q162.805 1527.25 160.976 1530.82 Q159.17 1534.36 159.17 1541.49 Q159.17 1548.59 160.976 1552.16 Q162.805 1555.7 166.416 1555.7 Q170.05 1555.7 171.855 1552.16 Q173.684 1548.59 173.684 1541.49 Q173.684 1534.36 171.855 1530.82 Q170.05 1527.25 166.416 1527.25 M166.416 1523.55 Q172.226 1523.55 175.281 1528.15 Q178.36 1532.74 178.36 1541.49 Q178.36 1550.21 175.281 1554.82 Q172.226 1559.4 166.416 1559.4 Q160.605 1559.4 157.527 1554.82 Q154.471 1550.21 154.471 1541.49 Q154.471 1532.74 157.527 1528.15 Q160.605 1523.55 166.416 1523.55 Z" fill="#000000" fill-rule="evenodd" fill-opacity="1" /><path clip-path="url(#clip330)" d="M 0 0 M581.33 1554.8 L588.969 1554.8 L588.969 1528.43 L580.658 1530.1 L580.658 1525.84 L588.922 1524.17 L593.598 1524.17 L593.598 1554.8 L601.237 1554.8 L601.237 1558.73 L581.33 1558.73 L581.33 1554.8 Z" fill="#000000" fill-rule="evenodd" fill-opacity="1" /><path clip-path="url(#clip330)" d="M 0 0 M1010.13 1554.8 L1026.45 1554.8 L1026.45 1558.73 L1004.51 1558.73 L1004.51 1554.8 Q1007.17 1552.04 1011.75 1547.41 Q1016.36 1542.76 1017.54 1541.42 Q1019.79 1538.89 1020.67 1537.16 Q1021.57 1535.4 1021.57 1533.71 Q1021.57 1530.95 1019.62 1529.22 Q1017.7 1527.48 1014.6 1527.48 Q1012.4 1527.48 1009.95 1528.25 Q1007.52 1529.01 1004.74 1530.56 L1004.74 1525.84 Q1007.56 1524.7 1010.02 1524.13 Q1012.47 1523.55 1014.51 1523.55 Q1019.88 1523.55 1023.07 1526.23 Q1026.27 1528.92 1026.27 1533.41 Q1026.27 1535.54 1025.46 1537.46 Q1024.67 1539.36 1022.56 1541.95 Q1021.98 1542.62 1018.88 1545.84 Q1015.78 1549.03 1010.13 1554.8 Z" fill="#000000" fill-rule="evenodd" fill-opacity="1" /><path clip-path="url(#clip330)" d="M 0 0 M1444.26 1540.1 Q1447.62 1540.82 1449.49 1543.08 Q1451.39 1545.35 1451.39 1548.69 Q1451.39 1553.8 1447.87 1556.6 Q1444.35 1559.4 1437.87 1559.4 Q1435.69 1559.4 1433.38 1558.96 Q1431.09 1558.55 1428.63 1557.69 L1428.63 1553.18 Q1430.58 1554.31 1432.89 1554.89 Q1435.21 1555.47 1437.73 1555.47 Q1442.13 1555.47 1444.42 1553.73 Q1446.74 1552 1446.74 1548.69 Q1446.74 1545.63 1444.58 1543.92 Q1442.45 1542.18 1438.63 1542.18 L1434.61 1542.18 L1434.61 1538.34 L1438.82 1538.34 Q1442.27 1538.34 1444.1 1536.97 Q1445.93 1535.58 1445.93 1532.99 Q1445.93 1530.33 1444.03 1528.92 Q1442.15 1527.48 1438.63 1527.48 Q1436.71 1527.48 1434.51 1527.9 Q1432.32 1528.32 1429.68 1529.19 L1429.68 1525.03 Q1432.34 1524.29 1434.65 1523.92 Q1436.99 1523.55 1439.05 1523.55 Q1444.38 1523.55 1447.48 1525.98 Q1450.58 1528.38 1450.58 1532.51 Q1450.58 1535.38 1448.94 1537.37 Q1447.29 1539.33 1444.26 1540.1 Z" fill="#000000" fill-rule="evenodd" fill-opacity="1" /><path clip-path="url(#clip330)" d="M 0 0 M1867.55 1528.25 L1855.75 1546.69 L1867.55 1546.69 L1867.55 1528.25 M1866.33 1524.17 L1872.21 1524.17 L1872.21 1546.69 L1877.14 1546.69 L1877.14 1550.58 L1872.21 1550.58 L1872.21 1558.73 L1867.55 1558.73 L1867.55 1550.58 L1851.95 1550.58 L1851.95 1546.07 L1866.33 1524.17 Z" fill="#000000" fill-rule="evenodd" fill-opacity="1" /><path clip-path="url(#clip330)" d="M 0 0 M2279.35 1524.17 L2297.71 1524.17 L2297.71 1528.11 L2283.64 1528.11 L2283.64 1536.58 Q2284.65 1536.23 2285.67 1536.07 Q2286.69 1535.88 2287.71 1535.88 Q2293.5 1535.88 2296.88 1539.06 Q2300.26 1542.23 2300.26 1547.64 Q2300.26 1553.22 2296.78 1556.32 Q2293.31 1559.4 2286.99 1559.4 Q2284.82 1559.4 2282.55 1559.03 Q2280.3 1558.66 2277.9 1557.92 L2277.9 1553.22 Q2279.98 1554.36 2282.2 1554.91 Q2284.42 1555.47 2286.9 1555.47 Q2290.9 1555.47 2293.24 1553.36 Q2295.58 1551.26 2295.58 1547.64 Q2295.58 1544.03 2293.24 1541.93 Q2290.9 1539.82 2286.9 1539.82 Q2285.03 1539.82 2283.15 1540.24 Q2281.3 1540.65 2279.35 1541.53 L2279.35 1524.17 Z" fill="#000000" fill-rule="evenodd" fill-opacity="1" /><path clip-path="url(#clip330)" d="M 0 0 M-138.168 1396.34 L-125.692 1396.34 L-125.692 1400.13 L-138.168 1400.13 L-138.168 1396.34 Z" fill="#000000" fill-rule="evenodd" fill-opacity="1" /><path clip-path="url(#clip330)" d="M 0 0 M-102.868 1407.29 L-86.5483 1407.29 L-86.5483 1411.22 L-108.493 1411.22 L-108.493 1407.29 Q-105.831 1404.53 -101.247 1399.9 Q-96.6408 1395.25 -95.4603 1393.91 Q-93.2149 1391.38 -92.3353 1389.65 Q-91.4325 1387.89 -91.4325 1386.2 Q-91.4325 1383.44 -93.377 1381.71 Q-95.2983 1379.97 -98.4001 1379.97 Q-100.599 1379.97 -103.053 1380.74 Q-105.483 1381.5 -108.261 1383.05 L-108.261 1378.33 Q-105.437 1377.19 -102.983 1376.62 Q-100.53 1376.04 -98.4927 1376.04 Q-93.1223 1376.04 -89.9279 1378.72 Q-86.7335 1381.41 -86.7335 1385.9 Q-86.7335 1388.03 -87.5437 1389.95 Q-88.3307 1391.85 -90.4372 1394.44 Q-91.0159 1395.11 -94.1177 1398.33 Q-97.2195 1401.52 -102.868 1407.29 Z" fill="#000000" fill-rule="evenodd" fill-opacity="1" /><path clip-path="url(#clip330)" d="M 0 0 M-81.4789 1405.34 L-76.5947 1405.34 L-76.5947 1411.22 L-81.4789 1411.22 L-81.4789 1405.34 Z" fill="#000000" fill-rule="evenodd" fill-opacity="1" /><path clip-path="url(#clip330)" d="M 0 0 M-61.5253 1379.74 Q-65.1364 1379.74 -66.9651 1383.31 Q-68.7706 1386.85 -68.7706 1393.98 Q-68.7706 1401.08 -66.9651 1404.65 Q-65.1364 1408.19 -61.5253 1408.19 Q-57.8911 1408.19 -56.0855 1404.65 Q-54.2568 1401.08 -54.2568 1393.98 Q-54.2568 1386.85 -56.0855 1383.31 Q-57.8911 1379.74 -61.5253 1379.74 M-61.5253 1376.04 Q-55.7151 1376.04 -52.6596 1380.64 Q-49.5809 1385.23 -49.5809 1393.98 Q-49.5809 1402.7 -52.6596 1407.31 Q-55.7151 1411.89 -61.5253 1411.89 Q-67.3354 1411.89 -70.4141 1407.31 Q-73.4697 1402.7 -73.4697 1393.98 Q-73.4697 1385.23 -70.4141 1380.64 Q-67.3354 1376.04 -61.5253 1376.04 Z" fill="#000000" fill-rule="evenodd" fill-opacity="1" /><path clip-path="url(#clip330)" d="M 0 0 M-16.3404 1385.76 L-26.919 1396.38 L-16.3404 1406.96 L-19.095 1409.76 L-29.7199 1399.14 L-40.3449 1409.76 L-43.0763 1406.96 L-32.5208 1396.38 L-43.0763 1385.76 L-40.3449 1382.96 L-29.7199 1393.58 L-19.095 1382.96 L-16.3404 1385.76 Z" fill="#000000" fill-rule="evenodd" fill-opacity="1" /><path clip-path="url(#clip330)" d="M 0 0 M-10.4608 1407.29 L-2.82191 1407.29 L-2.82191 1380.92 L-11.132 1382.59 L-11.132 1378.33 L-2.8682 1376.66 L1.8077 1376.66 L1.8077 1407.29 L9.44655 1407.29 L9.44655 1411.22 L-10.4608 1411.22 L-10.4608 1407.29 Z" fill="#000000" fill-rule="evenodd" fill-opacity="1" /><path clip-path="url(#clip330)" d="M 0 0 M24.5159 1379.74 Q20.9048 1379.74 19.0761 1383.31 Q17.2706 1386.85 17.2706 1393.98 Q17.2706 1401.08 19.0761 1404.65 Q20.9048 1408.19 24.5159 1408.19 Q28.1502 1408.19 29.9557 1404.65 Q31.7844 1401.08 31.7844 1393.98 Q31.7844 1386.85 29.9557 1383.31 Q28.1502 1379.74 24.5159 1379.74 M24.5159 1376.04 Q30.3261 1376.04 33.3816 1380.64 Q36.4603 1385.23 36.4603 1393.98 Q36.4603 1402.7 33.3816 1407.31 Q30.3261 1411.89 24.5159 1411.89 Q18.7058 1411.89 15.6271 1407.31 Q12.5715 1402.7 12.5715 1393.98 Q12.5715 1385.23 15.6271 1380.64 Q18.7058 1376.04 24.5159 1376.04 Z" fill="#000000" fill-rule="evenodd" fill-opacity="1" /><path clip-path="url(#clip330)" d="M 0 0 M36.4603 1371.72 L46.5977 1371.72 L46.5977 1374.8 L36.4603 1374.8 L36.4603 1371.72 Z" fill="#000000" fill-rule="evenodd" fill-opacity="1" /><path clip-path="url(#clip330)" d="M 0 0 M61.7567 1355.73 L76.6713 1355.73 L76.6713 1358.93 L65.2362 1358.93 L65.2362 1365.81 Q66.0637 1365.53 66.8913 1365.4 Q67.7188 1365.25 68.5463 1365.25 Q73.2483 1365.25 75.9942 1367.83 Q78.7402 1370.4 78.7402 1374.8 Q78.7402 1379.34 75.919 1381.86 Q73.0978 1384.36 67.9633 1384.36 Q66.1954 1384.36 64.3522 1384.06 Q62.5279 1383.76 60.5719 1383.15 L60.5719 1379.34 Q62.2646 1380.26 64.0701 1380.71 Q65.8756 1381.16 67.8881 1381.16 Q71.1418 1381.16 73.0414 1379.45 Q74.941 1377.74 74.941 1374.8 Q74.941 1371.87 73.0414 1370.16 Q71.1418 1368.45 67.8881 1368.45 Q66.3646 1368.45 64.8412 1368.78 Q63.3366 1369.12 61.7567 1369.84 L61.7567 1355.73 Z" fill="#000000" fill-rule="evenodd" fill-opacity="1" /><path clip-path="url(#clip330)" d="M 0 0 M-135.807 1075.35 L-123.331 1075.35 L-123.331 1079.15 L-135.807 1079.15 L-135.807 1075.35 Z" fill="#000000" fill-rule="evenodd" fill-opacity="1" /><path clip-path="url(#clip330)" d="M 0 0 M-105.46 1086.3 L-97.8214 1086.3 L-97.8214 1059.93 L-106.132 1061.6 L-106.132 1057.34 L-97.8677 1055.68 L-93.1918 1055.68 L-93.1918 1086.3 L-85.5529 1086.3 L-85.5529 1090.24 L-105.46 1090.24 L-105.46 1086.3 Z" fill="#000000" fill-rule="evenodd" fill-opacity="1" /><path clip-path="url(#clip330)" d="M 0 0 M-80.4835 1084.36 L-75.5993 1084.36 L-75.5993 1090.24 L-80.4835 1090.24 L-80.4835 1084.36 Z" fill="#000000" fill-rule="evenodd" fill-opacity="1" /><path clip-path="url(#clip330)" d="M 0 0 M-70.4836 1055.68 L-52.1272 1055.68 L-52.1272 1059.61 L-66.2012 1059.61 L-66.2012 1068.08 Q-65.1827 1067.74 -64.1642 1067.57 Q-63.1457 1067.39 -62.1271 1067.39 Q-56.3401 1067.39 -52.9605 1070.56 Q-49.5809 1073.73 -49.5809 1079.15 Q-49.5809 1084.73 -53.0531 1087.83 Q-56.5253 1090.91 -62.8447 1090.91 Q-65.0206 1090.91 -67.2892 1090.54 Q-69.5345 1090.17 -71.9419 1089.43 L-71.9419 1084.73 Q-69.8586 1085.86 -67.6364 1086.42 Q-65.4142 1086.97 -62.9373 1086.97 Q-58.9327 1086.97 -56.5948 1084.86 Q-54.2568 1082.76 -54.2568 1079.15 Q-54.2568 1075.54 -56.5948 1073.43 Q-58.9327 1071.32 -62.9373 1071.32 Q-64.8123 1071.32 -66.6873 1071.74 Q-68.5391 1072.16 -70.4836 1073.04 L-70.4836 1055.68 Z" fill="#000000" fill-rule="evenodd" fill-opacity="1" /><path clip-path="url(#clip330)" d="M 0 0 M-16.3404 1064.77 L-26.919 1075.4 L-16.3404 1085.98 L-19.095 1088.78 L-29.7199 1078.15 L-40.3449 1088.78 L-43.0763 1085.98 L-32.5208 1075.4 L-43.0763 1064.77 L-40.3449 1061.97 L-29.7199 1072.6 L-19.095 1061.97 L-16.3404 1064.77 Z" fill="#000000" fill-rule="evenodd" fill-opacity="1" /><path clip-path="url(#clip330)" d="M 0 0 M-10.4608 1086.3 L-2.82191 1086.3 L-2.82191 1059.93 L-11.132 1061.6 L-11.132 1057.34 L-2.8682 1055.68 L1.8077 1055.68 L1.8077 1086.3 L9.44655 1086.3 L9.44655 1090.24 L-10.4608 1090.24 L-10.4608 1086.3 Z" fill="#000000" fill-rule="evenodd" fill-opacity="1" /><path clip-path="url(#clip330)" d="M 0 0 M24.5159 1058.75 Q20.9048 1058.75 19.0761 1062.32 Q17.2706 1065.86 17.2706 1072.99 Q17.2706 1080.1 19.0761 1083.66 Q20.9048 1087.2 24.5159 1087.2 Q28.1502 1087.2 29.9557 1083.66 Q31.7844 1080.1 31.7844 1072.99 Q31.7844 1065.86 29.9557 1062.32 Q28.1502 1058.75 24.5159 1058.75 M24.5159 1055.05 Q30.3261 1055.05 33.3816 1059.66 Q36.4603 1064.24 36.4603 1072.99 Q36.4603 1081.72 33.3816 1086.32 Q30.3261 1090.91 24.5159 1090.91 Q18.7058 1090.91 15.6271 1086.32 Q12.5715 1081.72 12.5715 1072.99 Q12.5715 1064.24 15.6271 1059.66 Q18.7058 1055.05 24.5159 1055.05 Z" fill="#000000" fill-rule="evenodd" fill-opacity="1" /><path clip-path="url(#clip330)" d="M 0 0 M36.4603 1050.73 L46.5977 1050.73 L46.5977 1053.82 L36.4603 1053.82 L36.4603 1050.73 Z" fill="#000000" fill-rule="evenodd" fill-opacity="1" /><path clip-path="url(#clip330)" d="M 0 0 M61.7567 1034.74 L76.6713 1034.74 L76.6713 1037.94 L65.2362 1037.94 L65.2362 1044.83 Q66.0637 1044.54 66.8913 1044.41 Q67.7188 1044.26 68.5463 1044.26 Q73.2483 1044.26 75.9942 1046.84 Q78.7402 1049.41 78.7402 1053.82 Q78.7402 1058.35 75.919 1060.87 Q73.0978 1063.37 67.9633 1063.37 Q66.1954 1063.37 64.3522 1063.07 Q62.5279 1062.77 60.5719 1062.17 L60.5719 1058.35 Q62.2646 1059.27 64.0701 1059.72 Q65.8756 1060.17 67.8881 1060.17 Q71.1418 1060.17 73.0414 1058.46 Q74.941 1056.75 74.941 1053.82 Q74.941 1050.88 73.0414 1049.17 Q71.1418 1047.46 67.8881 1047.46 Q66.3646 1047.46 64.8412 1047.8 Q63.3366 1048.14 61.7567 1048.85 L61.7567 1034.74 Z" fill="#000000" fill-rule="evenodd" fill-opacity="1" /><path clip-path="url(#clip330)" d="M 0 0 M-136.803 754.364 L-124.326 754.364 L-124.326 758.16 L-136.803 758.16 L-136.803 754.364 Z" fill="#000000" fill-rule="evenodd" fill-opacity="1" /><path clip-path="url(#clip330)" d="M 0 0 M-106.456 765.313 L-98.8168 765.313 L-98.8168 738.947 L-107.127 740.614 L-107.127 736.355 L-98.8631 734.688 L-94.1872 734.688 L-94.1872 765.313 L-86.5483 765.313 L-86.5483 769.248 L-106.456 769.248 L-106.456 765.313 Z" fill="#000000" fill-rule="evenodd" fill-opacity="1" /><path clip-path="url(#clip330)" d="M 0 0 M-81.4789 763.368 L-76.5947 763.368 L-76.5947 769.248 L-81.4789 769.248 L-81.4789 763.368 Z" fill="#000000" fill-rule="evenodd" fill-opacity="1" /><path clip-path="url(#clip330)" d="M 0 0 M-61.5253 737.767 Q-65.1364 737.767 -66.9651 741.331 Q-68.7706 744.873 -68.7706 752.003 Q-68.7706 759.109 -66.9651 762.674 Q-65.1364 766.216 -61.5253 766.216 Q-57.8911 766.216 -56.0855 762.674 Q-54.2568 759.109 -54.2568 752.003 Q-54.2568 744.873 -56.0855 741.331 Q-57.8911 737.767 -61.5253 737.767 M-61.5253 734.063 Q-55.7151 734.063 -52.6596 738.669 Q-49.5809 743.253 -49.5809 752.003 Q-49.5809 760.73 -52.6596 765.336 Q-55.7151 769.919 -61.5253 769.919 Q-67.3354 769.919 -70.4141 765.336 Q-73.4697 760.73 -73.4697 752.003 Q-73.4697 743.253 -70.4141 738.669 Q-67.3354 734.063 -61.5253 734.063 Z" fill="#000000" fill-rule="evenodd" fill-opacity="1" /><path clip-path="url(#clip330)" d="M 0 0 M-16.3404 743.785 L-26.919 754.41 L-16.3404 764.989 L-19.095 767.79 L-29.7199 757.165 L-40.3449 767.79 L-43.0763 764.989 L-32.5208 754.41 L-43.0763 743.785 L-40.3449 740.984 L-29.7199 751.609 L-19.095 740.984 L-16.3404 743.785 Z" fill="#000000" fill-rule="evenodd" fill-opacity="1" /><path clip-path="url(#clip330)" d="M 0 0 M-10.4608 765.313 L-2.82191 765.313 L-2.82191 738.947 L-11.132 740.614 L-11.132 736.355 L-2.8682 734.688 L1.8077 734.688 L1.8077 765.313 L9.44655 765.313 L9.44655 769.248 L-10.4608 769.248 L-10.4608 765.313 Z" fill="#000000" fill-rule="evenodd" fill-opacity="1" /><path clip-path="url(#clip330)" d="M 0 0 M24.5159 737.767 Q20.9048 737.767 19.0761 741.331 Q17.2706 744.873 17.2706 752.003 Q17.2706 759.109 19.0761 762.674 Q20.9048 766.216 24.5159 766.216 Q28.1502 766.216 29.9557 762.674 Q31.7844 759.109 31.7844 752.003 Q31.7844 744.873 29.9557 741.331 Q28.1502 737.767 24.5159 737.767 M24.5159 734.063 Q30.3261 734.063 33.3816 738.669 Q36.4603 743.253 36.4603 752.003 Q36.4603 760.73 33.3816 765.336 Q30.3261 769.919 24.5159 769.919 Q18.7058 769.919 15.6271 765.336 Q12.5715 760.73 12.5715 752.003 Q12.5715 743.253 15.6271 738.669 Q18.7058 734.063 24.5159 734.063 Z" fill="#000000" fill-rule="evenodd" fill-opacity="1" /><path clip-path="url(#clip330)" d="M 0 0 M36.4603 729.744 L46.5977 729.744 L46.5977 732.829 L36.4603 732.829 L36.4603 729.744 Z" fill="#000000" fill-rule="evenodd" fill-opacity="1" /><path clip-path="url(#clip330)" d="M 0 0 M61.7567 713.758 L76.6713 713.758 L76.6713 716.955 L65.2362 716.955 L65.2362 723.839 Q66.0637 723.556 66.8913 723.425 Q67.7188 723.274 68.5463 723.274 Q73.2483 723.274 75.9942 725.851 Q78.7402 728.428 78.7402 732.829 Q78.7402 737.361 75.919 739.882 Q73.0978 742.383 67.9633 742.383 Q66.1954 742.383 64.3522 742.082 Q62.5279 741.781 60.5719 741.179 L60.5719 737.361 Q62.2646 738.283 64.0701 738.734 Q65.8756 739.186 67.8881 739.186 Q71.1418 739.186 73.0414 737.474 Q74.941 735.763 74.941 732.829 Q74.941 729.895 73.0414 728.183 Q71.1418 726.472 67.8881 726.472 Q66.3646 726.472 64.8412 726.81 Q63.3366 727.149 61.7567 727.863 L61.7567 713.758 Z" fill="#000000" fill-rule="evenodd" fill-opacity="1" /><path clip-path="url(#clip330)" d="M 0 0 M-139.808 433.377 L-127.331 433.377 L-127.331 437.173 L-139.808 437.173 L-139.808 433.377 Z" fill="#000000" fill-rule="evenodd" fill-opacity="1" /><path clip-path="url(#clip330)" d="M 0 0 M-108.673 413.701 L-90.3171 413.701 L-90.3171 417.636 L-104.391 417.636 L-104.391 426.108 Q-103.373 425.761 -102.354 425.599 Q-101.336 425.414 -100.317 425.414 Q-94.53 425.414 -91.1504 428.585 Q-87.7708 431.756 -87.7708 437.173 Q-87.7708 442.751 -91.243 445.853 Q-94.7152 448.932 -101.035 448.932 Q-103.211 448.932 -105.479 448.562 Q-107.724 448.191 -110.132 447.451 L-110.132 442.751 Q-108.048 443.886 -105.826 444.441 Q-103.604 444.997 -101.127 444.997 Q-97.1226 444.997 -94.7847 442.89 Q-92.4467 440.784 -92.4467 437.173 Q-92.4467 433.562 -94.7847 431.455 Q-97.1226 429.349 -101.127 429.349 Q-103.002 429.349 -104.877 429.765 Q-106.729 430.182 -108.673 431.062 L-108.673 413.701 Z" fill="#000000" fill-rule="evenodd" fill-opacity="1" /><path clip-path="url(#clip330)" d="M 0 0 M-82.7014 442.381 L-77.8172 442.381 L-77.8172 448.261 L-82.7014 448.261 L-82.7014 442.381 Z" fill="#000000" fill-rule="evenodd" fill-opacity="1" /><path clip-path="url(#clip330)" d="M 0 0 M-62.7478 416.779 Q-66.3589 416.779 -68.1876 420.344 Q-69.9931 423.886 -69.9931 431.015 Q-69.9931 438.122 -68.1876 441.687 Q-66.3589 445.228 -62.7478 445.228 Q-59.1136 445.228 -57.308 441.687 Q-55.4793 438.122 -55.4793 431.015 Q-55.4793 423.886 -57.308 420.344 Q-59.1136 416.779 -62.7478 416.779 M-62.7478 413.076 Q-56.9376 413.076 -53.8821 417.682 Q-50.8034 422.265 -50.8034 431.015 Q-50.8034 439.742 -53.8821 444.349 Q-56.9376 448.932 -62.7478 448.932 Q-68.558 448.932 -71.6366 444.349 Q-74.6922 439.742 -74.6922 431.015 Q-74.6922 422.265 -71.6366 417.682 Q-68.558 413.076 -62.7478 413.076 Z" fill="#000000" fill-rule="evenodd" fill-opacity="1" /><path clip-path="url(#clip330)" d="M 0 0 M-17.5629 422.798 L-28.1415 433.423 L-17.5629 444.001 L-20.3175 446.802 L-30.9424 436.177 L-41.5674 446.802 L-44.2988 444.001 L-33.7433 433.423 L-44.2988 422.798 L-41.5674 419.997 L-30.9424 430.622 L-20.3175 419.997 L-17.5629 422.798 Z" fill="#000000" fill-rule="evenodd" fill-opacity="1" /><path clip-path="url(#clip330)" d="M 0 0 M-11.6833 444.326 L-4.04441 444.326 L-4.04441 417.96 L-12.3546 419.627 L-12.3546 415.367 L-4.09071 413.701 L0.585194 413.701 L0.585194 444.326 L8.22404 444.326 L8.22404 448.261 L-11.6833 448.261 L-11.6833 444.326 Z" fill="#000000" fill-rule="evenodd" fill-opacity="1" /><path clip-path="url(#clip330)" d="M 0 0 M23.2934 416.779 Q19.6823 416.779 17.8536 420.344 Q16.0481 423.886 16.0481 431.015 Q16.0481 438.122 17.8536 441.687 Q19.6823 445.228 23.2934 445.228 Q26.9276 445.228 28.7332 441.687 Q30.5619 438.122 30.5619 431.015 Q30.5619 423.886 28.7332 420.344 Q26.9276 416.779 23.2934 416.779 M23.2934 413.076 Q29.1036 413.076 32.1591 417.682 Q35.2378 422.265 35.2378 431.015 Q35.2378 439.742 32.1591 444.349 Q29.1036 448.932 23.2934 448.932 Q17.4833 448.932 14.4046 444.349 Q11.349 439.742 11.349 431.015 Q11.349 422.265 14.4046 417.682 Q17.4833 413.076 23.2934 413.076 Z" fill="#000000" fill-rule="evenodd" fill-opacity="1" /><path clip-path="url(#clip330)" d="M 0 0 M35.2378 408.757 L45.3752 408.757 L45.3752 411.841 L35.2378 411.841 L35.2378 408.757 Z" fill="#000000" fill-rule="evenodd" fill-opacity="1" /><path clip-path="url(#clip330)" d="M 0 0 M69.3739 405.296 Q66.816 405.296 65.3114 407.045 Q63.8256 408.795 63.8256 411.841 Q63.8256 414.869 65.3114 416.637 Q66.816 418.387 69.3739 418.387 Q71.9317 418.387 73.4176 416.637 Q74.9222 414.869 74.9222 411.841 Q74.9222 408.795 73.4176 407.045 Q71.9317 405.296 69.3739 405.296 M76.9158 393.391 L76.9158 396.852 Q75.4864 396.175 74.0194 395.817 Q72.5712 395.46 71.1418 395.46 Q67.3803 395.46 65.3866 397.999 Q63.4118 400.538 63.1297 405.672 Q64.2394 404.036 65.9133 403.171 Q67.5872 402.287 69.5996 402.287 Q73.8313 402.287 76.2763 404.864 Q78.7402 407.422 78.7402 411.841 Q78.7402 416.167 76.1823 418.781 Q73.6244 421.396 69.3739 421.396 Q64.5027 421.396 61.926 417.672 Q59.3493 413.929 59.3493 406.839 Q59.3493 400.181 62.5091 396.231 Q65.6688 392.263 70.9914 392.263 Q72.4207 392.263 73.8689 392.545 Q75.336 392.827 76.9158 393.391 Z" fill="#000000" fill-rule="evenodd" fill-opacity="1" /><path clip-path="url(#clip330)" d="M 0 0 M66.7958 89.3446 Q63.1847 89.3446 61.356 92.9094 Q59.5504 96.451 59.5504 103.581 Q59.5504 110.687 61.356 114.252 Q63.1847 117.793 66.7958 117.793 Q70.43 117.793 72.2356 114.252 Q74.0643 110.687 74.0643 103.581 Q74.0643 96.451 72.2356 92.9094 Q70.43 89.3446 66.7958 89.3446 M66.7958 85.6409 Q72.6059 85.6409 75.6615 90.2473 Q78.7402 94.8306 78.7402 103.581 Q78.7402 112.307 75.6615 116.914 Q72.6059 121.497 66.7958 121.497 Q60.9856 121.497 57.9069 116.914 Q54.8514 112.307 54.8514 103.581 Q54.8514 94.8306 57.9069 90.2473 Q60.9856 85.6409 66.7958 85.6409 Z" fill="#000000" fill-rule="evenodd" fill-opacity="1" /><path clip-path="url(#clip330)" d="M 0 0 M945.603 44.2197 Q948.236 45.1109 950.707 48.0275 Q953.218 50.9442 955.73 56.0483 L964.034 72.576 L955.244 72.576 L947.506 57.061 Q944.509 50.9847 941.673 48.9997 Q938.878 47.0148 934.017 47.0148 L925.105 47.0148 L925.105 72.576 L916.922 72.576 L916.922 12.096 L935.394 12.096 Q945.765 12.096 950.869 16.4305 Q955.973 20.7649 955.973 29.5149 Q955.973 35.2267 953.299 38.994 Q950.666 42.7613 945.603 44.2197 M925.105 18.8205 L925.105 40.2903 L935.394 40.2903 Q941.309 40.2903 944.306 37.5762 Q947.344 34.8216 947.344 29.5149 Q947.344 24.2082 944.306 21.5346 Q941.309 18.8205 935.394 18.8205 L925.105 18.8205 Z" fill="#000000" fill-rule="evenodd" fill-opacity="1" /><path clip-path="url(#clip330)" d="M 0 0 M990.649 49.7694 Q981.615 49.7694 978.131 51.8354 Q974.648 53.9013 974.648 58.8839 Q974.648 62.8538 977.24 65.2034 Q979.873 67.5124 984.37 67.5124 Q990.568 67.5124 994.294 63.1374 Q998.062 58.7219 998.062 51.4303 L998.062 49.7694 L990.649 49.7694 M1005.52 46.6907 L1005.52 72.576 L998.062 72.576 L998.062 65.6895 Q995.51 69.8214 991.702 71.8063 Q987.894 73.7508 982.385 73.7508 Q975.417 73.7508 971.285 69.8619 Q967.194 65.9325 967.194 59.3701 Q967.194 51.7138 972.298 47.825 Q977.443 43.9361 987.61 43.9361 L998.062 43.9361 L998.062 43.2069 Q998.062 38.0623 994.659 35.2672 Q991.297 32.4315 985.18 32.4315 Q981.291 32.4315 977.605 33.3632 Q973.918 34.295 970.516 36.1584 L970.516 29.2718 Q974.607 27.692 978.455 26.9223 Q982.304 26.1121 985.95 26.1121 Q995.793 26.1121 1000.65 31.2163 Q1005.52 36.3204 1005.52 46.6907 Z" fill="#000000" fill-rule="evenodd" fill-opacity="1" /><path clip-path="url(#clip330)" d="M 0 0 M1013.33 27.2059 L1020.79 27.2059 L1020.79 72.576 L1013.33 72.576 L1013.33 27.2059 M1013.33 9.54393 L1020.79 9.54393 L1020.79 18.9825 L1013.33 18.9825 L1013.33 9.54393 Z" fill="#000000" fill-rule="evenodd" fill-opacity="1" /><path clip-path="url(#clip330)" d="M 0 0 M1066.32 45.1919 L1066.32 72.576 L1058.87 72.576 L1058.87 45.4349 Q1058.87 38.994 1056.35 35.7938 Q1053.84 32.5936 1048.82 32.5936 Q1042.78 32.5936 1039.3 36.4419 Q1035.82 40.2903 1035.82 46.9338 L1035.82 72.576 L1028.32 72.576 L1028.32 27.2059 L1035.82 27.2059 L1035.82 34.2544 Q1038.49 30.163 1042.1 28.1376 Q1045.74 26.1121 1050.48 26.1121 Q1058.3 26.1121 1062.31 30.9732 Q1066.32 35.7938 1066.32 45.1919 Z" fill="#000000" fill-rule="evenodd" fill-opacity="1" /><path clip-path="url(#clip330)" d="M 0 0 M1139.32 48.0275 L1139.32 51.6733 L1105.05 51.6733 Q1105.53 59.3701 1109.66 63.421 Q1113.84 67.4314 1121.25 67.4314 Q1125.54 67.4314 1129.55 66.3781 Q1133.61 65.3249 1137.57 63.2184 L1137.57 70.267 Q1133.56 71.9684 1129.35 72.8596 Q1125.14 73.7508 1120.8 73.7508 Q1109.95 73.7508 1103.59 67.4314 Q1097.27 61.1119 1097.27 50.3365 Q1097.27 39.1965 1103.26 32.6746 Q1109.3 26.1121 1119.51 26.1121 Q1128.66 26.1121 1133.97 32.0264 Q1139.32 37.9003 1139.32 48.0275 M1131.86 45.84 Q1131.78 39.7232 1128.42 36.0774 Q1125.1 32.4315 1119.59 32.4315 Q1113.35 32.4315 1109.58 35.9558 Q1105.86 39.4801 1105.29 45.8805 L1131.86 45.84 Z" fill="#000000" fill-rule="evenodd" fill-opacity="1" /><path clip-path="url(#clip330)" d="M 0 0 M1141.79 27.2059 L1149.69 27.2059 L1163.87 65.2844 L1178.04 27.2059 L1185.94 27.2059 L1168.93 72.576 L1158.8 72.576 L1141.79 27.2059 Z" fill="#000000" fill-rule="evenodd" fill-opacity="1" /><path clip-path="url(#clip330)" d="M 0 0 M1214.38 49.7694 Q1205.35 49.7694 1201.86 51.8354 Q1198.38 53.9013 1198.38 58.8839 Q1198.38 62.8538 1200.97 65.2034 Q1203.6 67.5124 1208.1 67.5124 Q1214.3 67.5124 1218.03 63.1374 Q1221.79 58.7219 1221.79 51.4303 L1221.79 49.7694 L1214.38 49.7694 M1229.25 46.6907 L1229.25 72.576 L1221.79 72.576 L1221.79 65.6895 Q1219.24 69.8214 1215.43 71.8063 Q1211.63 73.7508 1206.12 73.7508 Q1199.15 73.7508 1195.02 69.8619 Q1190.93 65.9325 1190.93 59.3701 Q1190.93 51.7138 1196.03 47.825 Q1201.17 43.9361 1211.34 43.9361 L1221.79 43.9361 L1221.79 43.2069 Q1221.79 38.0623 1218.39 35.2672 Q1215.03 32.4315 1208.91 32.4315 Q1205.02 32.4315 1201.34 33.3632 Q1197.65 34.295 1194.25 36.1584 L1194.25 29.2718 Q1198.34 27.692 1202.19 26.9223 Q1206.04 26.1121 1209.68 26.1121 Q1219.52 26.1121 1224.39 31.2163 Q1229.25 36.3204 1229.25 46.6907 Z" fill="#000000" fill-rule="evenodd" fill-opacity="1" /><path clip-path="url(#clip330)" d="M 0 0 M1244.28 65.7705 L1244.28 89.8329 L1236.78 89.8329 L1236.78 27.2059 L1244.28 27.2059 L1244.28 34.0924 Q1246.63 30.0415 1250.19 28.0971 Q1253.8 26.1121 1258.78 26.1121 Q1267.04 26.1121 1272.19 32.6746 Q1277.37 39.2371 1277.37 49.9314 Q1277.37 60.6258 1272.19 67.1883 Q1267.04 73.7508 1258.78 73.7508 Q1253.8 73.7508 1250.19 71.8063 Q1246.63 69.8214 1244.28 65.7705 M1269.63 49.9314 Q1269.63 41.7081 1266.23 37.0496 Q1262.87 32.3505 1256.96 32.3505 Q1251.04 32.3505 1247.64 37.0496 Q1244.28 41.7081 1244.28 49.9314 Q1244.28 58.1548 1247.64 62.8538 Q1251.04 67.5124 1256.96 67.5124 Q1262.87 67.5124 1266.23 62.8538 Q1269.63 58.1548 1269.63 49.9314 Z" fill="#000000" fill-rule="evenodd" fill-opacity="1" /><path clip-path="url(#clip330)" d="M 0 0 M1302.77 32.4315 Q1296.78 32.4315 1293.29 37.1306 Q1289.81 41.7891 1289.81 49.9314 Q1289.81 58.0738 1293.25 62.7728 Q1296.73 67.4314 1302.77 67.4314 Q1308.73 67.4314 1312.21 62.7323 Q1315.69 58.0333 1315.69 49.9314 Q1315.69 41.8701 1312.21 37.1711 Q1308.73 32.4315 1302.77 32.4315 M1302.77 26.1121 Q1312.49 26.1121 1318.04 32.4315 Q1323.59 38.7509 1323.59 49.9314 Q1323.59 61.0714 1318.04 67.4314 Q1312.49 73.7508 1302.77 73.7508 Q1293.01 73.7508 1287.46 67.4314 Q1281.95 61.0714 1281.95 49.9314 Q1281.95 38.7509 1287.46 32.4315 Q1293.01 26.1121 1302.77 26.1121 Z" fill="#000000" fill-rule="evenodd" fill-opacity="1" /><path clip-path="url(#clip330)" d="M 0 0 M1357.7 34.1734 Q1356.45 33.4443 1354.95 33.1202 Q1353.49 32.7556 1351.71 32.7556 Q1345.39 32.7556 1341.98 36.8875 Q1338.62 40.9789 1338.62 48.6757 L1338.62 72.576 L1331.13 72.576 L1331.13 27.2059 L1338.62 27.2059 L1338.62 34.2544 Q1340.97 30.1225 1344.74 28.1376 Q1348.51 26.1121 1353.89 26.1121 Q1354.66 26.1121 1355.59 26.2337 Q1356.53 26.3147 1357.66 26.5172 L1357.7 34.1734 Z" fill="#000000" fill-rule="evenodd" fill-opacity="1" /><path clip-path="url(#clip330)" d="M 0 0 M1386.14 49.7694 Q1377.1 49.7694 1373.62 51.8354 Q1370.14 53.9013 1370.14 58.8839 Q1370.14 62.8538 1372.73 65.2034 Q1375.36 67.5124 1379.86 67.5124 Q1386.06 67.5124 1389.78 63.1374 Q1393.55 58.7219 1393.55 51.4303 L1393.55 49.7694 L1386.14 49.7694 M1401.01 46.6907 L1401.01 72.576 L1393.55 72.576 L1393.55 65.6895 Q1391 69.8214 1387.19 71.8063 Q1383.38 73.7508 1377.87 73.7508 Q1370.91 73.7508 1366.78 69.8619 Q1362.68 65.9325 1362.68 59.3701 Q1362.68 51.7138 1367.79 47.825 Q1372.93 43.9361 1383.1 43.9361 L1393.55 43.9361 L1393.55 43.2069 Q1393.55 38.0623 1390.15 35.2672 Q1386.79 32.4315 1380.67 32.4315 Q1376.78 32.4315 1373.09 33.3632 Q1369.41 34.295 1366.01 36.1584 L1366.01 29.2718 Q1370.1 27.692 1373.95 26.9223 Q1377.79 26.1121 1381.44 26.1121 Q1391.28 26.1121 1396.14 31.2163 Q1401.01 36.3204 1401.01 46.6907 Z" fill="#000000" fill-rule="evenodd" fill-opacity="1" /><path clip-path="url(#clip330)" d="M 0 0 M1416.2 14.324 L1416.2 27.2059 L1431.55 27.2059 L1431.55 32.9987 L1416.2 32.9987 L1416.2 57.6282 Q1416.2 63.1779 1417.69 64.7578 Q1419.23 66.3376 1423.89 66.3376 L1431.55 66.3376 L1431.55 72.576 L1423.89 72.576 Q1415.26 72.576 1411.98 69.3758 Q1408.7 66.1351 1408.7 57.6282 L1408.7 32.9987 L1403.23 32.9987 L1403.23 27.2059 L1408.7 27.2059 L1408.7 14.324 L1416.2 14.324 Z" fill="#000000" fill-rule="evenodd" fill-opacity="1" /><path clip-path="url(#clip330)" d="M 0 0 M1439.37 27.2059 L1446.82 27.2059 L1446.82 72.576 L1439.37 72.576 L1439.37 27.2059 M1439.37 9.54393 L1446.82 9.54393 L1446.82 18.9825 L1439.37 18.9825 L1439.37 9.54393 Z" fill="#000000" fill-rule="evenodd" fill-opacity="1" /><path clip-path="url(#clip330)" d="M 0 0 M1472.22 32.4315 Q1466.22 32.4315 1462.74 37.1306 Q1459.26 41.7891 1459.26 49.9314 Q1459.26 58.0738 1462.7 62.7728 Q1466.18 67.4314 1472.22 67.4314 Q1478.17 67.4314 1481.66 62.7323 Q1485.14 58.0333 1485.14 49.9314 Q1485.14 41.8701 1481.66 37.1711 Q1478.17 32.4315 1472.22 32.4315 M1472.22 26.1121 Q1481.94 26.1121 1487.49 32.4315 Q1493.04 38.7509 1493.04 49.9314 Q1493.04 61.0714 1487.49 67.4314 Q1481.94 73.7508 1472.22 73.7508 Q1462.46 73.7508 1456.91 67.4314 Q1451.4 61.0714 1451.4 49.9314 Q1451.4 38.7509 1456.91 32.4315 Q1462.46 26.1121 1472.22 26.1121 Z" fill="#000000" fill-rule="evenodd" fill-opacity="1" /><path clip-path="url(#clip330)" d="M 0 0 M1538.57 45.1919 L1538.57 72.576 L1531.12 72.576 L1531.12 45.4349 Q1531.12 38.994 1528.61 35.7938 Q1526.1 32.5936 1521.07 32.5936 Q1515.04 32.5936 1511.55 36.4419 Q1508.07 40.2903 1508.07 46.9338 L1508.07 72.576 L1500.58 72.576 L1500.58 27.2059 L1508.07 27.2059 L1508.07 34.2544 Q1510.74 30.163 1514.35 28.1376 Q1518 26.1121 1522.73 26.1121 Q1530.55 26.1121 1534.56 30.9732 Q1538.57 35.7938 1538.57 45.1919 Z" fill="#000000" fill-rule="evenodd" fill-opacity="1" /><path clip-path="url(#clip330)" d="M 0 0 M1051.91 1620.33 Q1051.91 1626.79 1054.55 1630.48 Q1057.23 1634.15 1061.87 1634.15 Q1066.52 1634.15 1069.19 1630.48 Q1071.87 1626.79 1071.87 1620.33 Q1071.87 1613.87 1069.19 1610.21 Q1066.52 1606.52 1061.87 1606.52 Q1057.23 1606.52 1054.55 1610.21 Q1051.91 1613.87 1051.91 1620.33 M1071.87 1632.78 Q1070.02 1635.96 1067.19 1637.52 Q1064.39 1639.05 1060.44 1639.05 Q1053.98 1639.05 1049.91 1633.89 Q1045.86 1628.73 1045.86 1620.33 Q1045.86 1611.93 1049.91 1606.77 Q1053.98 1601.62 1060.44 1601.62 Q1064.39 1601.62 1067.19 1603.18 Q1070.02 1604.7 1071.87 1607.89 L1071.87 1602.48 L1077.72 1602.48 L1077.72 1651.68 L1071.87 1651.68 L1071.87 1632.78 Z" fill="#000000" fill-rule="evenodd" fill-opacity="1" /><path clip-path="url(#clip330)" d="M 0 0 M1110.95 1648.95 L1110.95 1653.5 L1077.09 1653.5 L1077.09 1648.95 L1110.95 1648.95 Z" fill="#000000" fill-rule="evenodd" fill-opacity="1" /><path clip-path="url(#clip330)" d="M 0 0 M1137.75 1607.95 Q1136.77 1607.38 1135.59 1607.12 Q1134.44 1606.84 1133.04 1606.84 Q1128.08 1606.84 1125.4 1610.08 Q1122.76 1613.3 1122.76 1619.35 L1122.76 1638.12 L1116.87 1638.12 L1116.87 1602.48 L1122.76 1602.48 L1122.76 1608.01 Q1124.61 1604.77 1127.57 1603.21 Q1130.53 1601.62 1134.76 1601.62 Q1135.37 1601.62 1136.1 1601.71 Q1136.83 1601.78 1137.72 1601.93 L1137.75 1607.95 Z" fill="#000000" fill-rule="evenodd" fill-opacity="1" /><path clip-path="url(#clip330)" d="M 0 0 M1160.1 1620.2 Q1153 1620.2 1150.26 1621.83 Q1147.52 1623.45 1147.52 1627.37 Q1147.52 1630.48 1149.56 1632.33 Q1151.63 1634.15 1155.16 1634.15 Q1160.03 1634.15 1162.96 1630.71 Q1165.92 1627.24 1165.92 1621.51 L1165.92 1620.2 L1160.1 1620.2 M1171.78 1617.79 L1171.78 1638.12 L1165.92 1638.12 L1165.92 1632.71 Q1163.92 1635.96 1160.92 1637.52 Q1157.93 1639.05 1153.6 1639.05 Q1148.13 1639.05 1144.88 1635.99 Q1141.67 1632.9 1141.67 1627.75 Q1141.67 1621.73 1145.68 1618.68 Q1149.72 1615.62 1157.71 1615.62 L1165.92 1615.62 L1165.92 1615.05 Q1165.92 1611.01 1163.25 1608.81 Q1160.61 1606.58 1155.8 1606.58 Q1152.74 1606.58 1149.85 1607.31 Q1146.95 1608.05 1144.28 1609.51 L1144.28 1604.1 Q1147.49 1602.86 1150.52 1602.25 Q1153.54 1601.62 1156.4 1601.62 Q1164.14 1601.62 1167.96 1605.63 Q1171.78 1609.64 1171.78 1617.79 Z" fill="#000000" fill-rule="evenodd" fill-opacity="1" /><path clip-path="url(#clip330)" d="M 0 0 M1177.92 1602.48 L1183.78 1602.48 L1183.78 1638.12 L1177.92 1638.12 L1177.92 1602.48 M1177.92 1588.6 L1183.78 1588.6 L1183.78 1596.01 L1177.92 1596.01 L1177.92 1588.6 Z" fill="#000000" fill-rule="evenodd" fill-opacity="1" /><path clip-path="url(#clip330)" d="M 0 0 M1219.55 1616.61 L1219.55 1638.12 L1213.7 1638.12 L1213.7 1616.8 Q1213.7 1611.74 1211.72 1609.22 Q1209.75 1606.71 1205.8 1606.71 Q1201.06 1606.71 1198.32 1609.73 Q1195.59 1612.76 1195.59 1617.98 L1195.59 1638.12 L1189.7 1638.12 L1189.7 1602.48 L1195.59 1602.48 L1195.59 1608.01 Q1197.69 1604.8 1200.52 1603.21 Q1203.38 1601.62 1207.11 1601.62 Q1213.25 1601.62 1216.4 1605.44 Q1219.55 1609.22 1219.55 1616.61 Z" fill="#000000" fill-rule="evenodd" fill-opacity="1" /><path clip-path="url(#clip330)" d="M 0 0 M1245.87 1588.6 L1259.37 1588.6 L1259.37 1593.15 L1251.73 1593.15 L1251.73 1642.17 L1259.37 1642.17 L1259.37 1646.72 L1245.87 1646.72 L1245.87 1588.6 Z" fill="#000000" fill-rule="evenodd" fill-opacity="1" /><path clip-path="url(#clip330)" d="M 0 0 M1288.97 1619.89 Q1288.97 1613.52 1286.33 1610.02 Q1283.72 1606.52 1278.98 1606.52 Q1274.27 1606.52 1271.62 1610.02 Q1269.01 1613.52 1269.01 1619.89 Q1269.01 1626.22 1271.62 1629.72 Q1274.27 1633.22 1278.98 1633.22 Q1283.72 1633.22 1286.33 1629.72 Q1288.97 1626.22 1288.97 1619.89 M1294.83 1633.7 Q1294.83 1642.8 1290.78 1647.23 Q1286.74 1651.68 1278.4 1651.68 Q1275.32 1651.68 1272.58 1651.21 Q1269.84 1650.76 1267.26 1649.8 L1267.26 1644.11 Q1269.84 1645.51 1272.36 1646.18 Q1274.87 1646.84 1277.48 1646.84 Q1283.24 1646.84 1286.11 1643.82 Q1288.97 1640.83 1288.97 1634.75 L1288.97 1631.85 Q1287.16 1635 1284.32 1636.56 Q1281.49 1638.12 1277.54 1638.12 Q1270.99 1638.12 1266.98 1633.13 Q1262.97 1628.13 1262.97 1619.89 Q1262.97 1611.61 1266.98 1606.61 Q1270.99 1601.62 1277.54 1601.62 Q1281.49 1601.62 1284.32 1603.18 Q1287.16 1604.74 1288.97 1607.89 L1288.97 1602.48 L1294.83 1602.48 L1294.83 1633.7 Z" fill="#000000" fill-rule="evenodd" fill-opacity="1" /><path clip-path="url(#clip330)" d="M 0 0 M1311.38 1590.6 L1316.79 1590.6 L1300.24 1644.17 L1294.83 1644.17 L1311.38 1590.6 Z" fill="#000000" fill-rule="evenodd" fill-opacity="1" /><path clip-path="url(#clip330)" d="M 0 0 M1322.71 1588.6 L1328.6 1588.6 L1328.6 1617.85 L1346.07 1602.48 L1353.55 1602.48 L1334.64 1619.15 L1354.35 1638.12 L1346.71 1638.12 L1328.6 1620.71 L1328.6 1638.12 L1322.71 1638.12 L1322.71 1588.6 Z" fill="#000000" fill-rule="evenodd" fill-opacity="1" /><path clip-path="url(#clip330)" d="M 0 0 M1383.95 1619.89 Q1383.95 1613.52 1381.3 1610.02 Q1378.69 1606.52 1373.95 1606.52 Q1369.24 1606.52 1366.6 1610.02 Q1363.99 1613.52 1363.99 1619.89 Q1363.99 1626.22 1366.6 1629.72 Q1369.24 1633.22 1373.95 1633.22 Q1378.69 1633.22 1381.3 1629.72 Q1383.95 1626.22 1383.95 1619.89 M1389.8 1633.7 Q1389.8 1642.8 1385.76 1647.23 Q1381.72 1651.68 1373.38 1651.68 Q1370.29 1651.68 1367.55 1651.21 Q1364.82 1650.76 1362.24 1649.8 L1362.24 1644.11 Q1364.82 1645.51 1367.33 1646.18 Q1369.85 1646.84 1372.46 1646.84 Q1378.22 1646.84 1381.08 1643.82 Q1383.95 1640.83 1383.95 1634.75 L1383.95 1631.85 Q1382.13 1635 1379.3 1636.56 Q1376.47 1638.12 1372.52 1638.12 Q1365.96 1638.12 1361.95 1633.13 Q1357.94 1628.13 1357.94 1619.89 Q1357.94 1611.61 1361.95 1606.61 Q1365.96 1601.62 1372.52 1601.62 Q1376.47 1601.62 1379.3 1603.18 Q1382.13 1604.74 1383.95 1607.89 L1383.95 1602.48 L1389.8 1602.48 L1389.8 1633.7 Z" fill="#000000" fill-rule="evenodd" fill-opacity="1" /><path clip-path="url(#clip330)" d="M 0 0 M1409.63 1588.6 L1409.63 1646.72 L1396.14 1646.72 L1396.14 1642.17 L1403.74 1642.17 L1403.74 1593.15 L1396.14 1593.15 L1396.14 1588.6 L1409.63 1588.6 Z" fill="#000000" fill-rule="evenodd" fill-opacity="1" /><path clip-path="url(#clip330)" d="M 0 0 M-190.522 1145.13 Q-191.094 1146.11 -191.349 1147.29 Q-191.636 1148.44 -191.636 1149.84 Q-191.636 1154.8 -188.389 1157.47 Q-185.174 1160.12 -179.127 1160.12 L-160.348 1160.12 L-160.348 1166 L-195.996 1166 L-195.996 1160.12 L-190.458 1160.12 Q-193.704 1158.27 -195.264 1155.31 Q-196.855 1152.35 -196.855 1148.12 Q-196.855 1147.51 -196.76 1146.78 Q-196.696 1146.05 -196.537 1145.16 L-190.522 1145.13 Z" fill="#000000" fill-rule="evenodd" fill-opacity="1" /><path clip-path="url(#clip330)" d="M 0 0 M-178.268 1122.78 Q-178.268 1129.88 -176.644 1132.62 Q-175.021 1135.35 -171.106 1135.35 Q-167.987 1135.35 -166.141 1133.32 Q-164.327 1131.25 -164.327 1127.71 Q-164.327 1122.85 -167.764 1119.92 Q-171.233 1116.96 -176.963 1116.96 L-178.268 1116.96 L-178.268 1122.78 M-180.687 1111.1 L-160.348 1111.1 L-160.348 1116.96 L-165.759 1116.96 Q-162.512 1118.96 -160.953 1121.95 Q-159.425 1124.95 -159.425 1129.27 Q-159.425 1134.75 -162.481 1138 Q-165.568 1141.21 -170.724 1141.21 Q-176.74 1141.21 -179.795 1137.2 Q-182.851 1133.16 -182.851 1125.17 L-182.851 1116.96 L-183.424 1116.96 Q-187.466 1116.96 -189.662 1119.63 Q-191.89 1122.27 -191.89 1127.08 Q-191.89 1130.13 -191.158 1133.03 Q-190.426 1135.93 -188.962 1138.6 L-194.373 1138.6 Q-195.614 1135.39 -196.219 1132.36 Q-196.855 1129.34 -196.855 1126.47 Q-196.855 1118.74 -192.845 1114.92 Q-188.835 1111.1 -180.687 1111.1 Z" fill="#000000" fill-rule="evenodd" fill-opacity="1" /><path clip-path="url(#clip330)" d="M 0 0 M-195.996 1104.96 L-195.996 1099.1 L-160.348 1099.1 L-160.348 1104.96 L-195.996 1104.96 M-209.873 1104.96 L-209.873 1099.1 L-202.457 1099.1 L-202.457 1104.96 L-209.873 1104.96 Z" fill="#000000" fill-rule="evenodd" fill-opacity="1" /><path clip-path="url(#clip330)" d="M 0 0 M-181.864 1063.33 L-160.348 1063.33 L-160.348 1069.18 L-181.673 1069.18 Q-186.734 1069.18 -189.248 1071.16 Q-191.763 1073.13 -191.763 1077.08 Q-191.763 1081.82 -188.739 1084.56 Q-185.715 1087.29 -180.496 1087.29 L-160.348 1087.29 L-160.348 1093.18 L-195.996 1093.18 L-195.996 1087.29 L-190.458 1087.29 Q-193.673 1085.19 -195.264 1082.36 Q-196.855 1079.49 -196.855 1075.77 Q-196.855 1069.63 -193.036 1066.48 Q-189.248 1063.33 -181.864 1063.33 Z" fill="#000000" fill-rule="evenodd" fill-opacity="1" /><path clip-path="url(#clip330)" d="M 0 0 M-179.636 1005.97 L-176.772 1005.97 L-176.772 1032.9 Q-170.724 1032.52 -167.541 1029.27 Q-164.39 1025.99 -164.39 1020.17 Q-164.39 1016.79 -165.218 1013.64 Q-166.045 1010.46 -167.7 1007.34 L-162.162 1007.34 Q-160.826 1010.49 -160.125 1013.8 Q-159.425 1017.11 -159.425 1020.52 Q-159.425 1029.05 -164.39 1034.04 Q-169.356 1039.01 -177.822 1039.01 Q-186.575 1039.01 -191.699 1034.3 Q-196.855 1029.56 -196.855 1021.54 Q-196.855 1014.34 -192.208 1010.17 Q-187.593 1005.97 -179.636 1005.97 M-181.355 1011.83 Q-186.161 1011.89 -189.026 1014.53 Q-191.89 1017.14 -191.89 1021.47 Q-191.89 1026.37 -189.121 1029.33 Q-186.352 1032.26 -181.323 1032.71 L-181.355 1011.83 Z" fill="#000000" fill-rule="evenodd" fill-opacity="1" /><path clip-path="url(#clip330)" d="M 0 0 M-195.996 1004.03 L-195.996 997.823 L-166.077 986.683 L-195.996 975.543 L-195.996 969.336 L-160.348 982.704 L-160.348 990.661 L-195.996 1004.03 Z" fill="#000000" fill-rule="evenodd" fill-opacity="1" /><path clip-path="url(#clip330)" d="M 0 0 M-178.268 946.993 Q-178.268 954.09 -176.644 956.828 Q-175.021 959.565 -171.106 959.565 Q-167.987 959.565 -166.141 957.528 Q-164.327 955.459 -164.327 951.926 Q-164.327 947.056 -167.764 944.128 Q-171.233 941.168 -176.963 941.168 L-178.268 941.168 L-178.268 946.993 M-180.687 935.312 L-160.348 935.312 L-160.348 941.168 L-165.759 941.168 Q-162.512 943.173 -160.953 946.165 Q-159.425 949.157 -159.425 953.486 Q-159.425 958.96 -162.481 962.207 Q-165.568 965.421 -170.724 965.421 Q-176.74 965.421 -179.795 961.411 Q-182.851 957.369 -182.851 949.38 L-182.851 941.168 L-183.424 941.168 Q-187.466 941.168 -189.662 943.842 Q-191.89 946.483 -191.89 951.289 Q-191.89 954.345 -191.158 957.241 Q-190.426 960.138 -188.962 962.811 L-194.373 962.811 Q-195.614 959.597 -196.219 956.573 Q-196.855 953.549 -196.855 950.685 Q-196.855 942.95 -192.845 939.131 Q-188.835 935.312 -180.687 935.312 Z" fill="#000000" fill-rule="evenodd" fill-opacity="1" /><path clip-path="url(#clip330)" d="M 0 0 M-165.695 923.503 L-146.789 923.503 L-146.789 929.391 L-195.996 929.391 L-195.996 923.503 L-190.585 923.503 Q-193.768 921.657 -195.296 918.856 Q-196.855 916.023 -196.855 912.109 Q-196.855 905.615 -191.699 901.573 Q-186.543 897.499 -178.14 897.499 Q-169.738 897.499 -164.581 901.573 Q-159.425 905.615 -159.425 912.109 Q-159.425 916.023 -160.953 918.856 Q-162.512 921.657 -165.695 923.503 M-178.14 903.578 Q-184.601 903.578 -188.262 906.252 Q-191.954 908.894 -191.954 913.541 Q-191.954 918.188 -188.262 920.861 Q-184.601 923.503 -178.14 923.503 Q-171.679 923.503 -167.987 920.861 Q-164.327 918.188 -164.327 913.541 Q-164.327 908.894 -167.987 906.252 Q-171.679 903.578 -178.14 903.578 Z" fill="#000000" fill-rule="evenodd" fill-opacity="1" /><path clip-path="url(#clip330)" d="M 0 0 M-191.89 877.543 Q-191.89 882.253 -188.198 884.991 Q-184.538 887.728 -178.14 887.728 Q-171.743 887.728 -168.051 885.022 Q-164.39 882.285 -164.39 877.543 Q-164.39 872.864 -168.082 870.127 Q-171.775 867.389 -178.14 867.389 Q-184.474 867.389 -188.166 870.127 Q-191.89 872.864 -191.89 877.543 M-196.855 877.543 Q-196.855 869.904 -191.89 865.543 Q-186.925 861.183 -178.14 861.183 Q-169.387 861.183 -164.39 865.543 Q-159.425 869.904 -159.425 877.543 Q-159.425 885.213 -164.39 889.574 Q-169.387 893.903 -178.14 893.903 Q-186.925 893.903 -191.89 889.574 Q-196.855 885.213 -196.855 877.543 Z" fill="#000000" fill-rule="evenodd" fill-opacity="1" /><path clip-path="url(#clip330)" d="M 0 0 M-190.522 834.383 Q-191.094 835.37 -191.349 836.548 Q-191.636 837.693 -191.636 839.094 Q-191.636 844.059 -188.389 846.733 Q-185.174 849.374 -179.127 849.374 L-160.348 849.374 L-160.348 855.263 L-195.996 855.263 L-195.996 849.374 L-190.458 849.374 Q-193.704 847.528 -195.264 844.568 Q-196.855 841.608 -196.855 837.375 Q-196.855 836.77 -196.76 836.038 Q-196.696 835.306 -196.537 834.415 L-190.522 834.383 Z" fill="#000000" fill-rule="evenodd" fill-opacity="1" /><path clip-path="url(#clip330)" d="M 0 0 M-178.268 812.04 Q-178.268 819.137 -176.644 821.875 Q-175.021 824.612 -171.106 824.612 Q-167.987 824.612 -166.141 822.575 Q-164.327 820.506 -164.327 816.973 Q-164.327 812.103 -167.764 809.175 Q-171.233 806.215 -176.963 806.215 L-178.268 806.215 L-178.268 812.04 M-180.687 800.359 L-160.348 800.359 L-160.348 806.215 L-165.759 806.215 Q-162.512 808.22 -160.953 811.212 Q-159.425 814.204 -159.425 818.533 Q-159.425 824.007 -162.481 827.254 Q-165.568 830.468 -170.724 830.468 Q-176.74 830.468 -179.795 826.458 Q-182.851 822.416 -182.851 814.427 L-182.851 806.215 L-183.424 806.215 Q-187.466 806.215 -189.662 808.889 Q-191.89 811.53 -191.89 816.336 Q-191.89 819.392 -191.158 822.288 Q-190.426 825.185 -188.962 827.858 L-194.373 827.858 Q-195.614 824.644 -196.219 821.62 Q-196.855 818.596 -196.855 815.732 Q-196.855 807.997 -192.845 804.178 Q-188.835 800.359 -180.687 800.359 Z" fill="#000000" fill-rule="evenodd" fill-opacity="1" /><path clip-path="url(#clip330)" d="M 0 0 M-206.118 788.423 L-195.996 788.423 L-195.996 776.36 L-191.445 776.36 L-191.445 788.423 L-172.093 788.423 Q-167.732 788.423 -166.491 787.245 Q-165.25 786.036 -165.25 782.375 L-165.25 776.36 L-160.348 776.36 L-160.348 782.375 Q-160.348 789.155 -162.863 791.733 Q-165.409 794.311 -172.093 794.311 L-191.445 794.311 L-191.445 798.608 L-195.996 798.608 L-195.996 794.311 L-206.118 794.311 L-206.118 788.423 Z" fill="#000000" fill-rule="evenodd" fill-opacity="1" /><path clip-path="url(#clip330)" d="M 0 0 M-195.996 770.217 L-195.996 764.36 L-160.348 764.36 L-160.348 770.217 L-195.996 770.217 M-209.873 770.217 L-209.873 764.36 L-202.457 764.36 L-202.457 770.217 L-209.873 770.217 Z" fill="#000000" fill-rule="evenodd" fill-opacity="1" /><path clip-path="url(#clip330)" d="M 0 0 M-191.89 744.404 Q-191.89 749.115 -188.198 751.852 Q-184.538 754.589 -178.14 754.589 Q-171.743 754.589 -168.051 751.884 Q-164.39 749.146 -164.39 744.404 Q-164.39 739.725 -168.082 736.988 Q-171.775 734.251 -178.14 734.251 Q-184.474 734.251 -188.166 736.988 Q-191.89 739.725 -191.89 744.404 M-196.855 744.404 Q-196.855 736.765 -191.89 732.405 Q-186.925 728.044 -178.14 728.044 Q-169.387 728.044 -164.39 732.405 Q-159.425 736.765 -159.425 744.404 Q-159.425 752.075 -164.39 756.435 Q-169.387 760.764 -178.14 760.764 Q-186.925 760.764 -191.89 756.435 Q-196.855 752.075 -196.855 744.404 Z" fill="#000000" fill-rule="evenodd" fill-opacity="1" /><path clip-path="url(#clip330)" d="M 0 0 M-181.864 692.269 L-160.348 692.269 L-160.348 698.125 L-181.673 698.125 Q-186.734 698.125 -189.248 700.099 Q-191.763 702.072 -191.763 706.019 Q-191.763 710.761 -188.739 713.498 Q-185.715 716.236 -180.496 716.236 L-160.348 716.236 L-160.348 722.124 L-195.996 722.124 L-195.996 716.236 L-190.458 716.236 Q-193.673 714.135 -195.264 711.302 Q-196.855 708.438 -196.855 704.714 Q-196.855 698.571 -193.036 695.42 Q-189.248 692.269 -181.864 692.269 Z" fill="#000000" fill-rule="evenodd" fill-opacity="1" /><path clip-path="url(#clip330)" d="M 0 0 M-190.522 644.749 Q-191.094 645.736 -191.349 646.913 Q-191.636 648.059 -191.636 649.459 Q-191.636 654.425 -188.389 657.098 Q-185.174 659.74 -179.127 659.74 L-160.348 659.74 L-160.348 665.628 L-195.996 665.628 L-195.996 659.74 L-190.458 659.74 Q-193.704 657.894 -195.264 654.934 Q-196.855 651.974 -196.855 647.741 Q-196.855 647.136 -196.76 646.404 Q-196.696 645.672 -196.537 644.781 L-190.522 644.749 Z" fill="#000000" fill-rule="evenodd" fill-opacity="1" /><path clip-path="url(#clip330)" d="M 0 0 M-178.268 622.405 Q-178.268 629.503 -176.644 632.24 Q-175.021 634.977 -171.106 634.977 Q-167.987 634.977 -166.141 632.94 Q-164.327 630.872 -164.327 627.339 Q-164.327 622.469 -167.764 619.541 Q-171.233 616.581 -176.963 616.581 L-178.268 616.581 L-178.268 622.405 M-180.687 610.724 L-160.348 610.724 L-160.348 616.581 L-165.759 616.581 Q-162.512 618.586 -160.953 621.578 Q-159.425 624.57 -159.425 628.898 Q-159.425 634.373 -162.481 637.619 Q-165.568 640.834 -170.724 640.834 Q-176.74 640.834 -179.795 636.824 Q-182.851 632.781 -182.851 624.792 L-182.851 616.581 L-183.424 616.581 Q-187.466 616.581 -189.662 619.254 Q-191.89 621.896 -191.89 626.702 Q-191.89 629.758 -191.158 632.654 Q-190.426 635.55 -188.962 638.224 L-194.373 638.224 Q-195.614 635.009 -196.219 631.986 Q-196.855 628.962 -196.855 626.097 Q-196.855 618.363 -192.845 614.544 Q-188.835 610.724 -180.687 610.724 Z" fill="#000000" fill-rule="evenodd" fill-opacity="1" /><path clip-path="url(#clip330)" d="M 0 0 M-206.118 598.788 L-195.996 598.788 L-195.996 586.725 L-191.445 586.725 L-191.445 598.788 L-172.093 598.788 Q-167.732 598.788 -166.491 597.611 Q-165.25 596.401 -165.25 592.741 L-165.25 586.725 L-160.348 586.725 L-160.348 592.741 Q-160.348 599.52 -162.863 602.099 Q-165.409 604.677 -172.093 604.677 L-191.445 604.677 L-191.445 608.974 L-195.996 608.974 L-195.996 604.677 L-206.118 604.677 L-206.118 598.788 Z" fill="#000000" fill-rule="evenodd" fill-opacity="1" /><path clip-path="url(#clip330)" d="M 0 0 M-179.636 550.091 L-176.772 550.091 L-176.772 577.018 Q-170.724 576.636 -167.541 573.389 Q-164.39 570.111 -164.39 564.286 Q-164.39 560.912 -165.218 557.761 Q-166.045 554.579 -167.7 551.459 L-162.162 551.459 Q-160.826 554.61 -160.125 557.921 Q-159.425 561.231 -159.425 564.636 Q-159.425 573.166 -164.39 578.164 Q-169.356 583.129 -177.822 583.129 Q-186.575 583.129 -191.699 578.418 Q-196.855 573.676 -196.855 565.655 Q-196.855 558.462 -192.208 554.292 Q-187.593 550.091 -179.636 550.091 M-181.355 555.947 Q-186.161 556.011 -189.026 558.653 Q-191.89 561.263 -191.89 565.591 Q-191.89 570.493 -189.121 573.453 Q-186.352 576.381 -181.323 576.827 L-181.355 555.947 Z" fill="#000000" fill-rule="evenodd" fill-opacity="1" /><path clip-path="url(#clip330)" d="M 0 0 M-209.873 523.769 L-209.873 510.273 L-205.322 510.273 L-205.322 517.912 L-156.306 517.912 L-156.306 510.273 L-151.754 510.273 L-151.754 523.769 L-209.873 523.769 Z" fill="#000000" fill-rule="evenodd" fill-opacity="1" /><path clip-path="url(#clip330)" d="M 0 0 M-165.759 502.189 L-165.759 491.685 L-202.012 491.685 L-199.72 503.112 L-205.576 503.112 L-207.868 491.749 L-207.868 485.32 L-165.759 485.32 L-165.759 474.816 L-160.348 474.816 L-160.348 502.189 L-165.759 502.189 Z" fill="#000000" fill-rule="evenodd" fill-opacity="1" /><path clip-path="url(#clip330)" d="M 0 0 M-207.868 458.265 L-207.868 452.855 L-154.301 469.405 L-154.301 474.816 L-207.868 458.265 Z" fill="#000000" fill-rule="evenodd" fill-opacity="1" /><path clip-path="url(#clip330)" d="M 0 0 M-194.946 423.986 L-189.408 423.986 Q-190.681 426.469 -191.317 429.142 Q-191.954 431.816 -191.954 434.681 Q-191.954 439.041 -190.617 441.237 Q-189.28 443.402 -186.607 443.402 Q-184.57 443.402 -183.392 441.842 Q-182.246 440.282 -181.196 435.572 L-180.75 433.567 Q-179.413 427.328 -176.963 424.718 Q-174.544 422.076 -170.183 422.076 Q-165.218 422.076 -162.321 426.023 Q-159.425 429.938 -159.425 436.813 Q-159.425 439.678 -159.998 442.797 Q-160.539 445.884 -161.653 449.322 L-167.7 449.322 Q-166.014 446.075 -165.154 442.924 Q-164.327 439.773 -164.327 436.686 Q-164.327 432.548 -165.727 430.32 Q-167.159 428.092 -169.738 428.092 Q-172.125 428.092 -173.398 429.715 Q-174.671 431.307 -175.849 436.749 L-176.326 438.786 Q-177.472 444.229 -179.827 446.648 Q-182.214 449.067 -186.352 449.067 Q-191.381 449.067 -194.118 445.502 Q-196.855 441.937 -196.855 435.381 Q-196.855 432.134 -196.378 429.27 Q-195.901 426.405 -194.946 423.986 Z" fill="#000000" fill-rule="evenodd" fill-opacity="1" /><path clip-path="url(#clip330)" d="M 0 0 M-209.873 402.247 L-151.754 402.247 L-151.754 415.743 L-156.306 415.743 L-156.306 408.136 L-205.322 408.136 L-205.322 415.743 L-209.873 415.743 L-209.873 402.247 Z" fill="#000000" fill-rule="evenodd" fill-opacity="1" /><polyline clip-path="url(#clip332)" style="stroke:#009af9; stroke-width:4; stroke-opacity:1; fill:none" points="
  166.42,103.94 187.861,171.065 209.302,208.737 230.743,240.083 252.184,267.942 273.625,293.475 295.066,317.3 316.507,339.797 337.948,361.219 359.389,381.743 
  380.83,401.504 402.271,420.602 423.712,439.119 445.153,457.119 466.593,474.656 488.034,491.773 509.475,508.508 530.916,524.892 552.357,540.955 573.798,556.718 
  595.239,572.204 616.68,587.432 638.121,602.416 659.562,617.173 681.003,631.716 702.444,646.056 723.885,660.204 745.326,674.171 766.767,687.964 788.208,701.594 
  809.649,715.066 831.09,728.389 852.531,741.568 873.972,754.61 895.413,767.52 916.854,780.303 938.295,792.965 959.736,805.509 981.177,817.94 1002.62,830.263 
  1024.06,842.48 1045.5,854.595 1066.94,866.612 1088.38,878.533 1109.82,890.363 1131.26,902.102 1152.7,913.755 1174.15,925.324 1195.59,936.811 1217.03,948.218 
  1238.47,959.548 1259.91,970.802 1281.35,981.983 1302.79,993.092 1324.23,1004.13 1345.67,1015.1 1367.11,1026.01 1388.56,1036.85 1410,1047.63 1431.44,1058.34 
  1452.88,1069 1474.32,1079.6 1495.76,1090.13 1517.2,1100.62 1538.64,1111.04 1560.08,1121.42 1581.52,1131.74 1602.97,1142.01 1624.41,1152.22 1645.85,1162.39 
  1667.29,1172.51 1688.73,1182.58 1710.17,1192.6 1731.61,1202.58 1753.05,1212.51 1774.49,1222.4 1795.93,1232.24 1817.37,1242.04 1838.82,1251.8 1860.26,1261.52 
  1881.7,1271.2 1903.14,1280.83 1924.58,1290.43 1946.02,1299.99 1967.46,1309.51 1988.9,1318.99 2010.34,1328.44 2031.78,1337.85 2053.23,1347.22 2074.67,1356.56 
  2096.11,1365.86 2117.55,1375.13 2138.99,1384.37 2160.43,1393.57 2181.87,1402.74 2203.31,1411.87 2224.75,1420.98 2246.19,1430.05 2267.64,1439.1 2289.08,1448.11 
  
  "/>
<polyline clip-path="url(#clip332)" style="stroke:#e26f46; stroke-width:4; stroke-opacity:1; fill:none" points="
  166.42,103.811 187.861,160.987 209.302,195.258 230.743,224.347 252.184,250.536 273.625,274.774 295.066,297.567 316.507,319.228 337.948,339.97 359.389,359.94 
  380.83,379.251 402.271,397.989 423.712,416.221 445.153,434.002 466.593,451.378 488.034,468.387 509.475,485.059 530.916,501.423 552.357,517.503 573.798,533.318 
  595.239,548.888 616.68,564.228 638.121,579.352 659.562,594.273 681.003,609.003 702.444,623.552 723.885,637.929 745.326,652.144 766.767,666.203 788.208,680.115 
  809.649,693.886 831.09,707.522 852.531,721.028 873.972,734.41 895.413,747.673 916.854,760.822 938.295,773.86 959.736,786.792 981.177,799.622 1002.62,812.352 
  1024.06,824.987 1045.5,837.529 1066.94,849.981 1088.38,862.347 1109.82,874.628 1131.26,886.828 1152.7,898.948 1174.15,910.991 1195.59,922.959 1217.03,934.854 
  1238.47,946.678 1259.91,958.433 1281.35,970.121 1302.79,981.743 1324.23,993.301 1345.67,1004.8 1367.11,1016.23 1388.56,1027.6 1410,1038.92 1431.44,1050.18 
  1452.88,1061.38 1474.32,1072.53 1495.76,1083.63 1517.2,1094.67 1538.64,1105.66 1560.08,1116.61 1581.52,1127.5 1602.97,1138.35 1624.41,1149.14 1645.85,1159.9 
  1667.29,1170.6 1688.73,1181.26 1710.17,1191.88 1731.61,1202.46 1753.05,1212.99 1774.49,1223.48 1795.93,1233.93 1817.37,1244.34 1838.82,1254.71 1860.26,1265.05 
  1881.7,1275.34 1903.14,1285.6 1924.58,1295.82 1946.02,1306 1967.46,1316.15 1988.9,1326.26 2010.34,1336.34 2031.78,1346.39 2053.23,1356.4 2074.67,1366.38 
  2096.11,1376.32 2117.55,1386.24 2138.99,1396.12 2160.43,1405.97 2181.87,1415.79 2203.31,1425.58 2224.75,1435.34 2246.19,1445.07 2267.64,1454.77 2289.08,1464.44 
  
  "/>
<path clip-path="url(#clip330)" d="
M1712.89 327.952 L2280.76 327.952 L2280.76 146.512 L1712.89 146.512  Z
  " fill="#ffffff" fill-rule="evenodd" fill-opacity="1"/>
<polyline clip-path="url(#clip330)" style="stroke:#000000; stroke-width:4; stroke-opacity:1; fill:none" points="
  1712.89,327.952 2280.76,327.952 2280.76,146.512 1712.89,146.512 1712.89,327.952 
  "/>
<polyline clip-path="url(#clip330)" style="stroke:#009af9; stroke-width:4; stroke-opacity:1; fill:none" points="
  1736.89,206.992 1880.89,206.992 
  "/>
<path clip-path="url(#clip330)" d="M 0 0 M1932.76 192.374 L1932.76 197.305 Q1930.4 195.106 1927.71 194.018 Q1925.05 192.93 1922.04 192.93 Q1916.11 192.93 1912.97 196.564 Q1909.82 200.175 1909.82 207.027 Q1909.82 213.856 1912.97 217.49 Q1916.11 221.101 1922.04 221.101 Q1925.05 221.101 1927.71 220.013 Q1930.4 218.925 1932.76 216.726 L1932.76 221.61 Q1930.3 223.277 1927.55 224.11 Q1924.82 224.943 1921.76 224.943 Q1913.92 224.943 1909.4 220.152 Q1904.89 215.337 1904.89 207.027 Q1904.89 198.694 1909.4 193.902 Q1913.92 189.087 1921.76 189.087 Q1924.86 189.087 1927.6 189.92 Q1930.35 190.731 1932.76 192.374 Z" fill="#000000" fill-rule="evenodd" fill-opacity="1" /><path clip-path="url(#clip330)" d="M 0 0 M1937.23 188.254 L1941.48 188.254 L1941.48 224.272 L1937.23 224.272 L1937.23 188.254 Z" fill="#000000" fill-rule="evenodd" fill-opacity="1" /><path clip-path="url(#clip330)" d="M 0 0 M1945.95 198.346 L1950.21 198.346 L1950.21 224.272 L1945.95 224.272 L1945.95 198.346 M1945.95 188.254 L1950.21 188.254 L1950.21 193.647 L1945.95 193.647 L1945.95 188.254 Z" fill="#000000" fill-rule="evenodd" fill-opacity="1" /><path clip-path="url(#clip330)" d="M 0 0 M1974.86 203.323 Q1976.46 200.453 1978.68 199.087 Q1980.91 197.721 1983.91 197.721 Q1987.97 197.721 1990.16 200.569 Q1992.36 203.393 1992.36 208.624 L1992.36 224.272 L1988.08 224.272 L1988.08 208.763 Q1988.08 205.036 1986.76 203.231 Q1985.44 201.425 1982.73 201.425 Q1979.42 201.425 1977.5 203.624 Q1975.58 205.823 1975.58 209.619 L1975.58 224.272 L1971.3 224.272 L1971.3 208.763 Q1971.3 205.013 1969.98 203.231 Q1968.66 201.425 1965.91 201.425 Q1962.64 201.425 1960.72 203.647 Q1958.8 205.846 1958.8 209.619 L1958.8 224.272 L1954.52 224.272 L1954.52 198.346 L1958.8 198.346 L1958.8 202.374 Q1960.26 199.99 1962.29 198.856 Q1964.33 197.721 1967.13 197.721 Q1969.96 197.721 1971.92 199.157 Q1973.91 200.592 1974.86 203.323 Z" fill="#000000" fill-rule="evenodd" fill-opacity="1" /><path clip-path="url(#clip330)" d="M 0 0 M2008.61 211.24 Q2003.45 211.24 2001.46 212.42 Q1999.47 213.601 1999.47 216.448 Q1999.47 218.717 2000.95 220.059 Q2002.46 221.379 2005.03 221.379 Q2008.57 221.379 2010.7 218.879 Q2012.85 216.356 2012.85 212.189 L2012.85 211.24 L2008.61 211.24 M2017.11 209.481 L2017.11 224.272 L2012.85 224.272 L2012.85 220.337 Q2011.39 222.698 2009.22 223.832 Q2007.04 224.943 2003.89 224.943 Q1999.91 224.943 1997.55 222.721 Q1995.21 220.476 1995.21 216.726 Q1995.21 212.351 1998.13 210.129 Q2001.07 207.906 2006.88 207.906 L2012.85 207.906 L2012.85 207.49 Q2012.85 204.55 2010.91 202.953 Q2008.98 201.332 2005.49 201.332 Q2003.27 201.332 2001.16 201.865 Q1999.05 202.397 1997.11 203.462 L1997.11 199.527 Q1999.45 198.624 2001.65 198.184 Q2003.85 197.721 2005.93 197.721 Q2011.55 197.721 2014.33 200.638 Q2017.11 203.555 2017.11 209.481 Z" fill="#000000" fill-rule="evenodd" fill-opacity="1" /><path clip-path="url(#clip330)" d="M 0 0 M2025.79 190.985 L2025.79 198.346 L2034.56 198.346 L2034.56 201.657 L2025.79 201.657 L2025.79 215.731 Q2025.79 218.902 2026.65 219.805 Q2027.53 220.707 2030.19 220.707 L2034.56 220.707 L2034.56 224.272 L2030.19 224.272 Q2025.26 224.272 2023.38 222.443 Q2021.51 220.592 2021.51 215.731 L2021.51 201.657 L2018.38 201.657 L2018.38 198.346 L2021.51 198.346 L2021.51 190.985 L2025.79 190.985 Z" fill="#000000" fill-rule="evenodd" fill-opacity="1" /><path clip-path="url(#clip330)" d="M 0 0 M2061.21 210.244 L2061.21 212.328 L2041.62 212.328 Q2041.9 216.726 2044.26 219.041 Q2046.65 221.332 2050.88 221.332 Q2053.34 221.332 2055.63 220.73 Q2057.94 220.129 2060.21 218.925 L2060.21 222.953 Q2057.92 223.925 2055.51 224.434 Q2053.1 224.943 2050.63 224.943 Q2044.42 224.943 2040.79 221.332 Q2037.18 217.721 2037.18 211.564 Q2037.18 205.198 2040.6 201.471 Q2044.05 197.721 2049.89 197.721 Q2055.12 197.721 2058.15 201.101 Q2061.21 204.457 2061.21 210.244 M2056.95 208.994 Q2056.9 205.499 2054.98 203.416 Q2053.08 201.332 2049.93 201.332 Q2046.37 201.332 2044.22 203.346 Q2042.09 205.36 2041.76 209.018 L2056.95 208.994 Z" fill="#000000" fill-rule="evenodd" fill-opacity="1" /><path clip-path="url(#clip330)" d="M 0 0 M2065.86 189.712 L2072.83 189.712 L2081.65 213.231 L2090.51 189.712 L2097.48 189.712 L2097.48 224.272 L2092.92 224.272 L2092.92 193.925 L2084.01 217.629 L2079.31 217.629 L2070.4 193.925 L2070.4 224.272 L2065.86 224.272 L2065.86 189.712 Z" fill="#000000" fill-rule="evenodd" fill-opacity="1" /><path clip-path="url(#clip330)" d="M 0 0 M2113.73 211.24 Q2108.57 211.24 2106.58 212.42 Q2104.59 213.601 2104.59 216.448 Q2104.59 218.717 2106.07 220.059 Q2107.57 221.379 2110.14 221.379 Q2113.68 221.379 2115.81 218.879 Q2117.96 216.356 2117.96 212.189 L2117.96 211.24 L2113.73 211.24 M2122.22 209.481 L2122.22 224.272 L2117.96 224.272 L2117.96 220.337 Q2116.51 222.698 2114.33 223.832 Q2112.15 224.943 2109.01 224.943 Q2105.03 224.943 2102.66 222.721 Q2100.33 220.476 2100.33 216.726 Q2100.33 212.351 2103.24 210.129 Q2106.18 207.906 2111.99 207.906 L2117.96 207.906 L2117.96 207.49 Q2117.96 204.55 2116.02 202.953 Q2114.1 201.332 2110.6 201.332 Q2108.38 201.332 2106.28 201.865 Q2104.17 202.397 2102.22 203.462 L2102.22 199.527 Q2104.56 198.624 2106.76 198.184 Q2108.96 197.721 2111.04 197.721 Q2116.67 197.721 2119.45 200.638 Q2122.22 203.555 2122.22 209.481 Z" fill="#000000" fill-rule="evenodd" fill-opacity="1" /><path clip-path="url(#clip330)" d="M 0 0 M2145.35 199.342 L2145.35 203.323 Q2143.54 202.328 2141.71 201.842 Q2139.91 201.332 2138.06 201.332 Q2133.91 201.332 2131.62 203.971 Q2129.33 206.587 2129.33 211.332 Q2129.33 216.078 2131.62 218.717 Q2133.91 221.332 2138.06 221.332 Q2139.91 221.332 2141.71 220.846 Q2143.54 220.337 2145.35 219.342 L2145.35 223.277 Q2143.57 224.11 2141.65 224.527 Q2139.75 224.943 2137.59 224.943 Q2131.74 224.943 2128.29 221.263 Q2124.84 217.582 2124.84 211.332 Q2124.84 204.99 2128.31 201.356 Q2131.81 197.721 2137.87 197.721 Q2139.84 197.721 2141.71 198.138 Q2143.59 198.532 2145.35 199.342 Z" fill="#000000" fill-rule="evenodd" fill-opacity="1" /><path clip-path="url(#clip330)" d="M 0 0 M2171.37 208.624 L2171.37 224.272 L2167.11 224.272 L2167.11 208.763 Q2167.11 205.082 2165.67 203.254 Q2164.24 201.425 2161.37 201.425 Q2157.92 201.425 2155.93 203.624 Q2153.94 205.823 2153.94 209.619 L2153.94 224.272 L2149.65 224.272 L2149.65 188.254 L2153.94 188.254 L2153.94 202.374 Q2155.46 200.036 2157.52 198.879 Q2159.61 197.721 2162.32 197.721 Q2166.78 197.721 2169.08 200.499 Q2171.37 203.254 2171.37 208.624 Z" fill="#000000" fill-rule="evenodd" fill-opacity="1" /><path clip-path="url(#clip330)" d="M 0 0 M2175.83 198.346 L2180.09 198.346 L2180.09 224.272 L2175.83 224.272 L2175.83 198.346 M2175.83 188.254 L2180.09 188.254 L2180.09 193.647 L2175.83 193.647 L2175.83 188.254 Z" fill="#000000" fill-rule="evenodd" fill-opacity="1" /><path clip-path="url(#clip330)" d="M 0 0 M2206.11 208.624 L2206.11 224.272 L2201.85 224.272 L2201.85 208.763 Q2201.85 205.082 2200.42 203.254 Q2198.98 201.425 2196.11 201.425 Q2192.66 201.425 2190.67 203.624 Q2188.68 205.823 2188.68 209.619 L2188.68 224.272 L2184.4 224.272 L2184.4 198.346 L2188.68 198.346 L2188.68 202.374 Q2190.21 200.036 2192.27 198.879 Q2194.35 197.721 2197.06 197.721 Q2201.53 197.721 2203.82 200.499 Q2206.11 203.254 2206.11 208.624 Z" fill="#000000" fill-rule="evenodd" fill-opacity="1" /><path clip-path="url(#clip330)" d="M 0 0 M2232.76 210.244 L2232.76 212.328 L2213.17 212.328 Q2213.45 216.726 2215.81 219.041 Q2218.2 221.332 2222.43 221.332 Q2224.89 221.332 2227.18 220.73 Q2229.49 220.129 2231.76 218.925 L2231.76 222.953 Q2229.47 223.925 2227.06 224.434 Q2224.65 224.943 2222.18 224.943 Q2215.97 224.943 2212.34 221.332 Q2208.73 217.721 2208.73 211.564 Q2208.73 205.198 2212.15 201.471 Q2215.6 197.721 2221.44 197.721 Q2226.67 197.721 2229.7 201.101 Q2232.76 204.457 2232.76 210.244 M2228.5 208.994 Q2228.45 205.499 2226.53 203.416 Q2224.63 201.332 2221.48 201.332 Q2217.92 201.332 2215.77 203.346 Q2213.64 205.36 2213.31 209.018 L2228.5 208.994 Z" fill="#000000" fill-rule="evenodd" fill-opacity="1" /><polyline clip-path="url(#clip330)" style="stroke:#e26f46; stroke-width:4; stroke-opacity:1; fill:none" points="
  1736.89,267.472 1880.89,267.472 
  "/>
<path clip-path="url(#clip330)" d="M 0 0 M1928.91 270.724 L1928.91 272.808 L1909.33 272.808 Q1909.61 277.206 1911.97 279.521 Q1914.35 281.812 1918.59 281.812 Q1921.04 281.812 1923.34 281.21 Q1925.65 280.609 1927.92 279.405 L1927.92 283.433 Q1925.63 284.405 1923.22 284.914 Q1920.81 285.423 1918.34 285.423 Q1912.13 285.423 1908.5 281.812 Q1904.89 278.201 1904.89 272.044 Q1904.89 265.678 1908.31 261.951 Q1911.76 258.201 1917.6 258.201 Q1922.83 258.201 1925.86 261.581 Q1928.91 264.937 1928.91 270.724 M1924.66 269.474 Q1924.61 265.979 1922.69 263.896 Q1920.79 261.812 1917.64 261.812 Q1914.08 261.812 1911.92 263.826 Q1909.79 265.84 1909.47 269.498 L1924.66 269.474 Z" fill="#000000" fill-rule="evenodd" fill-opacity="1" /><path clip-path="url(#clip330)" d="M 0 0 M1953.57 263.803 Q1955.16 260.933 1957.39 259.567 Q1959.61 258.201 1962.62 258.201 Q1966.67 258.201 1968.87 261.049 Q1971.07 263.873 1971.07 269.104 L1971.07 284.752 L1966.79 284.752 L1966.79 269.243 Q1966.79 265.516 1965.47 263.711 Q1964.15 261.905 1961.44 261.905 Q1958.13 261.905 1956.21 264.104 Q1954.29 266.303 1954.29 270.099 L1954.29 284.752 L1950 284.752 L1950 269.243 Q1950 265.493 1948.68 263.711 Q1947.36 261.905 1944.61 261.905 Q1941.35 261.905 1939.42 264.127 Q1937.5 266.326 1937.5 270.099 L1937.5 284.752 L1933.22 284.752 L1933.22 258.826 L1937.5 258.826 L1937.5 262.854 Q1938.96 260.47 1941 259.336 Q1943.04 258.201 1945.84 258.201 Q1948.66 258.201 1950.63 259.637 Q1952.62 261.072 1953.57 263.803 Z" fill="#000000" fill-rule="evenodd" fill-opacity="1" /><path clip-path="url(#clip330)" d="M 0 0 M1979.66 280.863 L1979.66 294.613 L1975.37 294.613 L1975.37 258.826 L1979.66 258.826 L1979.66 262.762 Q1981 260.447 1983.04 259.336 Q1985.1 258.201 1987.94 258.201 Q1992.66 258.201 1995.6 261.951 Q1998.57 265.701 1998.57 271.812 Q1998.57 277.923 1995.6 281.673 Q1992.66 285.423 1987.94 285.423 Q1985.1 285.423 1983.04 284.312 Q1981 283.178 1979.66 280.863 M1994.15 271.812 Q1994.15 267.113 1992.2 264.451 Q1990.28 261.766 1986.9 261.766 Q1983.52 261.766 1981.58 264.451 Q1979.66 267.113 1979.66 271.812 Q1979.66 276.511 1981.58 279.197 Q1983.52 281.859 1986.9 281.859 Q1990.28 281.859 1992.2 279.197 Q1994.15 276.511 1994.15 271.812 Z" fill="#000000" fill-rule="evenodd" fill-opacity="1" /><path clip-path="url(#clip330)" d="M 0 0 M2003.03 258.826 L2007.29 258.826 L2007.29 284.752 L2003.03 284.752 L2003.03 258.826 M2003.03 248.734 L2007.29 248.734 L2007.29 254.127 L2003.03 254.127 L2003.03 248.734 Z" fill="#000000" fill-rule="evenodd" fill-opacity="1" /><path clip-path="url(#clip330)" d="M 0 0 M2026.78 262.808 Q2026.07 262.391 2025.21 262.206 Q2024.38 261.998 2023.36 261.998 Q2019.75 261.998 2017.8 264.359 Q2015.88 266.697 2015.88 271.095 L2015.88 284.752 L2011.6 284.752 L2011.6 258.826 L2015.88 258.826 L2015.88 262.854 Q2017.22 260.493 2019.38 259.359 Q2021.53 258.201 2024.61 258.201 Q2025.05 258.201 2025.58 258.271 Q2026.11 258.317 2026.76 258.433 L2026.78 262.808 Z" fill="#000000" fill-rule="evenodd" fill-opacity="1" /><path clip-path="url(#clip330)" d="M 0 0 M2031.25 258.826 L2035.51 258.826 L2035.51 284.752 L2031.25 284.752 L2031.25 258.826 M2031.25 248.734 L2035.51 248.734 L2035.51 254.127 L2031.25 254.127 L2031.25 248.734 Z" fill="#000000" fill-rule="evenodd" fill-opacity="1" /><path clip-path="url(#clip330)" d="M 0 0 M2058.64 259.822 L2058.64 263.803 Q2056.83 262.808 2055 262.322 Q2053.2 261.812 2051.34 261.812 Q2047.2 261.812 2044.91 264.451 Q2042.62 267.067 2042.62 271.812 Q2042.62 276.558 2044.91 279.197 Q2047.2 281.812 2051.34 281.812 Q2053.2 281.812 2055 281.326 Q2056.83 280.817 2058.64 279.822 L2058.64 283.757 Q2056.85 284.59 2054.93 285.007 Q2053.03 285.423 2050.88 285.423 Q2045.03 285.423 2041.58 281.743 Q2038.13 278.062 2038.13 271.812 Q2038.13 265.47 2041.6 261.836 Q2045.09 258.201 2051.16 258.201 Q2053.13 258.201 2055 258.618 Q2056.88 259.012 2058.64 259.822 Z" fill="#000000" fill-rule="evenodd" fill-opacity="1" /><path clip-path="url(#clip330)" d="M 0 0 M2074.89 271.72 Q2069.72 271.72 2067.73 272.9 Q2065.74 274.081 2065.74 276.928 Q2065.74 279.197 2067.22 280.539 Q2068.73 281.859 2071.3 281.859 Q2074.84 281.859 2076.97 279.359 Q2079.12 276.836 2079.12 272.669 L2079.12 271.72 L2074.89 271.72 M2083.38 269.961 L2083.38 284.752 L2079.12 284.752 L2079.12 280.817 Q2077.66 283.178 2075.49 284.312 Q2073.31 285.423 2070.16 285.423 Q2066.18 285.423 2063.82 283.201 Q2061.48 280.956 2061.48 277.206 Q2061.48 272.831 2064.4 270.609 Q2067.34 268.386 2073.15 268.386 L2079.12 268.386 L2079.12 267.97 Q2079.12 265.03 2077.18 263.433 Q2075.26 261.812 2071.76 261.812 Q2069.54 261.812 2067.43 262.345 Q2065.33 262.877 2063.38 263.942 L2063.38 260.007 Q2065.72 259.104 2067.92 258.664 Q2070.12 258.201 2072.2 258.201 Q2077.83 258.201 2080.6 261.118 Q2083.38 264.035 2083.38 269.961 Z" fill="#000000" fill-rule="evenodd" fill-opacity="1" /><path clip-path="url(#clip330)" d="M 0 0 M2087.85 248.734 L2092.11 248.734 L2092.11 284.752 L2087.85 284.752 L2087.85 248.734 Z" fill="#000000" fill-rule="evenodd" fill-opacity="1" /></svg>
