<?xml version="1.0" encoding="utf-8"?>
<svg xmlns="http://www.w3.org/2000/svg" xmlns:xlink="http://www.w3.org/1999/xlink" width="600" height="400" viewBox="0 0 2400 1600">
<defs>
  <clipPath id="clip430">
    <rect x="0" y="0" width="2400" height="1600"/>
  </clipPath>
</defs>
<path clip-path="url(#clip430)" d="
M0 1600 L2400 1600 L2400 0 L0 0  Z
  " fill="#ffffff" fill-rule="evenodd" fill-opacity="1"/>
<defs>
  <clipPath id="clip431">
    <rect x="480" y="0" width="1681" height="1600"/>
  </clipPath>
</defs>
<path clip-path="url(#clip430)" d="
M102.74 1505.26 L2352.76 1505.26 L2352.76 62.9921 L102.74 62.9921  Z
  " fill="#ffffff" fill-rule="evenodd" fill-opacity="1"/>
<defs>
  <clipPath id="clip432">
    <rect x="102" y="62" width="2251" height="1443"/>
  </clipPath>
</defs>
<polyline clip-path="url(#clip432)" style="stroke:#000000; stroke-width:2; stroke-opacity:0.1; fill:none" points="
  160.571,1505.26 160.571,62.9921 
  "/>
<polyline clip-path="url(#clip432)" style="stroke:#000000; stroke-width:2; stroke-opacity:0.1; fill:none" points="
  649.867,1505.26 649.867,62.9921 
  "/>
<polyline clip-path="url(#clip432)" style="stroke:#000000; stroke-width:2; stroke-opacity:0.1; fill:none" points="
  1139.16,1505.26 1139.16,62.9921 
  "/>
<polyline clip-path="url(#clip432)" style="stroke:#000000; stroke-width:2; stroke-opacity:0.1; fill:none" points="
  1628.46,1505.26 1628.46,62.9921 
  "/>
<polyline clip-path="url(#clip432)" style="stroke:#000000; stroke-width:2; stroke-opacity:0.1; fill:none" points="
  2117.75,1505.26 2117.75,62.9921 
  "/>
<polyline clip-path="url(#clip432)" style="stroke:#000000; stroke-width:2; stroke-opacity:0.1; fill:none" points="
  102.74,1313.26 2352.76,1313.26 
  "/>
<polyline clip-path="url(#clip432)" style="stroke:#000000; stroke-width:2; stroke-opacity:0.1; fill:none" points="
  102.74,1010.9 2352.76,1010.9 
  "/>
<polyline clip-path="url(#clip432)" style="stroke:#000000; stroke-width:2; stroke-opacity:0.1; fill:none" points="
  102.74,708.535 2352.76,708.535 
  "/>
<polyline clip-path="url(#clip432)" style="stroke:#000000; stroke-width:2; stroke-opacity:0.1; fill:none" points="
  102.74,406.173 2352.76,406.173 
  "/>
<polyline clip-path="url(#clip432)" style="stroke:#000000; stroke-width:2; stroke-opacity:0.1; fill:none" points="
  102.74,103.811 2352.76,103.811 
  "/>
<polyline clip-path="url(#clip430)" style="stroke:#000000; stroke-width:4; stroke-opacity:1; fill:none" points="
  102.74,1505.26 2352.76,1505.26 
  "/>
<polyline clip-path="url(#clip430)" style="stroke:#000000; stroke-width:4; stroke-opacity:1; fill:none" points="
  102.74,1505.26 102.74,62.9921 
  "/>
<polyline clip-path="url(#clip430)" style="stroke:#000000; stroke-width:4; stroke-opacity:1; fill:none" points="
  160.571,1505.26 160.571,1487.95 
  "/>
<polyline clip-path="url(#clip430)" style="stroke:#000000; stroke-width:4; stroke-opacity:1; fill:none" points="
  649.867,1505.26 649.867,1487.95 
  "/>
<polyline clip-path="url(#clip430)" style="stroke:#000000; stroke-width:4; stroke-opacity:1; fill:none" points="
  1139.16,1505.26 1139.16,1487.95 
  "/>
<polyline clip-path="url(#clip430)" style="stroke:#000000; stroke-width:4; stroke-opacity:1; fill:none" points="
  1628.46,1505.26 1628.46,1487.95 
  "/>
<polyline clip-path="url(#clip430)" style="stroke:#000000; stroke-width:4; stroke-opacity:1; fill:none" points="
  2117.75,1505.26 2117.75,1487.95 
  "/>
<polyline clip-path="url(#clip430)" style="stroke:#000000; stroke-width:4; stroke-opacity:1; fill:none" points="
  102.74,1313.26 129.74,1313.26 
  "/>
<polyline clip-path="url(#clip430)" style="stroke:#000000; stroke-width:4; stroke-opacity:1; fill:none" points="
  102.74,1010.9 129.74,1010.9 
  "/>
<polyline clip-path="url(#clip430)" style="stroke:#000000; stroke-width:4; stroke-opacity:1; fill:none" points="
  102.74,708.535 129.74,708.535 
  "/>
<polyline clip-path="url(#clip430)" style="stroke:#000000; stroke-width:4; stroke-opacity:1; fill:none" points="
  102.74,406.173 129.74,406.173 
  "/>
<polyline clip-path="url(#clip430)" style="stroke:#000000; stroke-width:4; stroke-opacity:1; fill:none" points="
  102.74,103.811 129.74,103.811 
  "/>
<path clip-path="url(#clip430)" d="M 0 0 M160.571 1527.25 Q156.96 1527.25 155.131 1530.82 Q153.326 1534.36 153.326 1541.49 Q153.326 1548.59 155.131 1552.16 Q156.96 1555.7 160.571 1555.7 Q164.205 1555.7 166.011 1552.16 Q167.839 1548.59 167.839 1541.49 Q167.839 1534.36 166.011 1530.82 Q164.205 1527.25 160.571 1527.25 M160.571 1523.55 Q166.381 1523.55 169.437 1528.15 Q172.515 1532.74 172.515 1541.49 Q172.515 1550.21 169.437 1554.82 Q166.381 1559.4 160.571 1559.4 Q154.761 1559.4 151.682 1554.82 Q148.627 1550.21 148.627 1541.49 Q148.627 1532.74 151.682 1528.15 Q154.761 1523.55 160.571 1523.55 Z" fill="#000000" fill-rule="evenodd" fill-opacity="1" /><path clip-path="url(#clip430)" d="M 0 0 M618.004 1554.8 L634.323 1554.8 L634.323 1558.73 L612.379 1558.73 L612.379 1554.8 Q615.041 1552.04 619.624 1547.41 Q624.231 1542.76 625.411 1541.42 Q627.656 1538.89 628.536 1537.16 Q629.439 1535.4 629.439 1533.71 Q629.439 1530.95 627.494 1529.22 Q625.573 1527.48 622.471 1527.48 Q620.272 1527.48 617.819 1528.25 Q615.388 1529.01 612.61 1530.56 L612.61 1525.84 Q615.434 1524.7 617.888 1524.13 Q620.342 1523.55 622.379 1523.55 Q627.749 1523.55 630.943 1526.23 Q634.138 1528.92 634.138 1533.41 Q634.138 1535.54 633.328 1537.46 Q632.541 1539.36 630.434 1541.95 Q629.855 1542.62 626.754 1545.84 Q623.652 1549.03 618.004 1554.8 Z" fill="#000000" fill-rule="evenodd" fill-opacity="1" /><path clip-path="url(#clip430)" d="M 0 0 M639.439 1524.17 L657.795 1524.17 L657.795 1528.11 L643.721 1528.11 L643.721 1536.58 Q644.74 1536.23 645.758 1536.07 Q646.777 1535.88 647.795 1535.88 Q653.582 1535.88 656.962 1539.06 Q660.341 1542.23 660.341 1547.64 Q660.341 1553.22 656.869 1556.32 Q653.397 1559.4 647.078 1559.4 Q644.902 1559.4 642.633 1559.03 Q640.388 1558.66 637.98 1557.92 L637.98 1553.22 Q640.064 1554.36 642.286 1554.91 Q644.508 1555.47 646.985 1555.47 Q650.99 1555.47 653.328 1553.36 Q655.666 1551.26 655.666 1547.64 Q655.666 1544.03 653.328 1541.93 Q650.99 1539.82 646.985 1539.82 Q645.11 1539.82 643.235 1540.24 Q641.383 1540.65 639.439 1541.53 L639.439 1524.17 Z" fill="#000000" fill-rule="evenodd" fill-opacity="1" /><path clip-path="url(#clip430)" d="M 0 0 M675.411 1527.25 Q671.8 1527.25 669.971 1530.82 Q668.165 1534.36 668.165 1541.49 Q668.165 1548.59 669.971 1552.16 Q671.8 1555.7 675.411 1555.7 Q679.045 1555.7 680.851 1552.16 Q682.679 1548.59 682.679 1541.49 Q682.679 1534.36 680.851 1530.82 Q679.045 1527.25 675.411 1527.25 M675.411 1523.55 Q681.221 1523.55 684.276 1528.15 Q687.355 1532.74 687.355 1541.49 Q687.355 1550.21 684.276 1554.82 Q681.221 1559.4 675.411 1559.4 Q669.601 1559.4 666.522 1554.82 Q663.466 1550.21 663.466 1541.49 Q663.466 1532.74 666.522 1528.15 Q669.601 1523.55 675.411 1523.55 Z" fill="#000000" fill-rule="evenodd" fill-opacity="1" /><path clip-path="url(#clip430)" d="M 0 0 M1102.43 1524.17 L1120.78 1524.17 L1120.78 1528.11 L1106.71 1528.11 L1106.71 1536.58 Q1107.73 1536.23 1108.75 1536.07 Q1109.76 1535.88 1110.78 1535.88 Q1116.57 1535.88 1119.95 1539.06 Q1123.33 1542.23 1123.33 1547.64 Q1123.33 1553.22 1119.86 1556.32 Q1116.39 1559.4 1110.07 1559.4 Q1107.89 1559.4 1105.62 1559.03 Q1103.38 1558.66 1100.97 1557.92 L1100.97 1553.22 Q1103.05 1554.36 1105.27 1554.91 Q1107.5 1555.47 1109.97 1555.47 Q1113.98 1555.47 1116.32 1553.36 Q1118.65 1551.26 1118.65 1547.64 Q1118.65 1544.03 1116.32 1541.93 Q1113.98 1539.82 1109.97 1539.82 Q1108.1 1539.82 1106.22 1540.24 Q1104.37 1540.65 1102.43 1541.53 L1102.43 1524.17 Z" fill="#000000" fill-rule="evenodd" fill-opacity="1" /><path clip-path="url(#clip430)" d="M 0 0 M1138.4 1527.25 Q1134.79 1527.25 1132.96 1530.82 Q1131.15 1534.36 1131.15 1541.49 Q1131.15 1548.59 1132.96 1552.16 Q1134.79 1555.7 1138.4 1555.7 Q1142.03 1555.7 1143.84 1552.16 Q1145.67 1548.59 1145.67 1541.49 Q1145.67 1534.36 1143.84 1530.82 Q1142.03 1527.25 1138.4 1527.25 M1138.4 1523.55 Q1144.21 1523.55 1147.26 1528.15 Q1150.34 1532.74 1150.34 1541.49 Q1150.34 1550.21 1147.26 1554.82 Q1144.21 1559.4 1138.4 1559.4 Q1132.59 1559.4 1129.51 1554.82 Q1126.45 1550.21 1126.45 1541.49 Q1126.45 1532.74 1129.51 1528.15 Q1132.59 1523.55 1138.4 1523.55 Z" fill="#000000" fill-rule="evenodd" fill-opacity="1" /><path clip-path="url(#clip430)" d="M 0 0 M1165.41 1527.25 Q1161.8 1527.25 1159.97 1530.82 Q1158.17 1534.36 1158.17 1541.49 Q1158.17 1548.59 1159.97 1552.16 Q1161.8 1555.7 1165.41 1555.7 Q1169.05 1555.7 1170.85 1552.16 Q1172.68 1548.59 1172.68 1541.49 Q1172.68 1534.36 1170.85 1530.82 Q1169.05 1527.25 1165.41 1527.25 M1165.41 1523.55 Q1171.22 1523.55 1174.28 1528.15 Q1177.36 1532.74 1177.36 1541.49 Q1177.36 1550.21 1174.28 1554.82 Q1171.22 1559.4 1165.41 1559.4 Q1159.6 1559.4 1156.52 1554.82 Q1153.47 1550.21 1153.47 1541.49 Q1153.47 1532.74 1156.52 1528.15 Q1159.6 1523.55 1165.41 1523.55 Z" fill="#000000" fill-rule="evenodd" fill-opacity="1" /><path clip-path="url(#clip430)" d="M 0 0 M1590.83 1524.17 L1613.05 1524.17 L1613.05 1526.16 L1600.51 1558.73 L1595.62 1558.73 L1607.43 1528.11 L1590.83 1528.11 L1590.83 1524.17 Z" fill="#000000" fill-rule="evenodd" fill-opacity="1" /><path clip-path="url(#clip430)" d="M 0 0 M1618.17 1524.17 L1636.53 1524.17 L1636.53 1528.11 L1622.45 1528.11 L1622.45 1536.58 Q1623.47 1536.23 1624.49 1536.07 Q1625.51 1535.88 1626.53 1535.88 Q1632.31 1535.88 1635.69 1539.06 Q1639.07 1542.23 1639.07 1547.64 Q1639.07 1553.22 1635.6 1556.32 Q1632.13 1559.4 1625.81 1559.4 Q1623.63 1559.4 1621.36 1559.03 Q1619.12 1558.66 1616.71 1557.92 L1616.71 1553.22 Q1618.79 1554.36 1621.02 1554.91 Q1623.24 1555.47 1625.72 1555.47 Q1629.72 1555.47 1632.06 1553.36 Q1634.4 1551.26 1634.4 1547.64 Q1634.4 1544.03 1632.06 1541.93 Q1629.72 1539.82 1625.72 1539.82 Q1623.84 1539.82 1621.97 1540.24 Q1620.11 1540.65 1618.17 1541.53 L1618.17 1524.17 Z" fill="#000000" fill-rule="evenodd" fill-opacity="1" /><path clip-path="url(#clip430)" d="M 0 0 M1654.14 1527.25 Q1650.53 1527.25 1648.7 1530.82 Q1646.9 1534.36 1646.9 1541.49 Q1646.9 1548.59 1648.7 1552.16 Q1650.53 1555.7 1654.14 1555.7 Q1657.78 1555.7 1659.58 1552.16 Q1661.41 1548.59 1661.41 1541.49 Q1661.41 1534.36 1659.58 1530.82 Q1657.78 1527.25 1654.14 1527.25 M1654.14 1523.55 Q1659.95 1523.55 1663.01 1528.15 Q1666.09 1532.74 1666.09 1541.49 Q1666.09 1550.21 1663.01 1554.82 Q1659.95 1559.4 1654.14 1559.4 Q1648.33 1559.4 1645.25 1554.82 Q1642.2 1550.21 1642.2 1541.49 Q1642.2 1532.74 1645.25 1528.15 Q1648.33 1523.55 1654.14 1523.55 Z" fill="#000000" fill-rule="evenodd" fill-opacity="1" /><path clip-path="url(#clip430)" d="M 0 0 M2067.62 1554.8 L2075.26 1554.8 L2075.26 1528.43 L2066.94 1530.1 L2066.94 1525.84 L2075.21 1524.17 L2079.88 1524.17 L2079.88 1554.8 L2087.52 1554.8 L2087.52 1558.73 L2067.62 1558.73 L2067.62 1554.8 Z" fill="#000000" fill-rule="evenodd" fill-opacity="1" /><path clip-path="url(#clip430)" d="M 0 0 M2102.59 1527.25 Q2098.98 1527.25 2097.15 1530.82 Q2095.35 1534.36 2095.35 1541.49 Q2095.35 1548.59 2097.15 1552.16 Q2098.98 1555.7 2102.59 1555.7 Q2106.23 1555.7 2108.03 1552.16 Q2109.86 1548.59 2109.86 1541.49 Q2109.86 1534.36 2108.03 1530.82 Q2106.23 1527.25 2102.59 1527.25 M2102.59 1523.55 Q2108.4 1523.55 2111.46 1528.15 Q2114.54 1532.74 2114.54 1541.49 Q2114.54 1550.21 2111.46 1554.82 Q2108.4 1559.4 2102.59 1559.4 Q2096.78 1559.4 2093.7 1554.82 Q2090.65 1550.21 2090.65 1541.49 Q2090.65 1532.74 2093.7 1528.15 Q2096.78 1523.55 2102.59 1523.55 Z" fill="#000000" fill-rule="evenodd" fill-opacity="1" /><path clip-path="url(#clip430)" d="M 0 0 M2129.61 1527.25 Q2126 1527.25 2124.17 1530.82 Q2122.36 1534.36 2122.36 1541.49 Q2122.36 1548.59 2124.17 1552.16 Q2126 1555.7 2129.61 1555.7 Q2133.24 1555.7 2135.05 1552.16 Q2136.88 1548.59 2136.88 1541.49 Q2136.88 1534.36 2135.05 1530.82 Q2133.24 1527.25 2129.61 1527.25 M2129.61 1523.55 Q2135.42 1523.55 2138.47 1528.15 Q2141.55 1532.74 2141.55 1541.49 Q2141.55 1550.21 2138.47 1554.82 Q2135.42 1559.4 2129.61 1559.4 Q2123.8 1559.4 2120.72 1554.82 Q2117.66 1550.21 2117.66 1541.49 Q2117.66 1532.74 2120.72 1528.15 Q2123.8 1523.55 2129.61 1523.55 Z" fill="#000000" fill-rule="evenodd" fill-opacity="1" /><path clip-path="url(#clip430)" d="M 0 0 M2156.62 1527.25 Q2153.01 1527.25 2151.18 1530.82 Q2149.37 1534.36 2149.37 1541.49 Q2149.37 1548.59 2151.18 1552.16 Q2153.01 1555.7 2156.62 1555.7 Q2160.25 1555.7 2162.06 1552.16 Q2163.89 1548.59 2163.89 1541.49 Q2163.89 1534.36 2162.06 1530.82 Q2160.25 1527.25 2156.62 1527.25 M2156.62 1523.55 Q2162.43 1523.55 2165.49 1528.15 Q2168.56 1532.74 2168.56 1541.49 Q2168.56 1550.21 2165.49 1554.82 Q2162.43 1559.4 2156.62 1559.4 Q2150.81 1559.4 2147.73 1554.82 Q2144.68 1550.21 2144.68 1541.49 Q2144.68 1532.74 2147.73 1528.15 Q2150.81 1523.55 2156.62 1523.55 Z" fill="#000000" fill-rule="evenodd" fill-opacity="1" /><path clip-path="url(#clip430)" d="M 0 0 M35.4071 1326.6 L51.7264 1326.6 L51.7264 1330.54 L29.7821 1330.54 L29.7821 1326.6 Q32.4441 1323.85 37.0274 1319.22 Q41.6339 1314.57 42.8144 1313.23 Q45.0598 1310.7 45.9394 1308.97 Q46.8422 1307.21 46.8422 1305.52 Q46.8422 1302.76 44.8977 1301.03 Q42.9765 1299.29 39.8746 1299.29 Q37.6756 1299.29 35.2219 1300.05 Q32.7913 1300.82 30.0136 1302.37 L30.0136 1297.65 Q32.8376 1296.51 35.2913 1295.93 Q37.745 1295.35 39.782 1295.35 Q45.1524 1295.35 48.3468 1298.04 Q51.5412 1300.73 51.5412 1305.22 Q51.5412 1307.35 50.731 1309.27 Q49.944 1311.16 47.8375 1313.76 Q47.2588 1314.43 44.157 1317.65 Q41.0552 1320.84 35.4071 1326.6 Z" fill="#000000" fill-rule="evenodd" fill-opacity="1" /><path clip-path="url(#clip430)" d="M 0 0 M66.7958 1299.06 Q63.1847 1299.06 61.356 1302.62 Q59.5504 1306.16 59.5504 1313.29 Q59.5504 1320.4 61.356 1323.97 Q63.1847 1327.51 66.7958 1327.51 Q70.43 1327.51 72.2356 1323.97 Q74.0643 1320.4 74.0643 1313.29 Q74.0643 1306.16 72.2356 1302.62 Q70.43 1299.06 66.7958 1299.06 M66.7958 1295.35 Q72.6059 1295.35 75.6615 1299.96 Q78.7402 1304.54 78.7402 1313.29 Q78.7402 1322.02 75.6615 1326.63 Q72.6059 1331.21 66.7958 1331.21 Q60.9856 1331.21 57.9069 1326.63 Q54.8514 1322.02 54.8514 1313.29 Q54.8514 1304.54 57.9069 1299.96 Q60.9856 1295.35 66.7958 1295.35 Z" fill="#000000" fill-rule="evenodd" fill-opacity="1" /><path clip-path="url(#clip430)" d="M 0 0 M42.1431 997.692 L30.3376 1016.14 L42.1431 1016.14 L42.1431 997.692 M40.9163 993.618 L46.7959 993.618 L46.7959 1016.14 L51.7264 1016.14 L51.7264 1020.03 L46.7959 1020.03 L46.7959 1028.18 L42.1431 1028.18 L42.1431 1020.03 L26.5414 1020.03 L26.5414 1015.52 L40.9163 993.618 Z" fill="#000000" fill-rule="evenodd" fill-opacity="1" /><path clip-path="url(#clip430)" d="M 0 0 M66.7958 996.696 Q63.1847 996.696 61.356 1000.26 Q59.5504 1003.8 59.5504 1010.93 Q59.5504 1018.04 61.356 1021.6 Q63.1847 1025.15 66.7958 1025.15 Q70.43 1025.15 72.2356 1021.6 Q74.0643 1018.04 74.0643 1010.93 Q74.0643 1003.8 72.2356 1000.26 Q70.43 996.696 66.7958 996.696 M66.7958 992.993 Q72.6059 992.993 75.6615 997.599 Q78.7402 1002.18 78.7402 1010.93 Q78.7402 1019.66 75.6615 1024.27 Q72.6059 1028.85 66.7958 1028.85 Q60.9856 1028.85 57.9069 1024.27 Q54.8514 1019.66 54.8514 1010.93 Q54.8514 1002.18 57.9069 997.599 Q60.9856 992.993 66.7958 992.993 Z" fill="#000000" fill-rule="evenodd" fill-opacity="1" /><path clip-path="url(#clip430)" d="M 0 0 M40.1987 706.672 Q37.0506 706.672 35.1987 708.825 Q33.37 710.978 33.37 714.728 Q33.37 718.454 35.1987 720.63 Q37.0506 722.783 40.1987 722.783 Q43.3468 722.783 45.1755 720.63 Q47.0274 718.454 47.0274 714.728 Q47.0274 710.978 45.1755 708.825 Q43.3468 706.672 40.1987 706.672 M49.4811 692.019 L49.4811 696.279 Q47.7218 695.445 45.9163 695.005 Q44.1339 694.566 42.3746 694.566 Q37.745 694.566 35.2913 697.691 Q32.8608 700.816 32.5136 707.135 Q33.8793 705.121 35.9395 704.056 Q37.9996 702.968 40.4765 702.968 Q45.6848 702.968 48.694 706.14 Q51.7264 709.288 51.7264 714.728 Q51.7264 720.052 48.5783 723.269 Q45.4302 726.487 40.1987 726.487 Q34.2034 726.487 31.0321 721.903 Q27.8608 717.297 27.8608 708.57 Q27.8608 700.376 31.7497 695.515 Q35.6385 690.63 42.1894 690.63 Q43.9487 690.63 45.7311 690.978 Q47.5366 691.325 49.4811 692.019 Z" fill="#000000" fill-rule="evenodd" fill-opacity="1" /><path clip-path="url(#clip430)" d="M 0 0 M66.7958 694.334 Q63.1847 694.334 61.356 697.899 Q59.5504 701.441 59.5504 708.57 Q59.5504 715.677 61.356 719.241 Q63.1847 722.783 66.7958 722.783 Q70.43 722.783 72.2356 719.241 Q74.0643 715.677 74.0643 708.57 Q74.0643 701.441 72.2356 697.899 Q70.43 694.334 66.7958 694.334 M66.7958 690.63 Q72.6059 690.63 75.6615 695.237 Q78.7402 699.82 78.7402 708.57 Q78.7402 717.297 75.6615 721.903 Q72.6059 726.487 66.7958 726.487 Q60.9856 726.487 57.9069 721.903 Q54.8514 717.297 54.8514 708.57 Q54.8514 699.82 57.9069 695.237 Q60.9856 690.63 66.7958 690.63 Z" fill="#000000" fill-rule="evenodd" fill-opacity="1" /><path clip-path="url(#clip430)" d="M 0 0 M39.8746 407.041 Q36.5413 407.041 34.62 408.824 Q32.7219 410.606 32.7219 413.731 Q32.7219 416.856 34.62 418.638 Q36.5413 420.421 39.8746 420.421 Q43.2079 420.421 45.1292 418.638 Q47.0505 416.833 47.0505 413.731 Q47.0505 410.606 45.1292 408.824 Q43.2311 407.041 39.8746 407.041 M35.1987 405.051 Q32.1895 404.31 30.4997 402.25 Q28.833 400.189 28.833 397.227 Q28.833 393.083 31.7728 390.676 Q34.7358 388.268 39.8746 388.268 Q45.0366 388.268 47.9764 390.676 Q50.9162 393.083 50.9162 397.227 Q50.9162 400.189 49.2264 402.25 Q47.5598 404.31 44.5737 405.051 Q47.9533 405.838 49.8283 408.129 Q51.7264 410.421 51.7264 413.731 Q51.7264 418.754 48.6477 421.439 Q45.5922 424.125 39.8746 424.125 Q34.1571 424.125 31.0784 421.439 Q28.0228 418.754 28.0228 413.731 Q28.0228 410.421 29.921 408.129 Q31.8191 405.838 35.1987 405.051 M33.4858 397.666 Q33.4858 400.352 35.1524 401.856 Q36.8422 403.361 39.8746 403.361 Q42.8839 403.361 44.5737 401.856 Q46.2866 400.352 46.2866 397.666 Q46.2866 394.981 44.5737 393.477 Q42.8839 391.972 39.8746 391.972 Q36.8422 391.972 35.1524 393.477 Q33.4858 394.981 33.4858 397.666 Z" fill="#000000" fill-rule="evenodd" fill-opacity="1" /><path clip-path="url(#clip430)" d="M 0 0 M66.7958 391.972 Q63.1847 391.972 61.356 395.537 Q59.5504 399.078 59.5504 406.208 Q59.5504 413.314 61.356 416.879 Q63.1847 420.421 66.7958 420.421 Q70.43 420.421 72.2356 416.879 Q74.0643 413.314 74.0643 406.208 Q74.0643 399.078 72.2356 395.537 Q70.43 391.972 66.7958 391.972 M66.7958 388.268 Q72.6059 388.268 75.6615 392.875 Q78.7402 397.458 78.7402 406.208 Q78.7402 414.935 75.6615 419.541 Q72.6059 424.125 66.7958 424.125 Q60.9856 424.125 57.9069 419.541 Q54.8514 414.935 54.8514 406.208 Q54.8514 397.458 57.9069 392.875 Q60.9856 388.268 66.7958 388.268 Z" fill="#000000" fill-rule="evenodd" fill-opacity="1" /><path clip-path="url(#clip430)" d="M 0 0 M4.80537 117.156 L12.4442 117.156 L12.4442 90.7903 L4.13408 92.4569 L4.13408 88.1977 L12.3979 86.531 L17.0738 86.531 L17.0738 117.156 L24.7127 117.156 L24.7127 121.091 L4.80537 121.091 L4.80537 117.156 Z" fill="#000000" fill-rule="evenodd" fill-opacity="1" /><path clip-path="url(#clip430)" d="M 0 0 M39.782 89.6097 Q36.1709 89.6097 34.3422 93.1745 Q32.5367 96.7162 32.5367 103.846 Q32.5367 110.952 34.3422 114.517 Q36.1709 118.059 39.782 118.059 Q43.4163 118.059 45.2218 114.517 Q47.0505 110.952 47.0505 103.846 Q47.0505 96.7162 45.2218 93.1745 Q43.4163 89.6097 39.782 89.6097 M39.782 85.906 Q45.5922 85.906 48.6477 90.5125 Q51.7264 95.0958 51.7264 103.846 Q51.7264 112.573 48.6477 117.179 Q45.5922 121.762 39.782 121.762 Q33.9719 121.762 30.8932 117.179 Q27.8377 112.573 27.8377 103.846 Q27.8377 95.0958 30.8932 90.5125 Q33.9719 85.906 39.782 85.906 Z" fill="#000000" fill-rule="evenodd" fill-opacity="1" /><path clip-path="url(#clip430)" d="M 0 0 M66.7958 89.6097 Q63.1847 89.6097 61.356 93.1745 Q59.5504 96.7162 59.5504 103.846 Q59.5504 110.952 61.356 114.517 Q63.1847 118.059 66.7958 118.059 Q70.43 118.059 72.2356 114.517 Q74.0643 110.952 74.0643 103.846 Q74.0643 96.7162 72.2356 93.1745 Q70.43 89.6097 66.7958 89.6097 M66.7958 85.906 Q72.6059 85.906 75.6615 90.5125 Q78.7402 95.0958 78.7402 103.846 Q78.7402 112.573 75.6615 117.179 Q72.6059 121.762 66.7958 121.762 Q60.9856 121.762 57.9069 117.179 Q54.8514 112.573 54.8514 103.846 Q54.8514 95.0958 57.9069 90.5125 Q60.9856 85.906 66.7958 85.906 Z" fill="#000000" fill-rule="evenodd" fill-opacity="1" /><path clip-path="url(#clip430)" d="M 0 0 M830.84 12.096 L865.597 12.096 L865.597 18.9825 L839.023 18.9825 L839.023 36.8065 L863.005 36.8065 L863.005 43.6931 L839.023 43.6931 L839.023 72.576 L830.84 72.576 L830.84 12.096 Z" fill="#000000" fill-rule="evenodd" fill-opacity="1" /><path clip-path="url(#clip430)" d="M 0 0 M893.67 34.1734 Q892.414 33.4443 890.915 33.1202 Q889.457 32.7556 887.675 32.7556 Q881.355 32.7556 877.952 36.8875 Q874.59 40.9789 874.59 48.6757 L874.59 72.576 L867.096 72.576 L867.096 27.2059 L874.59 27.2059 L874.59 34.2544 Q876.94 30.1225 880.707 28.1376 Q884.474 26.1121 889.862 26.1121 Q890.632 26.1121 891.563 26.2337 Q892.495 26.3147 893.629 26.5172 L893.67 34.1734 Z" fill="#000000" fill-rule="evenodd" fill-opacity="1" /><path clip-path="url(#clip430)" d="M 0 0 M901.488 27.2059 L908.942 27.2059 L908.942 72.576 L901.488 72.576 L901.488 27.2059 M901.488 9.54393 L908.942 9.54393 L908.942 18.9825 L901.488 18.9825 L901.488 9.54393 Z" fill="#000000" fill-rule="evenodd" fill-opacity="1" /><path clip-path="url(#clip430)" d="M 0 0 M949.41 28.9478 L949.41 35.9153 Q946.251 34.1734 943.05 33.3227 Q939.891 32.4315 936.65 32.4315 Q929.399 32.4315 925.389 37.0496 Q921.378 41.6271 921.378 49.9314 Q921.378 58.2358 925.389 62.8538 Q929.399 67.4314 936.65 67.4314 Q939.891 67.4314 943.05 66.5807 Q946.251 65.6895 949.41 63.9476 L949.41 70.8341 Q946.291 72.2924 942.929 73.0216 Q939.607 73.7508 935.84 73.7508 Q925.591 73.7508 919.555 67.3098 Q913.519 60.8689 913.519 49.9314 Q913.519 38.832 919.596 32.472 Q925.713 26.1121 936.326 26.1121 Q939.769 26.1121 943.05 26.8413 Q946.332 27.5299 949.41 28.9478 Z" fill="#000000" fill-rule="evenodd" fill-opacity="1" /><path clip-path="url(#clip430)" d="M 0 0 M964.601 14.324 L964.601 27.2059 L979.954 27.2059 L979.954 32.9987 L964.601 32.9987 L964.601 57.6282 Q964.601 63.1779 966.1 64.7578 Q967.639 66.3376 972.298 66.3376 L979.954 66.3376 L979.954 72.576 L972.298 72.576 Q963.67 72.576 960.388 69.3758 Q957.107 66.1351 957.107 57.6282 L957.107 32.9987 L951.638 32.9987 L951.638 27.2059 L957.107 27.2059 L957.107 14.324 L964.601 14.324 Z" fill="#000000" fill-rule="evenodd" fill-opacity="1" /><path clip-path="url(#clip430)" d="M 0 0 M987.772 27.2059 L995.226 27.2059 L995.226 72.576 L987.772 72.576 L987.772 27.2059 M987.772 9.54393 L995.226 9.54393 L995.226 18.9825 L987.772 18.9825 L987.772 9.54393 Z" fill="#000000" fill-rule="evenodd" fill-opacity="1" /><path clip-path="url(#clip430)" d="M 0 0 M1020.63 32.4315 Q1014.63 32.4315 1011.15 37.1306 Q1007.66 41.7891 1007.66 49.9314 Q1007.66 58.0738 1011.11 62.7728 Q1014.59 67.4314 1020.63 67.4314 Q1026.58 67.4314 1030.06 62.7323 Q1033.55 58.0333 1033.55 49.9314 Q1033.55 41.8701 1030.06 37.1711 Q1026.58 32.4315 1020.63 32.4315 M1020.63 26.1121 Q1030.35 26.1121 1035.9 32.4315 Q1041.45 38.7509 1041.45 49.9314 Q1041.45 61.0714 1035.9 67.4314 Q1030.35 73.7508 1020.63 73.7508 Q1010.86 73.7508 1005.31 67.4314 Q999.804 61.0714 999.804 49.9314 Q999.804 38.7509 1005.31 32.4315 Q1010.86 26.1121 1020.63 26.1121 Z" fill="#000000" fill-rule="evenodd" fill-opacity="1" /><path clip-path="url(#clip430)" d="M 0 0 M1086.98 45.1919 L1086.98 72.576 L1079.53 72.576 L1079.53 45.4349 Q1079.53 38.994 1077.01 35.7938 Q1074.5 32.5936 1069.48 32.5936 Q1063.44 32.5936 1059.96 36.4419 Q1056.48 40.2903 1056.48 46.9338 L1056.48 72.576 L1048.98 72.576 L1048.98 27.2059 L1056.48 27.2059 L1056.48 34.2544 Q1059.15 30.163 1062.75 28.1376 Q1066.4 26.1121 1071.14 26.1121 Q1078.96 26.1121 1082.97 30.9732 Q1086.98 35.7938 1086.98 45.1919 Z" fill="#000000" fill-rule="evenodd" fill-opacity="1" /><path clip-path="url(#clip430)" d="M 0 0 M1115.82 27.2059 L1123.72 27.2059 L1137.9 65.2844 L1152.08 27.2059 L1159.98 27.2059 L1142.96 72.576 L1132.84 72.576 L1115.82 27.2059 Z" fill="#000000" fill-rule="evenodd" fill-opacity="1" /><path clip-path="url(#clip430)" d="M 0 0 M1206.6 48.0275 L1206.6 51.6733 L1172.33 51.6733 Q1172.82 59.3701 1176.95 63.421 Q1181.12 67.4314 1188.54 67.4314 Q1192.83 67.4314 1196.84 66.3781 Q1200.89 65.3249 1204.86 63.2184 L1204.86 70.267 Q1200.85 71.9684 1196.64 72.8596 Q1192.42 73.7508 1188.09 73.7508 Q1177.23 73.7508 1170.87 67.4314 Q1164.55 61.1119 1164.55 50.3365 Q1164.55 39.1965 1170.55 32.6746 Q1176.59 26.1121 1186.79 26.1121 Q1195.95 26.1121 1201.26 32.0264 Q1206.6 37.9003 1206.6 48.0275 M1199.15 45.84 Q1199.07 39.7232 1195.71 36.0774 Q1192.38 32.4315 1186.87 32.4315 Q1180.64 32.4315 1176.87 35.9558 Q1173.14 39.4801 1172.57 45.8805 L1199.15 45.84 Z" fill="#000000" fill-rule="evenodd" fill-opacity="1" /><path clip-path="url(#clip430)" d="M 0 0 M1214.42 9.54393 L1221.87 9.54393 L1221.87 72.576 L1214.42 72.576 L1214.42 9.54393 Z" fill="#000000" fill-rule="evenodd" fill-opacity="1" /><path clip-path="url(#clip430)" d="M 0 0 M1247.27 32.4315 Q1241.28 32.4315 1237.79 37.1306 Q1234.31 41.7891 1234.31 49.9314 Q1234.31 58.0738 1237.75 62.7728 Q1241.24 67.4314 1247.27 67.4314 Q1253.23 67.4314 1256.71 62.7323 Q1260.2 58.0333 1260.2 49.9314 Q1260.2 41.8701 1256.71 37.1711 Q1253.23 32.4315 1247.27 32.4315 M1247.27 26.1121 Q1257 26.1121 1262.55 32.4315 Q1268.1 38.7509 1268.1 49.9314 Q1268.1 61.0714 1262.55 67.4314 Q1257 73.7508 1247.27 73.7508 Q1237.51 73.7508 1231.96 67.4314 Q1226.45 61.0714 1226.45 49.9314 Q1226.45 38.7509 1231.96 32.4315 Q1237.51 26.1121 1247.27 26.1121 Z" fill="#000000" fill-rule="evenodd" fill-opacity="1" /><path clip-path="url(#clip430)" d="M 0 0 M1308.56 28.9478 L1308.56 35.9153 Q1305.4 34.1734 1302.2 33.3227 Q1299.04 32.4315 1295.8 32.4315 Q1288.55 32.4315 1284.54 37.0496 Q1280.53 41.6271 1280.53 49.9314 Q1280.53 58.2358 1284.54 62.8538 Q1288.55 67.4314 1295.8 67.4314 Q1299.04 67.4314 1302.2 66.5807 Q1305.4 65.6895 1308.56 63.9476 L1308.56 70.8341 Q1305.44 72.2924 1302.08 73.0216 Q1298.76 73.7508 1294.99 73.7508 Q1284.74 73.7508 1278.71 67.3098 Q1272.67 60.8689 1272.67 49.9314 Q1272.67 38.832 1278.75 32.472 Q1284.87 26.1121 1295.48 26.1121 Q1298.92 26.1121 1302.2 26.8413 Q1305.48 27.5299 1308.56 28.9478 Z" fill="#000000" fill-rule="evenodd" fill-opacity="1" /><path clip-path="url(#clip430)" d="M 0 0 M1316.38 27.2059 L1323.84 27.2059 L1323.84 72.576 L1316.38 72.576 L1316.38 27.2059 M1316.38 9.54393 L1323.84 9.54393 L1323.84 18.9825 L1316.38 18.9825 L1316.38 9.54393 Z" fill="#000000" fill-rule="evenodd" fill-opacity="1" /><path clip-path="url(#clip430)" d="M 0 0 M1339.03 14.324 L1339.03 27.2059 L1354.38 27.2059 L1354.38 32.9987 L1339.03 32.9987 L1339.03 57.6282 Q1339.03 63.1779 1340.53 64.7578 Q1342.06 66.3376 1346.72 66.3376 L1354.38 66.3376 L1354.38 72.576 L1346.72 72.576 Q1338.09 72.576 1334.81 69.3758 Q1331.53 66.1351 1331.53 57.6282 L1331.53 32.9987 L1326.06 32.9987 L1326.06 27.2059 L1331.53 27.2059 L1331.53 14.324 L1339.03 14.324 Z" fill="#000000" fill-rule="evenodd" fill-opacity="1" /><path clip-path="url(#clip430)" d="M 0 0 M1381.07 76.7889 Q1377.92 84.8907 1374.92 87.3618 Q1371.92 89.8329 1366.9 89.8329 L1360.94 89.8329 L1360.94 83.5945 L1365.32 83.5945 Q1368.4 83.5945 1370.1 82.1361 Q1371.8 80.6778 1373.86 75.2496 L1375.2 71.8468 L1356.85 27.2059 L1364.75 27.2059 L1378.93 62.6918 L1393.11 27.2059 L1401.01 27.2059 L1381.07 76.7889 Z" fill="#000000" fill-rule="evenodd" fill-opacity="1" /><path clip-path="url(#clip430)" d="M 0 0 M1429.85 27.2059 L1437.75 27.2059 L1451.93 65.2844 L1466.1 27.2059 L1474 27.2059 L1456.99 72.576 L1446.86 72.576 L1429.85 27.2059 Z" fill="#000000" fill-rule="evenodd" fill-opacity="1" /><path clip-path="url(#clip430)" d="M 0 0 M1510.74 28.5427 L1510.74 35.5912 Q1507.58 33.9709 1504.18 33.1607 Q1500.78 32.3505 1497.13 32.3505 Q1491.58 32.3505 1488.79 34.0519 Q1486.03 35.7533 1486.03 39.156 Q1486.03 41.7486 1488.02 43.2475 Q1490 44.7058 1496 46.0426 L1498.55 46.6097 Q1506.49 48.3111 1509.81 51.4303 Q1513.17 54.509 1513.17 60.0587 Q1513.17 66.3781 1508.15 70.0644 Q1503.17 73.7508 1494.42 73.7508 Q1490.77 73.7508 1486.8 73.0216 Q1482.87 72.3329 1478.5 70.9151 L1478.5 63.2184 Q1482.63 65.3654 1486.64 66.4591 Q1490.65 67.5124 1494.58 67.5124 Q1499.85 67.5124 1502.68 65.73 Q1505.52 63.9071 1505.52 60.6258 Q1505.52 57.5877 1503.45 55.9673 Q1501.43 54.3469 1494.5 52.8481 L1491.91 52.2405 Q1484.98 50.7821 1481.9 47.7845 Q1478.82 44.7463 1478.82 39.4801 Q1478.82 33.0797 1483.36 29.5959 Q1487.9 26.1121 1496.24 26.1121 Q1500.37 26.1121 1504.02 26.7198 Q1507.67 27.3274 1510.74 28.5427 Z" fill="#000000" fill-rule="evenodd" fill-opacity="1" /><path clip-path="url(#clip430)" d="M 0 0 M1577.22 34.0924 L1577.22 9.54393 L1584.67 9.54393 L1584.67 72.576 L1577.22 72.576 L1577.22 65.7705 Q1574.87 69.8214 1571.26 71.8063 Q1567.7 73.7508 1562.68 73.7508 Q1554.45 73.7508 1549.27 67.1883 Q1544.12 60.6258 1544.12 49.9314 Q1544.12 39.2371 1549.27 32.6746 Q1554.45 26.1121 1562.68 26.1121 Q1567.7 26.1121 1571.26 28.0971 Q1574.87 30.0415 1577.22 34.0924 M1551.82 49.9314 Q1551.82 58.1548 1555.18 62.8538 Q1558.59 67.5124 1564.5 67.5124 Q1570.41 67.5124 1573.82 62.8538 Q1577.22 58.1548 1577.22 49.9314 Q1577.22 41.7081 1573.82 37.0496 Q1570.41 32.3505 1564.5 32.3505 Q1558.59 32.3505 1555.18 37.0496 Q1551.82 41.7081 1551.82 49.9314 Z" fill="#000000" fill-rule="evenodd" fill-opacity="1" /><path clip-path="url(#clip430)" d="M 0 0 M1589.25 27.2059 L1624.66 27.2059 L1624.66 34.0114 L1596.62 66.6212 L1624.66 66.6212 L1624.66 72.576 L1588.24 72.576 L1588.24 65.7705 L1616.27 33.1607 L1589.25 33.1607 L1589.25 27.2059 Z" fill="#000000" fill-rule="evenodd" fill-opacity="1" /><path clip-path="url(#clip430)" d="M 0 0 M1003.75 1590.6 L1031.06 1590.6 L1031.06 1596.01 L1010.18 1596.01 L1010.18 1610.02 L1029.03 1610.02 L1029.03 1615.43 L1010.18 1615.43 L1010.18 1638.12 L1003.75 1638.12 L1003.75 1590.6 Z" fill="#000000" fill-rule="evenodd" fill-opacity="1" /><path clip-path="url(#clip430)" d="M 0 0 M1053.12 1607.95 Q1052.13 1607.38 1050.96 1607.12 Q1049.81 1606.84 1048.41 1606.84 Q1043.44 1606.84 1040.77 1610.08 Q1038.13 1613.3 1038.13 1619.35 L1038.13 1638.12 L1032.24 1638.12 L1032.24 1602.48 L1038.13 1602.48 L1038.13 1608.01 Q1039.98 1604.77 1042.94 1603.21 Q1045.9 1601.62 1050.13 1601.62 Q1050.73 1601.62 1051.47 1601.71 Q1052.2 1601.78 1053.09 1601.93 L1053.12 1607.95 Z" fill="#000000" fill-rule="evenodd" fill-opacity="1" /><path clip-path="url(#clip430)" d="M 0 0 M1059.26 1602.48 L1065.12 1602.48 L1065.12 1638.12 L1059.26 1638.12 L1059.26 1602.48 M1059.26 1588.6 L1065.12 1588.6 L1065.12 1596.01 L1059.26 1596.01 L1059.26 1588.6 Z" fill="#000000" fill-rule="evenodd" fill-opacity="1" /><path clip-path="url(#clip430)" d="M 0 0 M1096.92 1603.84 L1096.92 1609.32 Q1094.43 1607.95 1091.92 1607.28 Q1089.44 1606.58 1086.89 1606.58 Q1081.19 1606.58 1078.04 1610.21 Q1074.89 1613.81 1074.89 1620.33 Q1074.89 1626.86 1078.04 1630.48 Q1081.19 1634.08 1086.89 1634.08 Q1089.44 1634.08 1091.92 1633.41 Q1094.43 1632.71 1096.92 1631.34 L1096.92 1636.76 Q1094.47 1637.9 1091.82 1638.47 Q1089.21 1639.05 1086.25 1639.05 Q1078.2 1639.05 1073.46 1633.99 Q1068.72 1628.93 1068.72 1620.33 Q1068.72 1611.61 1073.49 1606.61 Q1078.3 1601.62 1086.64 1601.62 Q1089.34 1601.62 1091.92 1602.19 Q1094.5 1602.73 1096.92 1603.84 Z" fill="#000000" fill-rule="evenodd" fill-opacity="1" /><path clip-path="url(#clip430)" d="M 0 0 M1108.85 1592.35 L1108.85 1602.48 L1120.92 1602.48 L1120.92 1607.03 L1108.85 1607.03 L1108.85 1626.38 Q1108.85 1630.74 1110.03 1631.98 Q1111.24 1633.22 1114.9 1633.22 L1120.92 1633.22 L1120.92 1638.12 L1114.9 1638.12 Q1108.12 1638.12 1105.54 1635.61 Q1102.96 1633.06 1102.96 1626.38 L1102.96 1607.03 L1098.67 1607.03 L1098.67 1602.48 L1102.96 1602.48 L1102.96 1592.35 L1108.85 1592.35 Z" fill="#000000" fill-rule="evenodd" fill-opacity="1" /><path clip-path="url(#clip430)" d="M 0 0 M1127.06 1602.48 L1132.91 1602.48 L1132.91 1638.12 L1127.06 1638.12 L1127.06 1602.48 M1127.06 1588.6 L1132.91 1588.6 L1132.91 1596.01 L1127.06 1596.01 L1127.06 1588.6 Z" fill="#000000" fill-rule="evenodd" fill-opacity="1" /><path clip-path="url(#clip430)" d="M 0 0 M1152.87 1606.58 Q1148.16 1606.58 1145.42 1610.27 Q1142.69 1613.93 1142.69 1620.33 Q1142.69 1626.73 1145.39 1630.42 Q1148.13 1634.08 1152.87 1634.08 Q1157.55 1634.08 1160.29 1630.39 Q1163.02 1626.7 1163.02 1620.33 Q1163.02 1614 1160.29 1610.31 Q1157.55 1606.58 1152.87 1606.58 M1152.87 1601.62 Q1160.51 1601.62 1164.87 1606.58 Q1169.23 1611.55 1169.23 1620.33 Q1169.23 1629.08 1164.87 1634.08 Q1160.51 1639.05 1152.87 1639.05 Q1145.2 1639.05 1140.84 1634.08 Q1136.51 1629.08 1136.51 1620.33 Q1136.51 1611.55 1140.84 1606.58 Q1145.2 1601.62 1152.87 1601.62 Z" fill="#000000" fill-rule="evenodd" fill-opacity="1" /><path clip-path="url(#clip430)" d="M 0 0 M1205.01 1616.61 L1205.01 1638.12 L1199.15 1638.12 L1199.15 1616.8 Q1199.15 1611.74 1197.18 1609.22 Q1195.2 1606.71 1191.26 1606.71 Q1186.51 1606.71 1183.78 1609.73 Q1181.04 1612.76 1181.04 1617.98 L1181.04 1638.12 L1175.15 1638.12 L1175.15 1602.48 L1181.04 1602.48 L1181.04 1608.01 Q1183.14 1604.8 1185.97 1603.21 Q1188.84 1601.62 1192.56 1601.62 Q1198.7 1601.62 1201.86 1605.44 Q1205.01 1609.22 1205.01 1616.61 Z" fill="#000000" fill-rule="evenodd" fill-opacity="1" /><path clip-path="url(#clip430)" d="M 0 0 M1227.67 1602.48 L1233.88 1602.48 L1245.02 1632.39 L1256.15 1602.48 L1262.36 1602.48 L1248.99 1638.12 L1241.04 1638.12 L1227.67 1602.48 Z" fill="#000000" fill-rule="evenodd" fill-opacity="1" /><path clip-path="url(#clip430)" d="M 0 0 M1299 1618.84 L1299 1621.7 L1272.07 1621.7 Q1272.45 1627.75 1275.7 1630.93 Q1278.98 1634.08 1284.8 1634.08 Q1288.17 1634.08 1291.33 1633.25 Q1294.51 1632.43 1297.63 1630.77 L1297.63 1636.31 Q1294.48 1637.65 1291.17 1638.35 Q1287.86 1639.05 1284.45 1639.05 Q1275.92 1639.05 1270.92 1634.08 Q1265.96 1629.12 1265.96 1620.65 Q1265.96 1611.9 1270.67 1606.77 Q1275.41 1601.62 1283.43 1601.62 Q1290.63 1601.62 1294.79 1606.26 Q1299 1610.88 1299 1618.84 M1293.14 1617.12 Q1293.08 1612.31 1290.43 1609.45 Q1287.82 1606.58 1283.5 1606.58 Q1278.59 1606.58 1275.63 1609.35 Q1272.71 1612.12 1272.26 1617.15 L1293.14 1617.12 Z" fill="#000000" fill-rule="evenodd" fill-opacity="1" /><path clip-path="url(#clip430)" d="M 0 0 M1305.14 1588.6 L1311 1588.6 L1311 1638.12 L1305.14 1638.12 L1305.14 1588.6 Z" fill="#000000" fill-rule="evenodd" fill-opacity="1" /><path clip-path="url(#clip430)" d="M 0 0 M1330.95 1606.58 Q1326.24 1606.58 1323.5 1610.27 Q1320.77 1613.93 1320.77 1620.33 Q1320.77 1626.73 1323.47 1630.42 Q1326.21 1634.08 1330.95 1634.08 Q1335.63 1634.08 1338.37 1630.39 Q1341.11 1626.7 1341.11 1620.33 Q1341.11 1614 1338.37 1610.31 Q1335.63 1606.58 1330.95 1606.58 M1330.95 1601.62 Q1338.59 1601.62 1342.95 1606.58 Q1347.31 1611.55 1347.31 1620.33 Q1347.31 1629.08 1342.95 1634.08 Q1338.59 1639.05 1330.95 1639.05 Q1323.28 1639.05 1318.92 1634.08 Q1314.59 1629.08 1314.59 1620.33 Q1314.59 1611.55 1318.92 1606.58 Q1323.28 1601.62 1330.95 1601.62 Z" fill="#000000" fill-rule="evenodd" fill-opacity="1" /><path clip-path="url(#clip430)" d="M 0 0 M1379.11 1603.84 L1379.11 1609.32 Q1376.63 1607.95 1374.11 1607.28 Q1371.63 1606.58 1369.08 1606.58 Q1363.39 1606.58 1360.23 1610.21 Q1357.08 1613.81 1357.08 1620.33 Q1357.08 1626.86 1360.23 1630.48 Q1363.39 1634.08 1369.08 1634.08 Q1371.63 1634.08 1374.11 1633.41 Q1376.63 1632.71 1379.11 1631.34 L1379.11 1636.76 Q1376.66 1637.9 1374.02 1638.47 Q1371.41 1639.05 1368.45 1639.05 Q1360.39 1639.05 1355.65 1633.99 Q1350.91 1628.93 1350.91 1620.33 Q1350.91 1611.61 1355.68 1606.61 Q1360.49 1601.62 1368.83 1601.62 Q1371.53 1601.62 1374.11 1602.19 Q1376.69 1602.73 1379.11 1603.84 Z" fill="#000000" fill-rule="evenodd" fill-opacity="1" /><path clip-path="url(#clip430)" d="M 0 0 M1385.25 1602.48 L1391.11 1602.48 L1391.11 1638.12 L1385.25 1638.12 L1385.25 1602.48 M1385.25 1588.6 L1391.11 1588.6 L1391.11 1596.01 L1385.25 1596.01 L1385.25 1588.6 Z" fill="#000000" fill-rule="evenodd" fill-opacity="1" /><path clip-path="url(#clip430)" d="M 0 0 M1403.04 1592.35 L1403.04 1602.48 L1415.11 1602.48 L1415.11 1607.03 L1403.04 1607.03 L1403.04 1626.38 Q1403.04 1630.74 1404.22 1631.98 Q1405.43 1633.22 1409.09 1633.22 L1415.11 1633.22 L1415.11 1638.12 L1409.09 1638.12 Q1402.31 1638.12 1399.73 1635.61 Q1397.16 1633.06 1397.16 1626.38 L1397.16 1607.03 L1392.86 1607.03 L1392.86 1602.48 L1397.16 1602.48 L1397.16 1592.35 L1403.04 1592.35 Z" fill="#000000" fill-rule="evenodd" fill-opacity="1" /><path clip-path="url(#clip430)" d="M 0 0 M1436.08 1641.43 Q1433.6 1647.8 1431.24 1649.74 Q1428.89 1651.68 1424.94 1651.68 L1420.26 1651.68 L1420.26 1646.78 L1423.7 1646.78 Q1426.12 1646.78 1427.46 1645.64 Q1428.79 1644.49 1430.42 1640.22 L1431.47 1637.55 L1417.05 1602.48 L1423.25 1602.48 L1434.39 1630.36 L1445.53 1602.48 L1451.74 1602.48 L1436.08 1641.43 Z" fill="#000000" fill-rule="evenodd" fill-opacity="1" /><path clip-path="url(#clip430)" d="M 0 0 M-64.359 789.76 L-83.6471 789.76 L-83.6471 783.903 L-34.1219 783.903 L-34.1219 789.76 L-39.4691 789.76 Q-36.2863 791.606 -34.7267 794.438 Q-33.1989 797.239 -33.1989 801.186 Q-33.1989 807.647 -38.3551 811.721 Q-43.5113 815.764 -51.9141 815.764 Q-60.3168 815.764 -65.473 811.721 Q-70.6293 807.647 -70.6293 801.186 Q-70.6293 797.239 -69.0697 794.438 Q-67.5419 791.606 -64.359 789.76 M-51.9141 809.716 Q-45.4529 809.716 -41.7608 807.074 Q-38.1005 804.401 -38.1005 799.754 Q-38.1005 795.107 -41.7608 792.433 Q-45.4529 789.76 -51.9141 789.76 Q-58.3753 789.76 -62.0355 792.433 Q-65.7277 795.107 -65.7277 799.754 Q-65.7277 804.401 -62.0355 807.074 Q-58.3753 809.716 -51.9141 809.716 Z" fill="#000000" fill-rule="evenodd" fill-opacity="1" /><path clip-path="url(#clip430)" d="M 0 0 M-69.7699 780.307 L-69.7699 752.488 L-64.4227 752.488 L-38.8007 774.514 L-38.8007 752.488 L-34.1219 752.488 L-34.1219 781.102 L-39.4691 781.102 L-65.0911 759.077 L-65.0911 780.307 L-69.7699 780.307 Z" fill="#000000" fill-rule="evenodd" fill-opacity="1" /><polyline clip-path="url(#clip432)" style="stroke:#009af9; stroke-width:4; stroke-opacity:1; fill:none" points="
  2289.08,1450.7 753.301,1436.95 451.858,1423.21 340.591,1409.47 286.448,1395.72 255.607,1381.98 236.148,1368.23 222.957,1354.49 213.528,1340.75 206.506,1327 
  201.106,1313.26 196.842,1299.52 193.401,1285.77 190.573,1272.03 188.213,1258.28 186.216,1244.54 184.508,1230.8 183.031,1217.05 181.742,1203.31 180.609,1189.57 
  179.605,1175.82 178.71,1162.08 177.908,1148.34 177.185,1134.59 176.53,1120.85 175.934,1107.1 175.389,1093.36 174.89,1079.62 174.431,1065.87 174.007,1052.13 
  173.615,1038.39 173.25,1024.64 172.911,1010.9 172.595,997.154 172.299,983.41 172.022,969.666 171.762,955.923 171.517,942.179 171.287,928.435 171.069,914.691 
  170.863,900.948 170.669,887.204 170.484,873.46 170.309,859.717 170.142,845.973 169.983,832.229 169.832,818.485 169.688,804.742 169.551,790.998 169.419,777.254 
  169.293,763.51 169.173,749.767 169.057,736.023 168.946,722.279 168.84,708.535 168.738,694.792 168.639,681.048 168.545,667.304 168.454,653.56 168.366,639.817 
  168.281,626.073 168.2,612.329 168.121,598.586 168.045,584.842 167.972,571.098 167.901,557.354 167.832,543.611 167.765,529.867 167.701,516.123 167.638,502.379 
  167.578,488.636 167.519,474.892 167.462,461.148 167.407,447.404 167.354,433.661 167.302,419.917 167.251,406.173 167.202,392.429 167.154,378.686 167.108,364.942 
  167.063,351.198 167.019,337.455 166.976,323.711 166.934,309.967 166.894,296.223 166.854,282.48 166.816,268.736 166.778,254.992 166.741,241.248 166.706,227.505 
  166.671,213.761 166.637,200.017 166.603,186.273 166.571,172.53 166.539,158.786 166.508,145.042 166.478,131.298 166.449,117.555 166.42,103.811 
  "/>
<path clip-path="url(#clip430)" d="
M1989.74 267.472 L2280.76 267.472 L2280.76 146.512 L1989.74 146.512  Z
  " fill="#ffffff" fill-rule="evenodd" fill-opacity="1"/>
<polyline clip-path="url(#clip430)" style="stroke:#000000; stroke-width:4; stroke-opacity:1; fill:none" points="
  1989.74,267.472 2280.76,267.472 2280.76,146.512 1989.74,146.512 1989.74,267.472 
  "/>
<polyline clip-path="url(#clip430)" style="stroke:#009af9; stroke-width:4; stroke-opacity:1; fill:none" points="
  2013.74,206.992 2157.74,206.992 
  "/>
<path clip-path="url(#clip430)" d="M 0 0 M2195.58 226.68 Q2193.77 231.309 2192.06 232.721 Q2190.35 234.133 2187.48 234.133 L2184.08 234.133 L2184.08 230.568 L2186.58 230.568 Q2188.33 230.568 2189.31 229.735 Q2190.28 228.902 2191.46 225.8 L2192.22 223.855 L2181.74 198.346 L2186.25 198.346 L2194.35 218.624 L2202.46 198.346 L2206.97 198.346 L2195.58 226.68 Z" fill="#000000" fill-rule="evenodd" fill-opacity="1" /><path clip-path="url(#clip430)" d="M 0 0 M2212.85 220.337 L2220.49 220.337 L2220.49 193.971 L2212.18 195.638 L2212.18 191.379 L2220.44 189.712 L2225.12 189.712 L2225.12 220.337 L2232.76 220.337 L2232.76 224.272 L2212.85 224.272 L2212.85 220.337 Z" fill="#000000" fill-rule="evenodd" fill-opacity="1" /></svg>
